# Blender v3.4.1 OBJ File: 'Circle_cube_bottle.blend'
# www.blender.org
mtllib Circle_cube_bottle.mtl
o Bottle_Cube
v -0.040000 -0.040000 0.040000
v 0.000000 0.015000 -0.029000
v 0.000000 0.040000 -0.029000
v -0.040000 0.040000 0.040000
v -0.040000 -0.040000 -0.040000
v 0.004127 0.015000 -0.028705
v -0.040000 0.040000 -0.040000
v 0.004127 0.040000 -0.028705
v 0.040000 -0.040000 0.040000
v 0.008170 0.015000 -0.027825
v 0.008170 0.040000 -0.027825
v 0.040000 0.040000 0.040000
v 0.012047 0.015000 -0.026379
v 0.040000 -0.040000 -0.040000
v 0.012047 0.040000 -0.026379
v 0.040000 0.040000 -0.040000
v 0.015679 0.015000 -0.024396
v 0.015679 0.040000 -0.024396
v 0.018991 0.015000 -0.021917
v 0.018991 0.040000 -0.021917
v 0.021917 0.015000 -0.018991
v 0.021917 0.040000 -0.018991
v 0.024396 0.015000 -0.015679
v 0.024396 0.040000 -0.015679
v 0.026379 0.015000 -0.012047
v 0.026379 0.040000 -0.012047
v 0.027825 0.015000 -0.008170
v 0.027825 0.040000 -0.008170
v 0.028705 0.015000 -0.004127
v 0.028705 0.040000 -0.004127
v 0.029000 0.015000 0.000000
v 0.029000 0.040000 0.000000
v 0.028705 0.015000 0.004127
v 0.028705 0.040000 0.004127
v 0.027825 0.015000 0.008170
v 0.027825 0.040000 0.008170
v 0.026379 0.015000 0.012047
v 0.026379 0.040000 0.012047
v 0.024396 0.015000 0.015679
v 0.024396 0.040000 0.015679
v 0.021917 0.015000 0.018991
v 0.021917 0.040000 0.018991
v 0.018991 0.015000 0.021917
v 0.018991 0.040000 0.021917
v 0.015679 0.015000 0.024396
v 0.015679 0.040000 0.024396
v 0.012047 0.015000 0.026379
v 0.012047 0.040000 0.026379
v 0.008170 0.015000 0.027825
v 0.008170 0.040000 0.027825
v 0.004127 0.015000 0.028705
v 0.004127 0.040000 0.028705
v 0.000000 0.015000 0.029000
v 0.000000 0.040000 0.029000
v -0.004127 0.015000 0.028705
v -0.004127 0.040000 0.028705
v -0.008170 0.015000 0.027825
v -0.008170 0.040000 0.027825
v -0.012047 0.015000 0.026379
v -0.012047 0.040000 0.026379
v -0.015679 0.015000 0.024396
v -0.015679 0.040000 0.024396
v -0.018991 0.015000 0.021917
v -0.018991 0.040000 0.021917
v -0.021917 0.015000 0.018991
v -0.021917 0.040000 0.018991
v -0.024396 0.015000 0.015679
v -0.024396 0.040000 0.015679
v -0.026379 0.015000 0.012047
v -0.026379 0.040000 0.012047
v -0.027825 0.015000 0.008170
v -0.027825 0.040000 0.008170
v -0.028705 0.015000 0.004127
v -0.028705 0.040000 0.004127
v -0.029000 0.015000 0.000000
v -0.029000 0.040000 0.000000
v -0.028705 0.015000 -0.004127
v -0.028705 0.040000 -0.004127
v -0.027825 0.015000 -0.008170
v -0.027825 0.040000 -0.008170
v -0.026379 0.015000 -0.012047
v -0.026379 0.040000 -0.012047
v -0.024396 0.015000 -0.015679
v -0.024396 0.040000 -0.015679
v -0.021917 0.015000 -0.018991
v -0.021917 0.040000 -0.018991
v -0.018991 0.015000 -0.021917
v -0.018991 0.040000 -0.021917
v -0.015679 0.015000 -0.024396
v -0.015679 0.040000 -0.024396
v -0.012047 0.015000 -0.026379
v -0.012047 0.040000 -0.026379
v -0.008170 0.015000 -0.027825
v -0.008170 0.040000 -0.027825
v -0.004127 0.015000 -0.028705
v -0.004127 0.040000 -0.028705
v 0.020454 0.040000 -0.020454
v -0.020454 0.040000 0.020454
vt 0.375000 0.000000
vt 0.625000 0.000000
vt 0.625000 0.250000
vt 0.375000 0.250000
vt 0.625000 0.500000
vt 0.375000 0.500000
vt 0.625000 0.750000
vt 0.375000 0.750000
vt 0.625000 1.000000
vt 0.375000 1.000000
vt 0.125000 0.500000
vt 0.125000 0.750000
vt 0.690653 0.556510
vt 0.686082 0.561082
vt 0.875000 0.500000
vt 0.875000 0.750000
vt 0.813918 0.688918
vt 0.818490 0.684347
vt 0.826239 0.673996
vt 0.832435 0.662647
vt 0.836954 0.650532
vt 0.839703 0.637897
vt 0.840625 0.625000
vt 0.839703 0.612103
vt 0.836954 0.599468
vt 0.832435 0.587353
vt 0.826239 0.576005
vt 0.818490 0.565653
vt 0.809347 0.556510
vt 0.798996 0.548761
vt 0.787647 0.542565
vt 0.775532 0.538046
vt 0.762897 0.535298
vt 0.750000 0.534375
vt 0.737103 0.535297
vt 0.724468 0.538046
vt 0.712353 0.542565
vt 0.701004 0.548761
vt 0.809347 0.693490
vt 0.681510 0.565653
vt 0.673761 0.576004
vt 0.667565 0.587353
vt 0.663046 0.599468
vt 0.660297 0.612103
vt 0.659375 0.625000
vt 0.660297 0.637897
vt 0.663046 0.650532
vt 0.667565 0.662647
vt 0.673761 0.673996
vt 0.681510 0.684347
vt 0.690653 0.693490
vt 0.701004 0.701239
vt 0.712353 0.707435
vt 0.724468 0.711954
vt 0.737103 0.714703
vt 0.750000 0.715625
vt 0.762897 0.714703
vt 0.775532 0.711954
vt 0.787647 0.707435
vt 0.798996 0.701239
vt 1.000000 1.000000
vt 1.000000 0.500000
vt 0.977273 0.500000
vt 0.977273 1.000000
vt 0.954545 0.500000
vt 0.954545 1.000000
vt 0.931818 0.500000
vt 0.931818 1.000000
vt 0.909091 0.500000
vt 0.909091 1.000000
vt 0.886364 0.500000
vt 0.886364 1.000000
vt 0.863636 0.500000
vt 0.863636 1.000000
vt 0.875000 1.000000
vt 0.840909 1.000000
vt 0.840909 0.500000
vt 0.818182 1.000000
vt 0.818182 0.500000
vt 0.795455 1.000000
vt 0.795455 0.500000
vt 0.772727 1.000000
vt 0.772727 0.500000
vt 0.750000 1.000000
vt 0.750000 0.500000
vt 0.727273 1.000000
vt 0.727273 0.500000
vt 0.704546 1.000000
vt 0.704546 0.500000
vt 0.681818 1.000000
vt 0.681818 0.500000
vt 0.659091 1.000000
vt 0.659091 0.500000
vt 0.636364 1.000000
vt 0.636364 0.500000
vt 0.613637 1.000000
vt 0.613637 0.500000
vt 0.590909 1.000000
vt 0.590909 0.500000
vt 0.568182 1.000000
vt 0.568182 0.500000
vt 0.545455 1.000000
vt 0.545455 0.500000
vt 0.522728 1.000000
vt 0.522728 0.500000
vt 0.500000 1.000000
vt 0.500000 0.500000
vt 0.477273 1.000000
vt 0.477273 0.500000
vt 0.454546 1.000000
vt 0.454546 0.500000
vt 0.431819 1.000000
vt 0.431819 0.500000
vt 0.409091 1.000000
vt 0.409091 0.500000
vt 0.386364 1.000000
vt 0.386364 0.500000
vt 0.363637 0.500000
vt 0.363637 1.000000
vt 0.375000 1.000000
vt 0.340910 0.500000
vt 0.340910 1.000000
vt 0.318182 0.500000
vt 0.318182 1.000000
vt 0.295455 0.500000
vt 0.295455 1.000000
vt 0.272728 0.500000
vt 0.272728 1.000000
vt 0.250000 0.500000
vt 0.250000 1.000000
vt 0.227273 0.500000
vt 0.227273 1.000000
vt 0.204546 0.500000
vt 0.204546 1.000000
vt 0.181819 0.500000
vt 0.181819 1.000000
vt 0.159091 0.500000
vt 0.159091 1.000000
vt 0.136364 0.500000
vt 0.136364 1.000000
vt 0.113637 0.500000
vt 0.113637 1.000000
vt 0.090909 0.500000
vt 0.090909 1.000000
vt 0.068182 0.500000
vt 0.068182 1.000000
vt 0.045455 0.500000
vt 0.045455 1.000000
vt 0.022728 0.500000
vt 0.022728 1.000000
vt 0.000000 0.500000
vt 0.000000 1.000000
vt 0.907167 0.431380
vt 0.879754 0.451901
vt 0.849700 0.468312
vt 0.817616 0.480278
vt 0.784156 0.487557
vt 0.750000 0.490000
vt 0.715844 0.487557
vt 0.682384 0.480278
vt 0.650300 0.468312
vt 0.620246 0.451901
vt 0.592833 0.431380
vt 0.568620 0.407167
vt 0.548099 0.379754
vt 0.531688 0.349700
vt 0.519722 0.317616
vt 0.512443 0.284156
vt 0.510000 0.250000
vt 0.512443 0.215844
vt 0.519722 0.182384
vt 0.531688 0.150300
vt 0.548099 0.120246
vt 0.568620 0.092833
vt 0.592833 0.068620
vt 0.620246 0.048099
vt 0.650300 0.031688
vt 0.682384 0.019722
vt 0.715844 0.012443
vt 0.750000 0.010000
vt 0.784156 0.012443
vt 0.817616 0.019722
vt 0.849700 0.031688
vt 0.879754 0.048099
vt 0.907167 0.068620
vt 0.931380 0.092833
vt 0.951901 0.120246
vt 0.968312 0.150300
vt 0.980278 0.182384
vt 0.987557 0.215844
vt 0.990000 0.250000
vt 0.987557 0.284156
vt 0.980278 0.317616
vt 0.968312 0.349700
vt 0.951901 0.379754
vt 0.931380 0.407167
vn -1.0000 0.0000 0.0000
vn 0.0000 0.0000 -1.0000
vn 1.0000 0.0000 0.0000
vn 0.0000 0.0000 1.0000
vn 0.0000 -1.0000 0.0000
vn 0.0000 1.0000 0.0000
vn -0.0713 0.0000 0.9975
vn -0.2126 0.0000 0.9771
vn -0.3495 0.0000 0.9369
vn -0.4792 0.0000 0.8777
vn -0.5993 0.0000 0.8005
vn -0.7071 0.0000 0.7071
vn -0.8005 0.0000 0.5993
vn -0.8777 0.0000 0.4792
vn -0.9369 0.0000 0.3495
vn -0.9771 0.0000 0.2126
vn -0.9975 0.0000 0.0713
vn -0.9975 0.0000 -0.0713
vn -0.9771 0.0000 -0.2126
vn -0.9369 0.0000 -0.3495
vn -0.8777 0.0000 -0.4792
vn -0.8005 0.0000 -0.5993
vn -0.7071 0.0000 -0.7071
vn -0.5993 0.0000 -0.8005
vn -0.4792 0.0000 -0.8777
vn -0.3495 0.0000 -0.9369
vn -0.2126 0.0000 -0.9771
vn -0.0713 0.0000 -0.9975
vn 0.0713 0.0000 -0.9975
vn 0.2126 0.0000 -0.9771
vn 0.3495 0.0000 -0.9369
vn 0.4792 0.0000 -0.8777
vn 0.5993 0.0000 -0.8005
vn 0.7071 -0.0000 -0.7071
vn 0.8005 0.0000 -0.5993
vn 0.8777 0.0000 -0.4792
vn 0.9369 0.0000 -0.3495
vn 0.9771 0.0000 -0.2126
vn 0.9975 0.0000 -0.0713
vn 0.9975 0.0000 0.0713
vn 0.9771 0.0000 0.2126
vn 0.9369 0.0000 0.3495
vn 0.8777 0.0000 0.4792
vn 0.8005 0.0000 0.5993
vn 0.7071 0.0000 0.7071
vn 0.5993 0.0000 0.8005
vn 0.4792 0.0000 0.8777
vn 0.3495 0.0000 0.9369
vn 0.2126 0.0000 0.9771
vn 0.0713 0.0000 0.9975
usemtl Red
s off
f 1/1/1 4/2/1 7/3/1 5/4/1
f 5/4/2 7/3/2 16/5/2 14/6/2
f 14/6/3 16/5/3 12/7/3 9/8/3
f 9/8/4 12/7/4 4/9/4 1/10/4
f 5/11/5 14/6/5 9/8/5 1/12/5
f 20/13/6 97/14/6 16/5/6 7/15/6 4/16/6 98/17/6 66/18/6 68/19/6 70/20/6 72/21/6 74/22/6 76/23/6 78/24/6 80/25/6 82/26/6 84/27/6 86/28/6 88/29/6 90/30/6 92/31/6 94/32/6 96/33/6 3/34/6 8/35/6 11/36/6 15/37/6 18/38/6
f 64/39/6 98/17/6 4/16/6 12/7/6 16/5/6 97/14/6 22/40/6 24/41/6 26/42/6 28/43/6 30/44/6 32/45/6 34/46/6 36/47/6 38/48/6 40/49/6 42/50/6 44/51/6 46/52/6 48/53/6 50/54/6 52/55/6 54/56/6 56/57/6 58/58/6 60/59/6 62/60/6
usemtl Blue
f 3/61/7 2/62/7 6/63/7 8/64/7
f 8/64/8 6/63/8 10/65/8 11/66/8
f 11/66/9 10/65/9 13/67/9 15/68/9
f 15/68/10 13/67/10 17/69/10 18/70/10
f 18/70/11 17/69/11 19/71/11 20/72/11
f 20/72/12 19/71/12 21/73/12 22/74/12 97/75/12
f 24/76/13 22/74/13 21/73/13 23/77/13
f 26/78/14 24/76/14 23/77/14 25/79/14
f 28/80/15 26/78/15 25/79/15 27/81/15
f 30/82/16 28/80/16 27/81/16 29/83/16
f 32/84/17 30/82/17 29/83/17 31/85/17
f 34/86/18 32/84/18 31/85/18 33/87/18
f 36/88/19 34/86/19 33/87/19 35/89/19
f 38/90/20 36/88/20 35/89/20 37/91/20
f 40/92/21 38/90/21 37/91/21 39/93/21
f 42/94/22 40/92/22 39/93/22 41/95/22
f 44/96/23 42/94/23 41/95/23 43/97/23
f 46/98/24 44/96/24 43/97/24 45/99/24
f 48/100/25 46/98/25 45/99/25 47/101/25
f 50/102/26 48/100/26 47/101/26 49/103/26
f 52/104/27 50/102/27 49/103/27 51/105/27
f 54/106/28 52/104/28 51/105/28 53/107/28
f 56/108/29 54/106/29 53/107/29 55/109/29
f 58/110/30 56/108/30 55/109/30 57/111/30
f 60/112/31 58/110/31 57/111/31 59/113/31
f 62/114/32 60/112/32 59/113/32 61/115/32
f 64/116/33 62/114/33 61/115/33 63/117/33
f 63/117/34 65/118/34 66/119/34 98/120/34 64/116/34
f 66/119/35 65/118/35 67/121/35 68/122/35
f 68/122/36 67/121/36 69/123/36 70/124/36
f 70/124/37 69/123/37 71/125/37 72/126/37
f 72/126/38 71/125/38 73/127/38 74/128/38
f 74/128/39 73/127/39 75/129/39 76/130/39
f 76/130/40 75/129/40 77/131/40 78/132/40
f 78/132/41 77/131/41 79/133/41 80/134/41
f 80/134/42 79/133/42 81/135/42 82/136/42
f 82/136/43 81/135/43 83/137/43 84/138/43
f 84/138/44 83/137/44 85/139/44 86/140/44
f 86/140/45 85/139/45 87/141/45 88/142/45
f 88/142/46 87/141/46 89/143/46 90/144/46
f 90/144/47 89/143/47 91/145/47 92/146/47
f 92/146/48 91/145/48 93/147/48 94/148/48
f 94/148/49 93/147/49 95/149/49 96/150/49
f 95/149/50 2/151/50 3/152/50 96/150/50
f 19/153/6 17/154/6 13/155/6 10/156/6 6/157/6 2/158/6 95/159/6 93/160/6 91/161/6 89/162/6 87/163/6 85/164/6 83/165/6 81/166/6 79/167/6 77/168/6 75/169/6 73/170/6 71/171/6 69/172/6 67/173/6 65/174/6 63/175/6 61/176/6 59/177/6 57/178/6 55/179/6 53/180/6 51/181/6 49/182/6 47/183/6 45/184/6 43/185/6 41/186/6 39/187/6 37/188/6 35/189/6 33/190/6 31/191/6 29/192/6 27/193/6 25/194/6 23/195/6 21/196/6
