# Blender v3.4.1 OBJ File: 'Circle_cube_cap.blend'
# www.blender.org
mtllib Circle_cube_cap.mtl
o Cap_Cube.001
v -0.040000 -0.040000 0.040000
v -0.040000 0.040000 0.040000
v -0.040000 -0.040000 -0.040000
v -0.040000 0.040000 -0.040000
v 0.040000 -0.040000 0.040000
v 0.040000 0.040000 0.040000
v 0.040000 -0.040000 -0.040000
v 0.040000 0.040000 -0.040000
v 0.000000 0.040000 -0.028000
v 0.000000 0.060000 -0.028000
v 0.003985 0.040000 -0.027715
v 0.003985 0.060000 -0.027715
v 0.007889 0.040000 -0.026866
v 0.007889 0.060000 -0.026866
v 0.011632 0.040000 -0.025470
v 0.011632 0.060000 -0.025470
v 0.015138 0.040000 -0.023555
v 0.015138 0.060000 -0.023555
v 0.018336 0.040000 -0.021161
v 0.018336 0.060000 -0.021161
v 0.021161 0.040000 -0.018336
v 0.021161 0.060000 -0.018336
v 0.023555 0.040000 -0.015138
v 0.023555 0.060000 -0.015138
v 0.025470 0.040000 -0.011632
v 0.025470 0.060000 -0.011632
v 0.026866 0.040000 -0.007889
v 0.026866 0.060000 -0.007889
v 0.027715 0.040000 -0.003985
v 0.027715 0.060000 -0.003985
v 0.028000 0.040000 0.000000
v 0.028000 0.060000 0.000000
v 0.027715 0.040000 0.003985
v 0.027715 0.060000 0.003985
v 0.026866 0.040000 0.007889
v 0.026866 0.060000 0.007889
v 0.025470 0.040000 0.011632
v 0.025470 0.060000 0.011632
v 0.023555 0.040000 0.015138
v 0.023555 0.060000 0.015138
v 0.021161 0.040000 0.018336
v 0.021161 0.060000 0.018336
v 0.018336 0.040000 0.021161
v 0.018336 0.060000 0.021161
v 0.015138 0.040000 0.023555
v 0.015138 0.060000 0.023555
v 0.011632 0.040000 0.025470
v 0.011632 0.060000 0.025470
v 0.007889 0.040000 0.026866
v 0.007889 0.060000 0.026866
v 0.003985 0.040000 0.027715
v 0.003985 0.060000 0.027715
v 0.000000 0.040000 0.028000
v 0.000000 0.060000 0.028000
v -0.003985 0.040000 0.027715
v -0.003985 0.060000 0.027715
v -0.007889 0.040000 0.026866
v -0.007889 0.060000 0.026866
v -0.011632 0.040000 0.025470
v -0.011632 0.060000 0.025470
v -0.015138 0.040000 0.023555
v -0.015138 0.060000 0.023555
v -0.018336 0.040000 0.021161
v -0.018336 0.060000 0.021161
v -0.021161 0.040000 0.018336
v -0.021161 0.060000 0.018336
v -0.023555 0.040000 0.015138
v -0.023555 0.060000 0.015138
v -0.025470 0.040000 0.011632
v -0.025470 0.060000 0.011632
v -0.026866 0.040000 0.007889
v -0.026866 0.060000 0.007889
v -0.027715 0.040000 0.003985
v -0.027715 0.060000 0.003985
v -0.028000 0.040000 0.000000
v -0.028000 0.060000 0.000000
v -0.027715 0.040000 -0.003985
v -0.027715 0.060000 -0.003985
v -0.026866 0.040000 -0.007889
v -0.026866 0.060000 -0.007889
v -0.025470 0.040000 -0.011632
v -0.025470 0.060000 -0.011632
v -0.023555 0.040000 -0.015138
v -0.023555 0.060000 -0.015138
v -0.021161 0.040000 -0.018336
v -0.021161 0.060000 -0.018336
v -0.018336 0.040000 -0.021161
v -0.018336 0.060000 -0.021161
v -0.015138 0.040000 -0.023555
v -0.015138 0.060000 -0.023555
v -0.011632 0.040000 -0.025470
v -0.011632 0.060000 -0.025470
v -0.007889 0.040000 -0.026866
v -0.007889 0.060000 -0.026866
v -0.003985 0.040000 -0.027715
v -0.003985 0.060000 -0.027715
vt 0.375000 0.000000
vt 0.625000 0.000000
vt 0.625000 0.250000
vt 0.375000 0.250000
vt 0.625000 0.500000
vt 0.375000 0.500000
vt 0.625000 0.750000
vt 0.375000 0.750000
vt 0.625000 1.000000
vt 0.375000 1.000000
vt 0.125000 0.500000
vt 0.125000 0.750000
vt 0.875000 0.500000
vt 0.875000 0.750000
vt 0.750000 0.490000
vt 0.784156 0.487557
vt 0.817616 0.480278
vt 0.849700 0.468312
vt 0.879754 0.451901
vt 0.907167 0.431380
vt 0.931380 0.407167
vt 0.951901 0.379754
vt 0.968312 0.349700
vt 0.980278 0.317616
vt 0.987557 0.284156
vt 0.990000 0.250000
vt 0.987557 0.215844
vt 0.980278 0.182384
vt 0.968312 0.150300
vt 0.951901 0.120246
vt 0.931380 0.092833
vt 0.907167 0.068620
vt 0.879754 0.048099
vt 0.849700 0.031688
vt 0.817616 0.019722
vt 0.784156 0.012443
vt 0.750000 0.010000
vt 0.715844 0.012443
vt 0.682384 0.019722
vt 0.650300 0.031688
vt 0.620246 0.048099
vt 0.592833 0.068620
vt 0.568620 0.092833
vt 0.548099 0.120246
vt 0.531688 0.150300
vt 0.519722 0.182384
vt 0.512443 0.215844
vt 0.510000 0.250000
vt 0.512443 0.284156
vt 0.519722 0.317616
vt 0.531688 0.349700
vt 0.548099 0.379754
vt 0.568620 0.407167
vt 0.592833 0.431380
vt 0.620246 0.451901
vt 0.650300 0.468312
vt 0.682384 0.480278
vt 0.715844 0.487557
vt 1.000000 0.500000
vt 1.000000 1.000000
vt 0.977273 1.000000
vt 0.977273 0.500000
vt 0.954545 1.000000
vt 0.954545 0.500000
vt 0.931818 1.000000
vt 0.931818 0.500000
vt 0.909091 1.000000
vt 0.909091 0.500000
vt 0.886364 1.000000
vt 0.886364 0.500000
vt 0.863636 1.000000
vt 0.863636 0.500000
vt 0.840909 1.000000
vt 0.840909 0.500000
vt 0.818182 1.000000
vt 0.818182 0.500000
vt 0.795455 1.000000
vt 0.795455 0.500000
vt 0.772727 1.000000
vt 0.772727 0.500000
vt 0.750000 1.000000
vt 0.750000 0.500000
vt 0.727273 1.000000
vt 0.727273 0.500000
vt 0.704546 1.000000
vt 0.704546 0.500000
vt 0.681818 1.000000
vt 0.681818 0.500000
vt 0.659091 1.000000
vt 0.659091 0.500000
vt 0.636364 1.000000
vt 0.636364 0.500000
vt 0.613637 1.000000
vt 0.613637 0.500000
vt 0.590909 1.000000
vt 0.590909 0.500000
vt 0.568182 1.000000
vt 0.568182 0.500000
vt 0.545455 1.000000
vt 0.545455 0.500000
vt 0.522728 1.000000
vt 0.522728 0.500000
vt 0.500000 1.000000
vt 0.500000 0.500000
vt 0.477273 1.000000
vt 0.477273 0.500000
vt 0.454546 1.000000
vt 0.454546 0.500000
vt 0.431819 1.000000
vt 0.431819 0.500000
vt 0.409091 1.000000
vt 0.409091 0.500000
vt 0.386364 1.000000
vt 0.386364 0.500000
vt 0.363637 1.000000
vt 0.363637 0.500000
vt 0.340910 1.000000
vt 0.340910 0.500000
vt 0.318182 1.000000
vt 0.318182 0.500000
vt 0.295455 1.000000
vt 0.295455 0.500000
vt 0.272728 1.000000
vt 0.272728 0.500000
vt 0.250000 1.000000
vt 0.250000 0.500000
vt 0.227273 1.000000
vt 0.227273 0.500000
vt 0.204546 1.000000
vt 0.204546 0.500000
vt 0.181819 1.000000
vt 0.181819 0.500000
vt 0.159091 1.000000
vt 0.159091 0.500000
vt 0.136364 1.000000
vt 0.136364 0.500000
vt 0.113637 1.000000
vt 0.113637 0.500000
vt 0.090909 1.000000
vt 0.090909 0.500000
vt 0.068182 1.000000
vt 0.068182 0.500000
vt 0.045455 1.000000
vt 0.045455 0.500000
vt 0.284156 0.487557
vt 0.250000 0.490000
vt 0.215844 0.487557
vt 0.182384 0.480278
vt 0.150300 0.468312
vt 0.120246 0.451901
vt 0.092833 0.431380
vt 0.068620 0.407167
vt 0.048099 0.379754
vt 0.031688 0.349700
vt 0.019722 0.317616
vt 0.012443 0.284156
vt 0.010000 0.250000
vt 0.012443 0.215844
vt 0.019722 0.182384
vt 0.031688 0.150300
vt 0.048099 0.120246
vt 0.068620 0.092833
vt 0.092833 0.068620
vt 0.120246 0.048099
vt 0.150300 0.031688
vt 0.182384 0.019722
vt 0.215844 0.012443
vt 0.250000 0.010000
vt 0.284156 0.012443
vt 0.317616 0.019722
vt 0.349700 0.031688
vt 0.379754 0.048099
vt 0.407167 0.068620
vt 0.431380 0.092833
vt 0.451901 0.120246
vt 0.468312 0.150300
vt 0.480278 0.182384
vt 0.487557 0.215844
vt 0.490000 0.250000
vt 0.487557 0.284156
vt 0.480278 0.317616
vt 0.468312 0.349700
vt 0.451901 0.379754
vt 0.431380 0.407167
vt 0.407167 0.431380
vt 0.379754 0.451901
vt 0.349700 0.468312
vt 0.317616 0.480278
vt 0.022728 1.000000
vt 0.022728 0.500000
vt 0.000000 1.000000
vt 0.000000 0.500000
vn -1.0000 0.0000 0.0000
vn 0.0000 0.0000 -1.0000
vn 1.0000 0.0000 0.0000
vn 0.0000 0.0000 1.0000
vn 0.0000 -1.0000 0.0000
vn 0.0000 1.0000 0.0000
vn 0.0713 0.0000 -0.9975
vn 0.2126 0.0000 -0.9771
vn 0.3495 0.0000 -0.9369
vn 0.4792 0.0000 -0.8777
vn 0.5993 0.0000 -0.8005
vn 0.7071 0.0000 -0.7071
vn 0.8005 0.0000 -0.5993
vn 0.8777 0.0000 -0.4792
vn 0.9369 0.0000 -0.3495
vn 0.9771 0.0000 -0.2126
vn 0.9975 0.0000 -0.0713
vn 0.9975 0.0000 0.0713
vn 0.9771 0.0000 0.2126
vn 0.9369 0.0000 0.3495
vn 0.8777 0.0000 0.4792
vn 0.8005 0.0000 0.5993
vn 0.7071 0.0000 0.7071
vn 0.5993 0.0000 0.8005
vn 0.4792 0.0000 0.8777
vn 0.3495 0.0000 0.9369
vn 0.2126 0.0000 0.9771
vn 0.0713 0.0000 0.9975
vn -0.0713 0.0000 0.9975
vn -0.2126 0.0000 0.9771
vn -0.3495 0.0000 0.9369
vn -0.4792 0.0000 0.8777
vn -0.5993 0.0000 0.8005
vn -0.7071 0.0000 0.7071
vn -0.8005 0.0000 0.5993
vn -0.8777 0.0000 0.4792
vn -0.9369 0.0000 0.3495
vn -0.9771 0.0000 0.2126
vn -0.9975 0.0000 0.0713
vn -0.9975 0.0000 -0.0713
vn -0.9771 0.0000 -0.2126
vn -0.9369 0.0000 -0.3495
vn -0.8777 0.0000 -0.4792
vn -0.8005 0.0000 -0.5993
vn -0.7071 0.0000 -0.7071
vn -0.5993 0.0000 -0.8005
vn -0.4792 0.0000 -0.8777
vn -0.3495 0.0000 -0.9369
vn -0.2126 0.0000 -0.9771
vn -0.0713 0.0000 -0.9975
usemtl Red
s off
f 1/1/1 2/2/1 4/3/1 3/4/1
f 3/4/2 4/3/2 8/5/2 7/6/2
f 7/6/3 8/5/3 6/7/3 5/8/3
f 5/8/4 6/7/4 2/9/4 1/10/4
f 3/11/5 7/6/5 5/8/5 1/12/5
f 8/5/6 4/13/6 2/14/6 6/7/6
f 9/15/5 11/16/5 13/17/5 15/18/5 17/19/5 19/20/5 21/21/5 23/22/5 25/23/5 27/24/5 29/25/5 31/26/5 33/27/5 35/28/5 37/29/5 39/30/5 41/31/5 43/32/5 45/33/5 47/34/5 49/35/5 51/36/5 53/37/5 55/38/5 57/39/5 59/40/5 61/41/5 63/42/5 65/43/5 67/44/5 69/45/5 71/46/5 73/47/5 75/48/5 77/49/5 79/50/5 81/51/5 83/52/5 85/53/5 87/54/5 89/55/5 91/56/5 93/57/5 95/58/5
usemtl Blue
f 9/59/7 10/60/7 12/61/7 11/62/7
f 11/62/8 12/61/8 14/63/8 13/64/8
f 13/64/9 14/63/9 16/65/9 15/66/9
f 15/66/10 16/65/10 18/67/10 17/68/10
f 17/68/11 18/67/11 20/69/11 19/70/11
f 19/70/12 20/69/12 22/71/12 21/72/12
f 21/72/13 22/71/13 24/73/13 23/74/13
f 23/74/14 24/73/14 26/75/14 25/76/14
f 25/76/15 26/75/15 28/77/15 27/78/15
f 27/78/16 28/77/16 30/79/16 29/80/16
f 29/80/17 30/79/17 32/81/17 31/82/17
f 31/82/18 32/81/18 34/83/18 33/84/18
f 33/84/19 34/83/19 36/85/19 35/86/19
f 35/86/20 36/85/20 38/87/20 37/88/20
f 37/88/21 38/87/21 40/89/21 39/90/21
f 39/90/22 40/89/22 42/91/22 41/92/22
f 41/92/23 42/91/23 44/93/23 43/94/23
f 43/94/24 44/93/24 46/95/24 45/96/24
f 45/96/25 46/95/25 48/97/25 47/98/25
f 47/98/26 48/97/26 50/99/26 49/100/26
f 49/100/27 50/99/27 52/101/27 51/102/27
f 51/102/28 52/101/28 54/103/28 53/104/28
f 53/104/29 54/103/29 56/105/29 55/106/29
f 55/106/30 56/105/30 58/107/30 57/108/30
f 57/108/31 58/107/31 60/109/31 59/110/31
f 59/110/32 60/109/32 62/111/32 61/112/32
f 61/112/33 62/111/33 64/113/33 63/114/33
f 63/114/34 64/113/34 66/115/34 65/116/34
f 65/116/35 66/115/35 68/117/35 67/118/35
f 67/118/36 68/117/36 70/119/36 69/120/36
f 69/120/37 70/119/37 72/121/37 71/122/37
f 71/122/38 72/121/38 74/123/38 73/124/38
f 73/124/39 74/123/39 76/125/39 75/126/39
f 75/126/40 76/125/40 78/127/40 77/128/40
f 77/128/41 78/127/41 80/129/41 79/130/41
f 79/130/42 80/129/42 82/131/42 81/132/42
f 81/132/43 82/131/43 84/133/43 83/134/43
f 83/134/44 84/133/44 86/135/44 85/136/44
f 85/136/45 86/135/45 88/137/45 87/138/45
f 87/138/46 88/137/46 90/139/46 89/140/46
f 89/140/47 90/139/47 92/141/47 91/142/47
f 91/142/48 92/141/48 94/143/48 93/144/48
f 12/145/6 10/146/6 96/147/6 94/148/6 92/149/6 90/150/6 88/151/6 86/152/6 84/153/6 82/154/6 80/155/6 78/156/6 76/157/6 74/158/6 72/159/6 70/160/6 68/161/6 66/162/6 64/163/6 62/164/6 60/165/6 58/166/6 56/167/6 54/168/6 52/169/6 50/170/6 48/171/6 46/172/6 44/173/6 42/174/6 40/175/6 38/176/6 36/177/6 34/178/6 32/179/6 30/180/6 28/181/6 26/182/6 24/183/6 22/184/6 20/185/6 18/186/6 16/187/6 14/188/6
f 93/144/49 94/143/49 96/189/49 95/190/49
f 95/190/50 96/189/50 10/191/50 9/192/50
