# Blender v3.4.1 OBJ File: 'Cross_cube_cap.blend'
# www.blender.org
mtllib Cross_cube_cap.mtl
o Cap_Cube.004
v -0.040000 -0.040000 0.040000
v -0.040000 0.040000 0.040000
v -0.040000 -0.040000 -0.040000
v -0.040000 0.040000 -0.040000
v 0.040000 -0.040000 0.040000
v 0.040000 0.040000 0.040000
v 0.040000 -0.040000 -0.040000
v 0.040000 0.040000 -0.040000
v 0.008400 0.060000 -0.028000
v -0.028000 0.060000 -0.008400
v 0.008400 0.040000 -0.028000
v -0.028000 0.040000 -0.008400
v 0.008400 0.060000 0.028000
v 0.028000 0.060000 -0.008400
v 0.008400 0.040000 0.028000
v 0.028000 0.040000 -0.008400
v -0.008400 0.060000 -0.028000
v -0.028000 0.060000 0.008400
v -0.008400 0.040000 -0.028000
v -0.028000 0.040000 0.008400
v -0.008400 0.060000 0.028000
v 0.028000 0.060000 0.008400
v -0.008400 0.040000 0.028000
v 0.028000 0.040000 0.008400
v -0.008400 0.060000 -0.008400
v -0.008400 0.060000 0.008400
v -0.008400 0.040000 0.008400
v -0.008400 0.040000 -0.008400
v 0.008400 0.060000 0.008400
v 0.008400 0.060000 -0.008400
v 0.008400 0.040000 0.008400
v 0.008400 0.040000 -0.008400
v -0.002520 0.060000 0.008400
v 0.002520 0.040000 0.008400
v 0.002520 0.060000 -0.008400
v -0.002520 0.040000 -0.008400
vt 0.375000 0.000000
vt 0.625000 0.000000
vt 0.625000 0.250000
vt 0.375000 0.250000
vt 0.625000 0.500000
vt 0.375000 0.500000
vt 0.625000 0.750000
vt 0.375000 0.750000
vt 0.625000 1.000000
vt 0.375000 1.000000
vt 0.125000 0.500000
vt 0.125000 0.750000
vt 0.875000 0.500000
vt 0.875000 0.750000
vt 0.287500 0.662500
vt 0.375000 0.662500
vt 0.375000 0.750000
vt 0.125000 0.750000
vt 0.125000 0.662500
vt 0.212500 0.587500
vt 0.125000 0.587500
vt 0.125000 0.500000
vt 0.375000 0.500000
vt 0.375000 0.587500
vt 0.375000 0.750000
vt 0.125000 0.750000
vt 0.125000 0.662500
vt 0.375000 0.662500
vt 0.125000 0.500000
vt 0.375000 0.500000
vt 0.375000 0.587500
vt 0.125000 0.587500
vt 0.875000 0.662500
vt 0.875000 0.750000
vt 0.625000 0.750000
vt 0.625000 0.662500
vt 0.787500 0.662500
vt 0.625000 0.587500
vt 0.625000 0.500000
vt 0.875000 0.500000
vt 0.875000 0.587500
vt 0.712500 0.587500
vt 0.625000 1.000000
vt 0.375000 1.000000
vt 0.625000 0.162500
vt 0.625000 0.250000
vt 0.375000 0.250000
vt 0.375000 0.162500
vt 0.375000 0.000000
vt 0.625000 0.000000
vt 0.625000 0.087500
vt 0.375000 0.087500
vt 0.875000 0.662500
vt 0.875000 0.750000
vt 0.625000 0.750000
vt 0.625000 0.662500
vt 0.625000 0.587500
vt 0.625000 0.500000
vt 0.875000 0.500000
vt 0.875000 0.587500
vt 0.375000 1.000000
vt 0.625000 0.750000
vt 0.375000 1.000000
vt 0.625000 0.000000
vt 0.375000 0.250000
vt 0.375000 0.250000
vt 0.625000 0.000000
vt 0.375000 0.250000
vt 0.375000 0.250000
vt 0.625000 0.000000
vt 0.625000 0.000000
vt 0.625000 0.500000
vt 0.625000 0.500000
vt 0.375000 0.750000
vt 0.375000 0.750000
vt 0.625000 0.500000
vt 0.375000 0.750000
vt 0.375000 0.500000
vt 0.625000 0.250000
vt 0.625000 0.250000
vn -1.0000 0.0000 0.0000
vn 0.0000 0.0000 -1.0000
vn 1.0000 0.0000 0.0000
vn 0.0000 0.0000 1.0000
vn 0.0000 -1.0000 0.0000
vn 0.0000 1.0000 0.0000
usemtl Red
s off
f 1/1/1 2/2/1 4/3/1 3/4/1
f 3/4/2 4/3/2 8/5/2 7/6/2
f 7/6/3 8/5/3 6/7/3 5/8/3
f 5/8/4 6/7/4 2/9/4 1/10/4
f 3/11/5 7/6/5 5/8/5 1/12/5
f 8/5/6 4/13/6 2/14/6 6/7/6
f 34/15/5 31/16/5 15/17/5 23/18/5 27/19/5
f 36/20/5 28/21/5 19/22/5 11/23/5 32/24/5
f 36/20/5 32/24/5 31/16/5 34/15/5
f 27/19/5 28/21/5 36/20/5 34/15/5
f 16/25/5 24/26/5 31/27/5 32/28/5
f 20/29/5 12/30/5 28/31/5 27/32/5
usemtl Blue
f 26/33/6 21/34/6 13/35/6 29/36/6 33/37/6
f 30/38/6 9/39/6 17/40/6 25/41/6 35/42/6
f 35/42/6 25/41/6 26/33/6 33/37/6
f 33/37/6 29/36/6 30/38/6 35/42/6
f 15/17/4 13/35/4 21/43/4 23/44/4
f 25/45/1 17/46/1 19/47/1 28/48/1
f 23/49/1 21/50/1 26/51/1 27/52/1
f 13/35/3 15/17/3 31/16/3 29/36/3
f 32/24/3 11/23/3 9/39/3 30/38/3
f 19/47/2 17/46/2 9/39/2 11/23/2
f 29/53/6 22/54/6 14/55/6 30/56/6
f 25/57/6 10/58/6 18/59/6 26/60/6
f 16/61/3 14/55/3 22/62/3 24/63/3
f 18/64/4 20/65/4 27/66/4 26/67/4
f 31/68/4 24/69/4 22/70/4 29/71/4
f 30/72/2 14/73/2 16/25/2 32/74/2
f 12/75/2 10/58/2 25/76/2 28/77/2
f 20/78/1 18/79/1 10/80/1 12/30/1
