# Blender v3.4.1 OBJ File: 'Diamond_cube_bottle.blend'
# www.blender.org
mtllib Diamond_cube_bottle.mtl
o Bottle_Cube.003
v -0.040000 -0.040000 0.040000
v 0.000000 0.040000 -0.023627
v -0.040000 0.040000 0.040000
v 0.000000 0.015000 -0.023627
v -0.040000 -0.040000 -0.040000
v 0.034941 0.040000 0.000000
v -0.040000 0.040000 -0.040000
v 0.034941 0.015000 0.000000
v 0.040000 -0.040000 0.040000
v -0.034941 0.040000 0.000000
v 0.040000 0.040000 0.040000
v -0.034941 0.015000 0.000000
v 0.040000 -0.040000 -0.040000
v 0.000000 0.040000 0.023627
v 0.040000 0.040000 -0.040000
v 0.000000 0.015000 0.023627
v -0.014096 0.040000 0.014096
v 0.014096 0.040000 -0.014096
vt 0.375000 0.000000
vt 0.625000 0.000000
vt 0.625000 0.250000
vt 0.375000 0.250000
vt 0.625000 0.500000
vt 0.375000 0.500000
vt 0.625000 0.750000
vt 0.375000 0.750000
vt 0.625000 1.000000
vt 0.375000 1.000000
vt 0.125000 0.500000
vt 0.125000 0.750000
vt 0.750000 0.551164
vt 0.705951 0.580951
vt 0.875000 0.500000
vt 0.875000 0.750000
vt 0.794049 0.669049
vt 0.859191 0.625000
vt 0.750000 0.698836
vt 0.640809 0.625000
vt 0.625000 1.000000
vt 0.625000 0.750000
vt 0.375000 0.750000
vt 0.375000 1.000000
vt 0.375000 0.000000
vt 0.375000 0.250000
vt 0.625000 0.250000
vt 0.625000 0.100854
vt 0.625000 0.000000
vt 0.125000 0.500000
vt 0.125000 0.750000
vt 0.375000 0.500000
vt 0.625000 0.500000
vt 0.625000 0.600854
vn -1.0000 0.0000 0.0000
vn 0.0000 0.0000 -1.0000
vn 1.0000 0.0000 0.0000
vn 0.0000 0.0000 1.0000
vn 0.0000 -1.0000 0.0000
vn 0.0000 1.0000 0.0000
vn -0.5602 0.0000 -0.8284
vn 0.5602 0.0000 -0.8284
vn -0.5602 0.0000 0.8284
vn 0.5602 0.0000 0.8284
usemtl Red
s off
f 1/1/1 3/2/1 7/3/1 5/4/1
f 5/4/2 7/3/2 15/5/2 13/6/2
f 13/6/3 15/5/3 11/7/3 9/8/3
f 9/8/4 11/7/4 3/9/4 1/10/4
f 5/11/5 13/6/5 9/8/5 1/12/5
f 2/13/6 18/14/6 15/5/6 7/15/6 3/16/6 17/17/6 10/18/6
f 14/19/6 17/17/6 3/16/6 11/7/6 15/5/6 18/14/6 6/20/6
usemtl Blue
f 14/21/7 6/22/7 8/23/7 16/24/7
f 16/25/8 12/26/8 10/27/8 17/28/8 14/29/8
f 12/30/6 16/31/6 8/23/6 4/32/6
f 2/33/9 4/32/9 8/23/9 6/22/9 18/34/9
f 12/26/10 4/32/10 2/33/10 10/27/10
