# Blender v3.4.1 OBJ File: 'Hexagon_cube_bottle.blend'
# www.blender.org
mtllib Hexagon_cube_bottle.mtl
o Bottle_Cube
v -0.040000 -0.040000 0.040000
v 0.000000 0.015000 -0.033000
v -0.040000 0.040000 0.040000
v 0.000000 0.040000 -0.033000
v -0.040000 -0.040000 -0.040000
v 0.028713 0.015000 -0.016500
v -0.040000 0.040000 -0.040000
v 0.028713 0.040000 -0.016500
v 0.040000 -0.040000 0.040000
v 0.028713 0.015000 0.016500
v 0.040000 0.040000 0.040000
v 0.028713 0.040000 0.016500
v 0.040000 -0.040000 -0.040000
v 0.000000 0.015000 0.033000
v 0.040000 0.040000 -0.040000
v 0.000000 0.040000 0.033000
v -0.028713 0.015000 0.016500
v -0.028713 0.040000 0.016500
v -0.028713 0.015000 -0.016500
v -0.028713 0.040000 -0.016500
vt 0.375000 0.000000
vt 0.625000 0.000000
vt 0.625000 0.250000
vt 0.375000 0.250000
vt 0.625000 0.500000
vt 0.375000 0.500000
vt 0.625000 0.750000
vt 0.375000 0.750000
vt 0.625000 1.000000
vt 0.375000 1.000000
vt 0.125000 0.500000
vt 0.125000 0.750000
vt 0.660272 0.573437
vt 0.660272 0.676562
vt 0.875000 0.500000
vt 0.875000 0.750000
vt 0.750000 0.728125
vt 0.839728 0.676562
vt 0.839727 0.573438
vt 0.750000 0.521875
vt 1.000000 1.000000
vt 1.000000 0.500000
vt 0.833333 0.500000
vt 0.833333 1.000000
vt 0.666667 1.000000
vt 0.666667 0.500000
vt 0.500000 1.000000
vt 0.500000 0.500000
vt 0.333333 0.500000
vt 0.333333 1.000000
vt 0.166667 0.500000
vt 0.166667 1.000000
vt -0.000000 0.500000
vt -0.000000 1.000000
vt 0.750000 0.010000
vt 0.957846 0.130000
vt 0.957846 0.370000
vt 0.750000 0.490000
vt 0.542154 0.370000
vt 0.542154 0.130000
vn -1.0000 0.0000 0.0000
vn 0.0000 0.0000 -1.0000
vn 1.0000 0.0000 0.0000
vn 0.0000 0.0000 1.0000
vn 0.0000 -1.0000 0.0000
vn 0.0000 1.0000 0.0000
vn -0.4982 0.0000 0.8670
vn -0.4982 0.0000 -0.8670
vn 0.4982 0.0000 -0.8670
vn 0.4982 0.0000 0.8670
usemtl Red
s off
f 1/1/1 3/2/1 7/3/1 5/4/1
f 5/4/2 7/3/2 15/5/2 13/6/2
f 13/6/3 15/5/3 11/7/3 9/8/3
f 9/8/4 11/7/4 3/9/4 1/10/4
f 5/11/5 13/6/5 9/8/5 1/12/5
f 11/7/6 15/5/6 8/13/6 12/14/6
f 8/13/6 15/5/6 7/15/6 3/16/6 11/7/6 12/14/6 16/17/6 18/18/6 20/19/6 4/20/6
usemtl Blue
f 4/21/7 2/22/7 6/23/7 8/24/7
f 12/25/1 8/24/1 6/23/1 10/26/1
f 16/27/8 12/25/8 10/26/8 14/28/8
f 14/28/9 17/29/9 18/30/9 16/27/9
f 18/30/3 17/29/3 19/31/3 20/32/3
f 19/31/10 2/33/10 4/34/10 20/32/10
f 14/35/6 10/36/6 6/37/6 2/38/6 19/39/6 17/40/6
