# Blender v3.4.1 OBJ File: 'Line_cube_bottle.blend'
# www.blender.org
mtllib Line_cube_bottle.mtl
o Bottle_Cube.003
v -0.040000 -0.040000 0.040000
v 0.013000 0.040000 -0.029000
v -0.040000 0.040000 0.040000
v 0.013000 0.015000 -0.029000
v -0.040000 -0.040000 -0.040000
v 0.013000 0.040000 0.029000
v -0.040000 0.040000 -0.040000
v 0.013000 0.015000 0.029000
v 0.040000 -0.040000 0.040000
v -0.013000 0.040000 -0.029000
v 0.040000 0.040000 0.040000
v -0.013000 0.015000 -0.029000
v 0.040000 -0.040000 -0.040000
v -0.013000 0.040000 0.029000
v 0.040000 0.040000 -0.040000
v -0.013000 0.015000 0.029000
vt 0.375000 0.000000
vt 0.625000 0.000000
vt 0.625000 0.250000
vt 0.375000 0.250000
vt 0.625000 0.500000
vt 0.375000 0.500000
vt 0.625000 0.750000
vt 0.375000 0.750000
vt 0.625000 1.000000
vt 0.375000 1.000000
vt 0.125000 0.500000
vt 0.125000 0.750000
vt 0.709375 0.715625
vt 0.875000 0.500000
vt 0.875000 0.750000
vt 0.790625 0.715625
vt 0.790625 0.534375
vt 0.709375 0.534375
vt 0.625000 1.000000
vt 0.625000 0.750000
vt 0.375000 0.750000
vt 0.375000 1.000000
vt 0.625000 0.000000
vt 0.375000 0.000000
vt 0.375000 0.250000
vt 0.625000 0.250000
vt 0.125000 0.500000
vt 0.125000 0.750000
vt 0.375000 0.500000
vt 0.625000 0.500000
vn -1.0000 0.0000 0.0000
vn 0.0000 0.0000 -1.0000
vn 1.0000 0.0000 0.0000
vn 0.0000 0.0000 1.0000
vn 0.0000 -1.0000 0.0000
vn 0.0000 1.0000 -0.0000
usemtl Red
s off
f 1/1/1 3/2/1 7/3/1 5/4/1
f 5/4/2 7/3/2 15/5/2 13/6/2
f 13/6/3 15/5/3 11/7/3 9/8/3
f 9/8/4 11/7/4 3/9/4 1/10/4
f 5/11/5 13/6/5 9/8/5 1/12/5
f 6/13/6 11/7/6 15/5/6 7/14/6 3/15/6 14/16/6 10/17/6 2/18/6
f 14/16/6 3/15/6 11/7/6 6/13/6
usemtl Blue
f 14/19/2 6/20/2 8/21/2 16/22/2
f 14/23/3 16/24/3 12/25/3 10/26/3
f 12/27/6 16/28/6 8/21/6 4/29/6
f 4/29/1 8/21/1 6/20/1 2/30/1
f 12/25/4 4/29/4 2/30/4 10/26/4
