# Blender v3.4.1 OBJ File: 'U_cube_cap.blend'
# www.blender.org
mtllib U_cube_cap.mtl
o Cap_Cube.004
v -0.040000 -0.040000 0.040000
v -0.040000 0.040000 0.040000
v -0.040000 -0.040000 -0.040000
v -0.040000 0.040000 -0.040000
v 0.040000 -0.040000 0.040000
v 0.040000 0.040000 0.040000
v 0.040000 -0.040000 -0.040000
v 0.040000 0.040000 -0.040000
v 0.021000 0.060000 -0.024000
v -0.015000 0.040000 0.009600
v -0.015000 0.060000 0.009600
v 0.021000 0.040000 -0.024000
v 0.021000 0.060000 0.024000
v -0.015000 0.040000 -0.009600
v -0.015000 0.060000 -0.009600
v 0.021000 0.040000 0.024000
v -0.027000 0.060000 -0.024000
v -0.027000 0.040000 -0.024000
v -0.027000 0.060000 0.024000
v -0.027000 0.040000 0.024000
v 0.021000 0.060000 0.009600
v 0.021000 0.060000 -0.009600
v 0.021000 0.040000 0.009600
v 0.021000 0.040000 -0.009600
vt 0.375000 0.000000
vt 0.625000 0.000000
vt 0.625000 0.250000
vt 0.375000 0.250000
vt 0.625000 0.500000
vt 0.375000 0.500000
vt 0.625000 0.750000
vt 0.375000 0.750000
vt 0.625000 1.000000
vt 0.375000 1.000000
vt 0.125000 0.500000
vt 0.125000 0.750000
vt 0.875000 0.500000
vt 0.875000 0.750000
vt 0.375000 0.750000
vt 0.125000 0.750000
vt 0.125000 0.500000
vt 0.375000 0.500000
vt 0.375000 0.575000
vt 0.187500 0.575000
vt 0.187500 0.675000
vt 0.375000 0.675000
vt 0.625000 0.575000
vt 0.625000 0.500000
vt 0.875000 0.500000
vt 0.875000 0.750000
vt 0.625000 0.750000
vt 0.625000 0.675000
vt 0.812500 0.675000
vt 0.812500 0.575000
vt 0.625000 1.000000
vt 0.375000 1.000000
vt 0.375000 0.000000
vt 0.625000 0.000000
vt 0.625000 0.250000
vt 0.375000 0.250000
vt 0.625000 0.000000
vt 0.375000 0.000000
vt 0.375000 0.250000
vt 0.625000 0.250000
vt 0.375000 0.437500
vt 0.625000 0.437500
vt 0.375000 0.812500
vt 0.375000 1.000000
vt 0.625000 1.000000
vt 0.625000 0.812500
vn -1.0000 0.0000 0.0000
vn 0.0000 0.0000 -1.0000
vn 1.0000 0.0000 0.0000
vn 0.0000 0.0000 1.0000
vn 0.0000 -1.0000 0.0000
vn 0.0000 1.0000 0.0000
usemtl Red
s off
f 1/1/1 2/2/1 4/3/1 3/4/1
f 3/4/2 4/3/2 8/5/2 7/6/2
f 7/6/3 8/5/3 6/7/3 5/8/3
f 5/8/4 6/7/4 2/9/4 1/10/4
f 3/11/5 7/6/5 5/8/5 1/12/5
f 8/5/6 4/13/6 2/14/6 6/7/6
f 16/15/5 20/16/5 18/17/5 12/18/5 24/19/5 14/20/5 10/21/5 23/22/5
usemtl Blue
f 22/23/6 9/24/6 17/25/6 19/26/6 13/27/6 21/28/6 11/29/6 15/30/6
f 16/15/4 13/27/4 19/31/4 20/32/4
f 20/33/1 19/34/1 17/35/1 18/36/1
f 13/27/3 16/15/3 23/22/3 21/28/3
f 24/19/3 12/18/3 9/24/3 22/23/3
f 18/36/2 17/35/2 9/24/2 12/18/2
f 11/37/3 10/38/3 14/39/3 15/40/3
f 24/41/4 22/42/4 15/40/4 14/39/4
f 23/43/2 10/44/2 11/45/2 21/46/2
