# Blender v3.4.1 OBJ File: 'Arrow_cube_bottle.blend'
# www.blender.org
mtllib Arrow_cube_bottle.mtl
o Bottle.001_Cube.003
v -0.040000 -0.040000 0.040000
v -0.040000 0.040000 0.040000
v 0.000000 0.016679 -0.032904
v -0.040000 -0.040000 -0.040000
v 0.008622 0.015000 -0.009080
v -0.040000 0.040000 -0.040000
v 0.040000 -0.040000 0.040000
v 0.040000 0.040000 0.040000
v 0.019839 0.015312 -0.009251
v 0.040000 -0.040000 -0.040000
v 0.008800 0.016568 0.031365
v 0.040000 0.040000 -0.040000
v -0.019839 0.015312 -0.009251
v -0.008622 0.015000 -0.009080
v -0.008800 0.016568 0.031365
v -0.019839 0.040000 -0.009251
v -0.008622 0.040000 -0.009080
v 0.008622 0.040000 -0.009080
v 0.000000 0.040000 -0.032904
v -0.008800 0.040000 0.031365
v 0.008800 0.040000 0.031365
v 0.019839 0.040000 -0.009251
vt 0.375000 0.000000
vt 0.625000 0.000000
vt 0.625000 0.250000
vt 0.375000 0.250000
vt 0.625000 0.500000
vt 0.375000 0.500000
vt 0.625000 0.750000
vt 0.375000 0.750000
vt 0.625000 1.000000
vt 0.375000 1.000000
vt 0.125000 0.500000
vt 0.125000 0.750000
vt 0.722500 0.723015
vt 0.875000 0.500000
vt 0.875000 0.750000
vt 0.777500 0.723015
vt 0.776944 0.596626
vt 0.811997 0.596090
vt 0.750000 0.522176
vt 0.688003 0.596090
vt 0.723056 0.596626
vt 0.375000 0.750000
vt 0.375000 1.000000
vt 0.601489 1.000000
vt 0.601489 0.750000
vt 0.601489 0.000000
vt 0.375000 0.000000
vt 0.375000 0.250000
vt 0.590517 0.250000
vt 0.125000 0.500000
vt 0.125000 0.750000
vt 0.375000 0.500000
vt 0.590517 0.500000
vt 1.000000 0.500000
vt 0.666667 0.500000
vt 0.666667 0.935014
vt 1.000000 0.954742
vt 0.423020 0.500000
vt 0.333333 0.500000
vt 0.333333 0.935014
vt 0.423020 0.931034
vt 0.576980 0.500000
vt 0.576980 0.931034
vt -0.000000 0.500000
vt -0.000000 0.954742
vt 0.957846 0.130000
vt 0.750000 0.490000
vt 0.542154 0.130000
vt 0.654000 0.130000
vt 0.846000 0.130000
vn -1.0000 0.0000 0.0000
vn 0.0000 0.0000 -1.0000
vn 1.0000 0.0000 0.0000
vn 0.0000 0.0000 1.0000
vn 0.0000 -1.0000 0.0000
vn 0.0000 1.0000 0.0000
vn 1.0000 0.0000 0.0044
vn 0.0000 0.9992 -0.0387
vn -1.0000 0.0000 0.0044
vn -0.7662 0.0000 0.6426
vn 0.0153 0.0000 -0.9999
vn -0.0153 0.0000 -0.9999
vn 0.7662 0.0000 0.6426
vn 0.0000 0.9971 0.0757
usemtl Red
s off
f 1/1/1 2/2/1 6/3/1 4/4/1
f 4/4/2 6/3/2 12/5/2 10/6/2
f 10/6/3 12/5/3 8/7/3 7/8/3
f 7/8/4 8/7/4 2/9/4 1/10/4
f 4/11/5 10/6/5 7/8/5 1/12/5
f 21/13/6 8/7/6 12/5/6 6/14/6 2/15/6 20/16/6 17/17/6 16/18/6 19/19/6 22/20/6 18/21/6
f 20/16/6 2/15/6 8/7/6 21/13/6
usemtl Blue
f 11/22/2 15/23/2 20/24/2 21/25/2
f 20/26/7 15/27/7 14/28/7 17/29/7
f 14/30/8 15/31/8 11/22/8 5/32/8
f 5/32/9 11/22/9 21/25/9 18/33/9
f 3/34/10 9/35/10 22/36/10 19/37/10
f 14/38/11 13/39/11 16/40/11 17/41/11
f 9/35/12 5/42/12 18/43/12 22/36/12
f 16/40/13 13/39/13 3/44/13 19/45/13
f 9/46/14 3/47/14 13/48/14 14/49/14 5/50/14
