ply
format ascii 1.0
comment VCGLIB generated
element vertex 23
property float x
property float y
property float z
property float nx
property float ny
property float nz
property uchar red
property uchar green
property uchar blue
property uchar alpha
element face 42
property list uchar int vertex_indices
end_header
-40 -40 40 -0.816496580927726 -0.408248290463863 0.408248290463863 204 204 204 225 
-40 40 40 -0.4262275131862338 0.3027383936923007 0.8524550263724676 204 204 204 55 
-23.266 16.679 -23.266 0.7896395343959697 0.5104064645614919 0.3405211398030299 204 204 204 225 
-40 -40 -40 -0.3333333333333333 -0.6666666666666666 -0.6666666666666666 204 204 204 129 
-0.323 15 -12.517 -0.7316806283173803 0.5519710895124396 0.3999642165088449 204 204 204 225 
-40 40 -40 -0.8791725440493594 0.1839009169015248 -0.4395862720246797 204 204 204 129 
40 -40 40 0.3333333333333333 -0.6666666666666666 0.6666666666666666 204 204 204 129 
40 40 40 0.8831002157507173 0.1586427154844985 0.4415501078753586 204 204 204 55 
7.487 15.312 -20.57 -0.3072964624039989 0.6087793840999437 0.7314072365576384 204 204 204 55 
40 -40 -40 0.816496580927726 -0.408248290463863 -0.408248290463863 204 204 204 225 
28.401 16.568 15.956 -0.7799397415738125 0.5493342461212594 0.2998764504794636 204 204 204 55 
40 40 -40 0.4262275131862338 0.3027383936923007 -0.8524550263724676 204 204 204 55 
-20.57 15.312 7.487 0.5344832077393203 0.8235124862321801 -0.1901443811012563 204 204 204 225 
-12.517 15 -0.323 0.3915264557288363 0.568665584911639 -0.7234130818567766 204 204 204 240 
15.956 16.568 28.401 0.2866050635473729 0.5636642701375786 -0.774687116272936 204 204 204 130 
-23.266 40 -23.266 0.135815412979198 0.9353420871674434 0.3266333626109566 204 204 204 55 
-20.57 40 7.487 0.3641401308342663 0.9143349651259132 -0.1771822131710705 204 204 204 55 
-12.517 40 -0.323 0.4562855980726987 0.3959290991178669 -0.7968962300470207 204 204 204 130 
7.487 40 -20.57 -0.09465804453809989 0.9747919052762788 0.2020410750616454 204 204 204 129 
-0.323 40 -12.517 -0.8503608774635553 0.2168455334228255 0.4794417511168408 204 204 204 129 
15.956 40 28.401 0.2958006919481553 0.8324747153260734 -0.468495249693917 204 204 204 240 
28.401 40 15.956 -0.264045466632117 0.9575193881150139 0.1159164049428588 204 204 204 64 
17.126 40 27.23 -0.4814696687948736 0.7323755293980744 -0.4814696687948736 204 204 204 225 
3 0 1 5 
3 0 5 3 
3 3 5 11 
3 3 11 9 
3 9 11 7 
3 9 7 6 
3 6 7 1 
3 6 1 0 
3 3 9 6 
3 3 6 0 
3 20 17 16 
3 20 16 1 
3 20 1 7 
3 20 7 22 
3 15 5 1 
3 15 1 16 
3 21 22 7 
3 21 7 11 
3 21 11 18 
3 21 18 19 
3 11 5 15 
3 11 15 18 
3 10 14 20 
3 10 20 22 
3 10 22 21 
3 20 14 13 
3 20 13 17 
3 13 14 10 
3 13 10 4 
3 19 4 10 
3 19 10 21 
3 15 2 8 
3 15 8 18 
3 13 12 16 
3 13 16 17 
3 8 4 19 
3 8 19 18 
3 16 12 2 
3 16 2 15 
3 8 2 12 
3 8 12 13 
3 8 13 4 
