ply
format ascii 1.0
comment VCGLIB generated
element vertex 22
property float x
property float y
property float z
property float nx
property float ny
property float nz
property uchar red
property uchar green
property uchar blue
property uchar alpha
element face 36
property list uchar int vertex_indices
end_header
40 -40 40 0.816496580927726 -0.408248290463863 0.408248290463863 204 204 204 225 
40 40 40 0.3333333333333333 0.6666666666666666 0.6666666666666666 204 204 204 129 
40 -40 -40 0.3333333333333333 -0.6666666666666666 -0.6666666666666666 204 204 204 129 
40 40 -40 0.816496580927726 0.408248290463863 -0.408248290463863 204 204 204 225 
-40 -40 40 -0.3333333333333333 -0.6666666666666666 0.6666666666666666 204 204 204 129 
-40 40 40 -0.816496580927726 0.408248290463863 0.408248290463863 204 204 204 225 
-40 -40 -40 -0.816496580927726 -0.408248290463863 -0.408248290463863 204 204 204 225 
-40 40 -40 -0.3333333333333333 0.6666666666666666 -0.6666666666666666 204 204 204 129 
-8 60 -10.635 -0.777656900070403 0.6221255200563224 0.0906067495694528 204 204 204 55 
0 40 -30.635 -0.3049892843488229 -0.528271939420596 -0.792407909130894 204 204 204 129 
-8 40 -10.635 -0.500442762108736 -0.8337626638112596 0.2332313492807763 204 204 204 55 
0 60 -30.635 0.3049892843488229 0.528271939420596 -0.792407909130894 204 204 204 225 
-8 60 29.365 -0.7453559924999299 0.5962847939999439 0.298142396999972 204 204 204 130 
-17.321 40 -10.635 -0.8521206356033945 -0.3971308222229619 -0.3408482542413578 204 204 204 130 
-8 40 29.365 -0.7453559924999299 -0.5962847939999439 0.298142396999972 204 204 204 64 
-17.321 60 -10.635 -0.7235665357710996 0.6266447983045608 -0.2894266143084399 204 204 204 64 
8 60 -10.635 0.9074796317569153 0.3629918527027661 0.2114654411901551 204 204 204 64 
17.321 40 -10.635 0.8004559028579963 -0.506708597906683 -0.3201823611431985 204 204 204 64 
8 40 -10.635 0.5260025651071227 -0.8416041041713963 0.1225717477340872 204 204 204 129 
17.321 60 -10.635 0.4902802960414163 0.849214500773337 -0.1961121184165665 204 204 204 129 
8 60 29.365 0.4879500364742665 0.7807200583588265 0.3903600291794133 204 204 204 129 
8 40 29.365 0.9128709291752768 -0.3651483716701107 0.1825741858350554 204 204 204 225 
3 1 0 3 
3 3 0 2 
3 3 2 7 
3 7 2 6 
3 7 6 5 
3 5 6 4 
3 5 4 1 
3 1 4 0 
3 6 2 4 
3 4 2 0 
3 3 7 1 
3 1 7 5 
3 10 18 14 
3 14 18 21 
3 18 10 17 
3 17 10 9 
3 9 10 13 
3 16 8 20 
3 20 8 12 
3 12 14 20 
3 20 14 21 
3 20 21 16 
3 16 21 18 
3 12 8 14 
3 14 8 10 
3 11 9 15 
3 15 9 13 
3 19 16 17 
3 17 16 18 
3 13 10 15 
3 15 10 8 
3 16 19 8 
3 8 19 15 
3 15 19 11 
3 19 17 11 
3 11 17 9 
