ply
format ascii 1.0
comment VCGLIB generated
element vertex 96
property float x
property float y
property float z
property float nx
property float ny
property float nz
property uchar red
property uchar green
property uchar blue
property uchar alpha
element face 188
property list uchar int vertex_indices
end_header
-40 -40 40 -0.816496580927726 -0.408248290463863 0.408248290463863 204 204 204 225 
-21.788 15 -21.788 0.709630820015011 0.1967270609973042 0.6765519660426583 204 204 204 129 
-40 40 40 -0.4402268547165217 0.1760726609442601 0.8804537094330435 204 204 204 20 
-40 -40 -40 -0.3333333333333333 -0.6666666666666666 -0.6666666666666666 204 204 204 129 
-18.465 15 -24.667 0.612943781801535 0.1292703349015231 0.7794800195420536 204 204 204 129 
-40 40 -40 -0.882244324400844 0.1644876593490314 -0.441122162200422 204 204 204 206 
40 -40 40 0.3333333333333333 -0.6666666666666666 0.6666666666666666 204 204 204 129 
-14.767 15 -27.043 0.4986334483348221 0.07402688375391935 0.8636461686844955 204 204 204 129 
40 40 40 0.8808849252185372 0.1733556623056055 0.4404424626092686 204 204 204 127 
40 -40 -40 0.816496580927726 -0.408248290463863 -0.408248290463863 204 204 204 225 
-10.768 15 -28.87 0.3715517273766888 0.03326819482293967 0.9278160060575704 204 204 204 129 
40 40 -40 0.4405153681917046 0.1724269466604178 -0.8810307363834092 204 204 204 247 
-6.550000000000001 15 -30.108 0.2357266556925356 0.008350918465471913 0.9717835180516264 204 204 204 225 
-2.198 15 -30.734 0.005256829217760728 0.9984723199162744 0.05500356449893403 204 204 204 212 
2.198 15 -30.734 -0.04757070622399524 0.008364832982427323 0.9988328476169205 204 204 204 225 
6.550000000000001 15 -30.108 -0.1891092239612444 0.03323902805990688 0.9813933301314048 204 204 204 129 
10.768 15 -28.87 -0.3261163505294147 0.07404289316726269 0.9424254749786835 204 204 204 129 
14.767 15 -27.043 -0.4543977505185476 0.1292939229806947 0.881365852415412 204 204 204 129 
18.465 15 -24.667 -0.5686293610274281 0.1966846798806788 0.7987338646118454 204 204 204 129 
21.788 15 -21.788 -0.6916349403474777 0.2080437900565212 0.6916349403474777 204 204 204 64 
24.667 15 -18.465 -0.7621733033165548 0.3530942781192892 0.5426014066245582 204 204 204 129 
27.043 15 -14.767 -0.8012484689508251 0.43284592100718 0.4130923621557348 204 204 204 129 
28.87 15 -10.768 -0.8139133176579442 0.5081541074424694 0.281646080087023 204 204 204 129 
30.108 15 -6.550000000000001 -0.8027234593696173 0.5759418294142825 0.1546804994451593 204 204 204 129 
30.734 15 -2.198 -0.7718534194310357 0.6347369244607522 0.03676051738921404 204 204 204 129 
30.734 15 2.198 -0.7259259808007841 0.6842646299330764 -0.06937857465363233 204 204 204 129 
30.108 15 6.550000000000001 -0.6692632774377513 0.7250731693576193 -0.1623439698633019 204 204 204 129 
28.87 15 10.768 -0.6053466838419773 0.758148924099063 -0.2424161736538106 204 204 204 129 
27.043 15 14.767 -0.53690902927999 0.7846244467209622 -0.3099889867163717 204 204 204 129 
24.667 15 18.465 -0.4658308974553254 0.8054945946687654 -0.3663059280647357 204 204 204 129 
21.788 15 21.788 -0.3931815241155899 0.8217846570012746 -0.4124054638477029 204 204 204 129 
18.465 15 24.667 -0.319844685824681 0.8341772153339295 -0.4492746936646244 204 204 204 129 
14.767 15 27.043 -0.2463402299724173 0.8432164205016496 -0.4778101707723704 204 204 204 129 
10.768 15 28.87 -0.1725693961400349 0.8494229954642555 -0.4986986848713307 204 204 204 129 
6.550000000000001 15 30.108 -0.09874963755237574 0.8530100166885417 -0.5124669945589552 204 204 204 129 
2.198 15 30.734 -0.02473446779652991 0.8542067577305412 -0.5193447998683522 204 204 204 129 
-2.198 15 30.734 0.04965246469453088 0.8530104088891446 -0.5195265874587486 204 204 204 129 
-6.550000000000001 15 30.108 0.1243993391650966 0.8494254252555817 -0.5128364762228419 204 204 204 129 
-10.768 15 28.87 0.1998439035905561 0.8432221805652179 -0.4990378426537686 204 204 204 129 
-14.767 15 27.043 0.2757579817410675 0.8341682317623473 -0.4776200337345284 204 204 204 129 
-18.465 15 24.667 0.3522135997086261 0.8217800700400194 -0.4479096969985271 204 204 204 129 
-21.788 15 21.788 0.3112830118086014 0.8978896219016747 -0.3112830118086014 204 204 204 225 
-24.667 15 18.465 0.4873807107068154 0.7845879445778658 -0.3832516145484575 204 204 204 129 
-27.043 15 14.767 0.5647002897392079 0.7581656039909712 -0.3260345069060334 204 204 204 129 
-28.87 15 10.768 0.6393139744679756 0.7250738495189707 -0.2560186610263043 204 204 204 129 
-30.108 15 6.550000000000001 0.708680736197102 0.6842661107083973 -0.1719055085770574 204 204 204 129 
-30.734 15 2.198 0.7692158029314723 0.6347459823765306 -0.07351589200535917 204 204 204 129 
-30.734 15 -2.198 0.816564660923821 0.5759424680188687 0.03888994809329831 204 204 204 129 
-30.108 15 -6.550000000000001 0.8457068535910318 0.5081563966428219 0.1629631686613273 204 204 204 129 
-28.87 15 -10.768 0.851889643804656 0.4328792351163067 0.2947873853873287 204 204 204 129 
-27.043 15 -14.767 0.83160263802043 0.3530120889894784 0.4287417841367298 204 204 204 129 
-24.667 15 -18.465 0.7837433117806936 0.2728185798563895 0.5579573852223605 204 204 204 129 
-30.734 40 2.198 0.9518050957309171 0.3033350702262044 -0.04533094871633866 204 204 204 129 
-30.734 40 -2.198 0.9820109837019974 0.1638474681607568 0.09385326348052696 204 204 204 129 
-30.108 40 -6.550000000000001 0.3374650520653928 0.9377720380724671 0.08185928929518678 204 204 204 64 
-28.87 40 10.768 0.8279109180874538 0.4821691667867078 -0.2864898014097557 204 204 204 129 
-30.108 40 6.550000000000001 0.896385711384507 0.4082370002167353 -0.1727287123779155 204 204 204 129 
-27.043 40 14.767 0.753541897595949 0.5303252839145934 -0.3884967204602917 204 204 204 129 
-24.667 40 -18.465 0.6526757972157603 0.5573220792106355 0.5132313355136316 204 204 204 129 
-24.667 40 18.465 0.676379156763338 0.5573566629118807 -0.4815234019275158 204 204 204 129 
-27.043 40 -14.767 0.734192018256912 0.5303561600700741 0.4238919954464438 204 204 204 129 
-21.788 40 21.788 0.6286097555805314 0.4579296347453057 -0.6286097555805314 204 204 204 64 
-28.87 40 -10.768 0.8132989396464412 0.4821506947564513 0.3256924044491148 204 204 204 129 
-14.767 40 -27.043 0.3884967204602917 0.5303252839145934 0.753541897595949 204 204 204 129 
-18.465 40 -24.667 0.4815234019275158 0.5573566629118807 0.676379156763338 204 204 204 129 
-2.198 40 -30.734 0.04692938658892464 0.1638570868988072 0.9853671842249589 204 204 204 129 
-6.550000000000001 40 -30.108 0.06570857821983853 0.937764581581596 0.3409984930750011 204 204 204 64 
-10.768 40 -28.87 0.2864898014097557 0.4821691667867078 0.8279109180874538 204 204 204 129 
10.768 40 -28.87 -0.3256924044491148 0.4821506947564514 0.8132989396464413 204 204 204 129 
6.550000000000001 40 -30.108 -0.2151943403505953 0.4082594322465895 0.8871390149591915 204 204 204 129 
21.788 40 -21.788 -0.492501349261539 0.717554765820092 0.492501349261539 204 204 204 225 
18.465 40 -24.667 -0.5132313355136316 0.5573220792106355 0.6526757972157603 204 204 204 129 
14.767 40 -27.043 -0.4238919954464438 0.5303561600700741 0.734192018256912 204 204 204 129 
2.198 40 -30.734 -0.09065693173706985 0.3033184560843381 0.948566937504483 204 204 204 129 
-21.788 40 -21.788 0.5688520188726991 0.5660372581498506 0.5966650676976604 204 204 204 129 
-14.767 40 27.043 0.3884967204602917 0.5303252839145934 -0.753541897595949 204 204 204 129 
-18.465 40 24.667 0.4815234019275158 0.5573566629118807 -0.6763791567633382 204 204 204 129 
-10.768 40 28.87 0.2864898014097557 0.4821691667867078 -0.8279109180874538 204 204 204 129 
-6.550000000000001 40 30.108 0.1727287123779155 0.4082370002167353 -0.896385711384507 204 204 204 129 
-2.198 40 30.734 0.04533094871633865 0.3033350702262044 -0.9518050957309171 204 204 204 129 
2.198 40 30.734 -0.0344819684832178 0.9320079703625246 -0.3607937596886201 204 204 204 64 
6.550000000000001 40 30.108 -0.2151943403505953 0.4082594322465894 -0.8871390149591916 204 204 204 129 
14.767 40 27.043 -0.4238919954464437 0.530356160070074 -0.734192018256912 204 204 204 129 
18.465 40 24.667 -0.5132313355136316 0.5573220792106355 -0.6526757972157603 204 204 204 129 
10.768 40 28.87 -0.3256924044491148 0.4821506947564514 -0.8132989396464413 204 204 204 129 
24.667 40 18.465 -0.6763791567633382 0.5573566629118807 -0.4815234019275158 204 204 204 129 
27.043 40 -14.767 -0.734192018256912 0.530356160070074 0.4238919954464437 204 204 204 129 
27.043 40 14.767 -0.753541897595949 0.5303252839145934 -0.3884967204602917 204 204 204 129 
24.667 40 -18.465 -0.6526757972157603 0.5573220792106355 0.5132313355136316 204 204 204 129 
30.108 40 6.550000000000001 -0.896385711384507 0.4082370002167353 -0.1727287123779155 204 204 204 129 
30.734 40 2.198 -0.9518050957309171 0.3033350702262044 -0.04533094871633865 204 204 204 129 
30.734 40 -2.198 -0.9820109837019974 0.1638474681607568 0.09385326348052696 204 204 204 129 
30.108 40 -6.550000000000001 -0.3374650520653928 0.9377720380724671 0.08185928929518678 204 204 204 64 
28.87 40 -10.768 -0.8132989396464412 0.4821506947564513 0.3256924044491148 204 204 204 129 
28.87 40 10.768 -0.8279109180874538 0.4821691667867078 -0.2864898014097557 204 204 204 129 
21.788 40 21.788 -0.5966650676976604 0.5660372581498506 -0.5688520188726991 204 204 204 129 
3 0 2 5 
3 0 5 3 
3 3 5 11 
3 3 11 9 
3 9 11 8 
3 9 8 6 
3 6 8 2 
3 6 2 0 
3 3 9 6 
3 3 6 0 
3 2 8 80 
3 2 80 79 
3 2 79 78 
3 2 78 77 
3 2 77 75 
3 2 75 76 
3 2 76 61 
3 8 95 83 
3 8 83 82 
3 8 82 84 
3 8 84 81 
3 8 81 80 
3 8 11 92 
3 8 92 91 
3 8 91 90 
3 8 90 89 
3 8 89 94 
3 8 94 87 
3 8 87 85 
3 8 85 95 
3 11 5 66 
3 11 66 65 
3 11 65 73 
3 11 73 69 
3 11 69 68 
3 11 68 72 
3 11 72 71 
3 11 71 70 
3 11 70 88 
3 11 88 86 
3 11 86 93 
3 11 93 92 
3 2 61 59 
3 2 59 57 
3 2 57 55 
3 2 55 56 
3 2 56 52 
3 2 52 53 
3 2 53 54 
3 2 54 5 
3 5 54 62 
3 5 62 60 
3 5 60 58 
3 5 58 74 
3 5 74 64 
3 5 64 63 
3 5 63 67 
3 5 67 66 
3 74 1 4 
3 74 4 64 
3 64 4 7 
3 64 7 63 
3 63 7 10 
3 63 10 67 
3 67 10 12 
3 67 12 66 
3 66 12 13 
3 66 13 65 
3 65 13 14 
3 65 14 73 
3 73 14 15 
3 73 15 69 
3 69 15 16 
3 69 16 68 
3 68 16 17 
3 68 17 72 
3 72 17 18 
3 72 18 71 
3 71 18 19 
3 71 19 70 
3 19 20 88 
3 19 88 70 
3 20 21 86 
3 20 86 88 
3 21 22 93 
3 21 93 86 
3 22 23 92 
3 22 92 93 
3 23 24 91 
3 23 91 92 
3 24 25 90 
3 24 90 91 
3 25 26 89 
3 25 89 90 
3 26 27 94 
3 26 94 89 
3 27 28 87 
3 27 87 94 
3 28 29 85 
3 28 85 87 
3 29 30 95 
3 29 95 85 
3 30 31 83 
3 30 83 95 
3 31 32 82 
3 31 82 83 
3 32 33 84 
3 32 84 82 
3 33 34 81 
3 33 81 84 
3 34 35 80 
3 34 80 81 
3 35 36 79 
3 35 79 80 
3 36 37 78 
3 36 78 79 
3 37 38 77 
3 37 77 78 
3 38 39 75 
3 38 75 77 
3 39 40 76 
3 39 76 75 
3 40 41 61 
3 40 61 76 
3 61 41 42 
3 61 42 59 
3 59 42 43 
3 59 43 57 
3 57 43 44 
3 57 44 55 
3 55 44 45 
3 55 45 56 
3 56 45 46 
3 56 46 52 
3 52 46 47 
3 52 47 53 
3 53 47 48 
3 53 48 54 
3 54 48 49 
3 54 49 62 
3 62 49 50 
3 62 50 60 
3 60 50 51 
3 60 51 58 
3 58 51 1 
3 58 1 74 
3 13 12 10 
3 13 10 7 
3 13 7 4 
3 13 4 1 
3 13 1 51 
3 13 51 50 
3 13 50 49 
3 13 49 48 
3 13 48 47 
3 13 47 46 
3 13 46 45 
3 13 45 44 
3 13 44 43 
3 13 43 42 
3 13 42 41 
3 13 41 40 
3 13 40 39 
3 13 39 38 
3 13 38 37 
3 13 37 36 
3 13 36 35 
3 13 35 34 
3 13 34 33 
3 13 33 32 
3 13 32 31 
3 13 31 30 
3 13 30 29 
3 13 29 28 
3 13 28 27 
3 13 27 26 
3 13 26 25 
3 13 25 24 
3 13 24 23 
3 13 23 22 
3 13 22 21 
3 13 21 20 
3 13 20 19 
3 13 19 18 
3 13 18 17 
3 13 17 16 
3 13 16 15 
3 13 15 14 
