ply
format ascii 1.0
comment VCGLIB generated
element vertex 96
property float x
property float y
property float z
property float nx
property float ny
property float nz
property uchar red
property uchar green
property uchar blue
property uchar alpha
element face 184
property list uchar int vertex_indices
end_header
40 -40 40 0.816496580927726 -0.408248290463863 0.408248290463863 204 204 204 225 
40 40 40 0.3333333333333333 0.6666666666666666 0.6666666666666666 204 204 204 129 
40 -40 -40 0.3333333333333333 -0.6666666666666666 -0.6666666666666666 204 204 204 129 
40 40 -40 0.816496580927726 0.408248290463863 -0.408248290463863 204 204 204 225 
-40 -40 40 -0.3333333333333333 -0.6666666666666666 0.6666666666666666 204 204 204 129 
-40 40 40 -0.816496580927726 0.408248290463863 0.408248290463863 204 204 204 225 
-40 -40 -40 -0.816496580927726 -0.408248290463863 -0.408248290463863 204 204 204 225 
-40 40 -40 -0.3333333333333333 0.6666666666666666 -0.6666666666666666 204 204 204 129 
0 40 -28 -0.001159677838678504 -0.9988154368761839 -0.04864543354877722 204 204 204 212 
0 60 -28 0.02383155169772498 0.009496873351543403 -0.9996708791098315 204 204 204 225 
-3.985 40 -27.715 -0.1658151796700693 -0.009493295318667449 -0.9861111517141338 204 204 204 225 
-3.985 60 -27.715 -0.005773974818565472 0.9988154187924121 -0.04831584002512078 204 204 204 212 
-7.889 40 -26.866 -0.30427019579868 -0.03776889394033534 -0.9518367289609898 204 204 204 129 
-7.889 60 -26.866 -0.258723016049568 0.009500072502237559 -0.9659048346440073 204 204 204 225 
-11.632 40 -25.47 -0.4355022160363194 -0.08405701938758517 -0.8962545605569492 204 204 204 129 
-11.632 60 -25.47 -0.393365498983151 0.03779556332896094 -0.9186049638459304 204 204 204 129 
-15.138 40 -23.555 -0.5545200158688587 -0.1465526249327122 -0.81916413503408 204 204 204 129 
-15.138 60 -23.555 -0.5186679063532769 0.08404035503450827 -0.8508353669452053 204 204 204 129 
-18.336 40 -21.161 -0.6558726339068301 -0.2222020777840863 -0.721427283044211 204 204 204 129 
-18.336 60 -21.161 -0.6297941367616724 0.146520935835834 -0.7628177768395353 204 204 204 129 
-21.161 40 -18.336 -0.7340169852569717 -0.306535423486746 -0.6060157584601806 204 204 204 129 
-21.161 60 -18.336 -0.7214287469008505 0.2221933966474982 -0.6558739647457551 204 204 204 129 
-23.555 40 -15.138 -0.7848206718172244 -0.3939106501451055 -0.4784254516543001 204 204 204 129 
-23.555 60 -15.138 -0.7882512301482939 0.3064921189044794 -0.533594020973946 204 204 204 129 
-25.47 40 -11.632 -0.8070257926856373 -0.478832300807623 -0.3455850078394556 204 204 204 129 
-25.47 60 -11.632 -0.8267120224404887 0.3939236743181701 -0.4017105559529515 204 204 204 129 
-26.866 40 -7.889 -0.8023951652785883 -0.5567484151788329 -0.2149260359598263 204 204 204 129 
-26.866 60 -7.889 -0.8361909098101885 0.4788886520559989 -0.2673021161210621 204 204 204 129 
-27.715 40 -3.985 -0.7752335738464043 -0.6248439569265786 -0.09264413350918377 204 204 204 129 
-27.715 60 -3.985 -0.8191869497169465 0.5567392273800988 -0.1377467753149076 204 204 204 129 
-28 40 0 -0.7309442709776415 -0.6822146529124653 0.01742527120272923 204 204 204 129 
-28 60 0 -0.7805431988300752 0.6248248306634752 -0.01860767977135688 204 204 204 129 
-27.715 40 3.985 -0.6747556875269654 -0.7292677565189245 0.1134605722348827 204 204 204 129 
-27.715 60 3.985 -0.7259982906394276 0.6822016825406095 0.08676028081668755 204 204 204 129 
-26.866 40 7.889 -0.6110066743834378 -0.7671516213849568 0.1953182880974625 204 204 204 129 
-26.866 60 7.889 -0.6609361039021975 0.7292612161921419 0.1770354346353909 204 204 204 129 
-25.47 40 11.632 -0.5429396418433965 -0.7972544429848156 0.2638217171802501 204 204 204 129 
-25.47 60 11.632 -0.5896548120313259 0.7671699908633812 0.2525022925974756 204 204 204 129 
-23.555 40 15.138 -0.4728842517346141 -0.8209197112954404 0.3201114057137061 204 204 204 129 
-23.555 60 15.138 -0.5154287161234065 0.7972507429480298 0.3142045376250814 204 204 204 129 
-21.161 40 18.336 -0.4022180252854383 -0.8393489365618215 0.3656692806731539 204 204 204 129 
-21.161 60 18.336 -0.4403624231618388 0.8209127718245173 0.3635700170839473 204 204 204 129 
-18.336 40 21.161 -0.3317100802099249 -0.8535495267726249 0.401773105164287 204 204 204 129 
-18.336 60 21.161 -0.3656708642705733 0.8393474119375528 0.4022197671638528 204 204 204 129 
-15.138 40 23.555 -0.2618489980551709 -0.8642497030550812 0.4295434238662107 204 204 204 129 
-15.138 60 23.555 -0.2920721394497884 0.8535416267811149 0.4314632738821131 204 204 204 129 
-11.632 40 25.47 -0.1926575302711261 -0.8720497233187173 0.4499026073380535 204 204 204 129 
-11.632 60 25.47 -0.2198613468030644 0.8642521561841413 0.4524701080878221 204 204 204 129 
-7.889 40 26.866 -0.1241565946736265 -0.8773447251824004 0.4635206286603294 204 204 204 129 
-7.889 60 26.866 -0.1490176192160252 0.8720567290666252 0.4661660760424404 204 204 204 129 
-3.985 40 27.715 -0.05626848256332441 -0.8804186019723769 0.4708470485954291 204 204 204 129 
-3.985 60 27.715 -0.07957136324102912 0.8773460464409473 0.4732148697435483 204 204 204 129 
0 40 28 0.01125676080890457 -0.8814241200404007 0.472191492878786 204 204 204 129 
0 60 28 -0.01130142013052159 0.8804174073506875 0.4740648338960896 204 204 204 129 
3.985 40 27.715 0.07863301740880296 -0.880417424560879 0.467634480232987 204 204 204 129 
3.985 60 27.715 0.05604621180934466 0.8814249294347674 0.4689871170008163 204 204 204 129 
7.889 40 26.866 0.1461078225266921 -0.8773514048009634 0.4570634711834721 204 204 204 129 
7.889 60 26.866 0.1226925189864072 0.8804160517987953 0.4580547145481542 204 204 204 129 
11.632 40 25.47 0.2138999896528561 -0.8720488555367403 0.4402017582695117 204 204 204 129 
11.632 60 25.47 0.1888945337134004 0.8773461888794546 0.4411150870145947 204 204 204 129 
15.138 40 23.555 0.2820015520134752 -0.8642515868678663 0.4165865087330197 204 204 204 129 
15.138 60 23.555 0.254748976891618 0.8720467741912984 0.4178963775808837 204 204 204 129 
18.336 40 21.161 0.3504866062905129 -0.8535426966772046 0.385517838445855 204 204 204 129 
18.336 60 21.161 0.3202736409978939 0.8642580773679571 0.3879210880916302 204 204 204 129 
21.161 40 18.336 0.4191777482589498 -0.8393562475928785 0.3460796223289648 204 204 204 129 
21.161 60 18.336 0.3855162326673359 0.853544021410041 0.3504851464258646 204 204 204 129 
23.555 40 15.138 0.4875918652462862 -0.8209174056255483 0.2972352369532698 204 204 204 129 
23.555 60 15.138 0.4501363359966029 0.8393613817594482 0.3047125691966501 204 204 204 129 
25.47 40 11.632 0.5549048421678096 -0.7972556498719401 0.2376216422929294 204 204 204 129 
25.47 60 11.632 0.5136168698291989 0.8209207247022103 0.2495733855627515 204 204 204 129 
26.866 40 7.889 0.6196349492595397 -0.7671411839382167 0.1659726892051785 204 204 204 129 
26.866 60 7.889 0.5749960679760301 0.797241834288079 0.1838069081212227 204 204 204 129 
27.715 40 3.985 0.6793921259968093 -0.7292697870407168 0.0811906204134641 204 204 204 129 
27.715 60 3.985 0.6325905198922116 0.7671470239688857 0.1063704740902447 204 204 204 129 
28 40 0 0.7309442709776415 -0.6822146529124653 -0.01742527120272923 204 204 204 129 
28 60 0 0.684020821558989 0.729280199252142 0.01630664442863337 204 204 204 129 
27.715 40 -3.985 0.7699424282259537 -0.624841691684675 -0.1294662795872184 204 204 204 129 
27.715 60 -3.985 0.725971476202904 0.6822306248188768 -0.08675707636280286 204 204 204 129 
26.866 40 -7.889 0.791229283151326 -0.5567611176658257 -0.2529293959573292 204 204 204 129 
26.866 60 -7.889 0.7541603850646711 0.6248485073970476 -0.2020060801134182 204 204 204 129 
25.47 40 -11.632 0.7896228720316666 -0.4788307676415899 -0.3836884360053454 204 204 204 129 
25.47 60 -11.632 0.7636374369140329 0.5567094833177892 -0.3270052233946829 204 204 204 129 
23.555 40 -15.138 0.7611509148813986 -0.3939135164755894 -0.5152488974399126 204 204 204 129 
23.555 60 -15.138 0.7496119607270723 0.4788187403872879 -0.4569622765490007 204 204 204 129 
21.161 40 -18.336 0.7043063474950459 -0.3065272366331386 -0.6403074434053062 204 204 204 129 
21.161 60 -18.336 0.708777396945501 0.3939566213394928 -0.5851775645750026 204 204 204 129 
18.336 40 -21.161 0.6207481705562272 -0.2222083044970546 -0.7518611428738962 204 204 204 129 
18.336 60 -21.161 0.6403056701365321 0.306535422382109 -0.7043043969875727 204 204 204 129 
15.138 40 -23.555 0.5148893765342488 -0.1465513897860117 -0.8446369753236955 204 204 204 129 
15.138 60 -23.555 0.5465533796060668 0.2222431628686873 -0.8073954296373672 204 204 204 129 
11.632 40 -25.47 0.3922536140251959 -0.08405736612846436 -0.9160084396356389 204 204 204 129 
11.632 60 -25.47 0.4323292028843544 0.1465662261783226 -0.8897245650633816 204 204 204 129 
7.889 40 -26.866 0.258550097088929 -0.03776764693676823 -0.9652592667983898 204 204 204 129 
7.889 60 -26.866 0.3034108391065887 0.08401849877106836 -0.9491484365350299 204 204 204 129 
3.985 40 -27.715 0.1186551382644032 -0.00949335177313638 -0.9928901421786636 204 204 204 225 
3.985 60 -27.715 0.1657043821668715 0.03776179757782504 -0.9854522334311221 204 204 204 129 
3 1 0 3 
3 3 0 2 
3 3 2 7 
3 7 2 6 
3 7 6 5 
3 5 6 4 
3 5 4 1 
3 1 4 0 
3 6 2 4 
3 4 2 0 
3 3 7 1 
3 1 7 5 
3 10 8 12 
3 12 8 14 
3 14 8 16 
3 16 8 18 
3 18 8 20 
3 20 8 22 
3 22 8 24 
3 24 8 26 
3 26 8 28 
3 28 8 30 
3 30 8 32 
3 32 8 34 
3 34 8 36 
3 36 8 38 
3 38 8 40 
3 40 8 42 
3 42 8 44 
3 44 8 46 
3 46 8 48 
3 48 8 50 
3 50 8 52 
3 52 8 54 
3 54 8 56 
3 56 8 58 
3 58 8 60 
3 60 8 62 
3 62 8 64 
3 64 8 66 
3 66 8 68 
3 68 8 70 
3 70 8 72 
3 72 8 74 
3 74 8 76 
3 76 8 78 
3 78 8 80 
3 80 8 82 
3 82 8 84 
3 84 8 86 
3 86 8 88 
3 88 8 90 
3 90 8 92 
3 92 8 94 
3 9 8 11 
3 11 8 10 
3 11 10 13 
3 13 10 12 
3 13 12 15 
3 15 12 14 
3 15 14 17 
3 17 14 16 
3 17 16 19 
3 19 16 18 
3 19 18 21 
3 21 18 20 
3 21 20 23 
3 23 20 22 
3 23 22 25 
3 25 22 24 
3 25 24 27 
3 27 24 26 
3 27 26 29 
3 29 26 28 
3 29 28 31 
3 31 28 30 
3 31 30 33 
3 33 30 32 
3 33 32 35 
3 35 32 34 
3 35 34 37 
3 37 34 36 
3 37 36 39 
3 39 36 38 
3 39 38 41 
3 41 38 40 
3 41 40 43 
3 43 40 42 
3 43 42 45 
3 45 42 44 
3 45 44 47 
3 47 44 46 
3 47 46 49 
3 49 46 48 
3 49 48 51 
3 51 48 50 
3 51 50 53 
3 53 50 52 
3 53 52 55 
3 55 52 54 
3 55 54 57 
3 57 54 56 
3 57 56 59 
3 59 56 58 
3 59 58 61 
3 61 58 60 
3 61 60 63 
3 63 60 62 
3 63 62 65 
3 65 62 64 
3 65 64 67 
3 67 64 66 
3 67 66 69 
3 69 66 68 
3 69 68 71 
3 71 68 70 
3 71 70 73 
3 73 70 72 
3 73 72 75 
3 75 72 74 
3 75 74 77 
3 77 74 76 
3 77 76 79 
3 79 76 78 
3 79 78 81 
3 81 78 80 
3 81 80 83 
3 83 80 82 
3 83 82 85 
3 85 82 84 
3 85 84 87 
3 87 84 86 
3 87 86 89 
3 89 86 88 
3 89 88 91 
3 91 88 90 
3 91 90 93 
3 93 90 92 
3 9 11 95 
3 95 11 93 
3 93 11 91 
3 91 11 89 
3 89 11 87 
3 87 11 85 
3 85 11 83 
3 83 11 81 
3 81 11 79 
3 79 11 77 
3 77 11 75 
3 75 11 73 
3 73 11 71 
3 71 11 69 
3 69 11 67 
3 67 11 65 
3 65 11 63 
3 63 11 61 
3 61 11 59 
3 59 11 57 
3 57 11 55 
3 55 11 53 
3 53 11 51 
3 51 11 49 
3 49 11 47 
3 47 11 45 
3 45 11 43 
3 43 11 41 
3 41 11 39 
3 39 11 37 
3 37 11 35 
3 35 11 33 
3 33 11 31 
3 31 11 29 
3 29 11 27 
3 27 11 25 
3 25 11 23 
3 23 11 21 
3 21 11 19 
3 19 11 17 
3 17 11 15 
3 15 11 13 
3 93 92 95 
3 95 92 94 
3 95 94 9 
3 9 94 8 
