ply
format ascii 1.0
comment VCGLIB generated
element vertex 34
property float x
property float y
property float z
property float nx
property float ny
property float nz
property uchar red
property uchar green
property uchar blue
property uchar alpha
element face 64
property list uchar int vertex_indices
end_header
-40 -40 40 -0.816496580927726 -0.408248290463863 0.408248290463863 204 204 204 225 
-40 40 40 -0.4398532654360778 0.1806807251095048 0.8797065308721556 204 204 204 240 
11.2 18.867 -30.8 -0.5697975249326369 0.525666717125117 0.6316686497583549 204 204 204 64 
-40 -40 -40 -0.3333333333333333 -0.6666666666666666 -0.6666666666666666 204 204 204 129 
-30.8 18.867 -11.2 0.845348517214637 0.3885767431632613 0.3665978711280894 204 204 204 225 
-40 40 -40 -0.8838855791126656 0.1530779337325748 -0.4419427895563328 204 204 204 64 
40 -40 40 0.3333333333333333 -0.6666666666666666 0.6666666666666666 204 204 204 129 
40 40 40 0.8838855791126656 0.1530779337325748 0.4419427895563328 204 204 204 64 
40 -40 -40 0.816496580927726 -0.408248290463863 -0.408248290463863 204 204 204 225 
11.2 18.867 30.8 -0.2984618104501029 0.6010757891807305 -0.7413693029547478 204 204 204 129 
40 40 -40 0.4398532654360778 0.1806807251095048 -0.8797065308721556 204 204 204 240 
30.8 18.867 -11.2 -0.6316686497583549 0.525666717125117 0.5697975249326369 204 204 204 64 
-11.2 18.867 -30.8 0.8114893156950787 0.3940207806032506 0.431546886172914 204 204 204 225 
-30.8 18.867 11.2 0.529337034175462 0.7598893787449734 -0.3773200714524794 204 204 204 225 
-11.2 18.867 30.8 0.5253160829998929 0.5568106875123078 -0.6434321030331956 204 204 204 130 
30.8 18.867 11.2 -0.431546886172914 0.3940207806032506 -0.8114893156950787 204 204 204 225 
-10.08 15 10.08 0.3930880946803654 0.7990575297246946 -0.4549602334389555 204 204 204 192 
-10.08 15 -10.08 0.2439601688384672 0.8603167715963617 0.4475918771943035 204 204 204 42 
10.08 15 10.08 -0.4719415581567234 0.8479183734571851 -0.2414655205993718 204 204 204 42 
10.08 15 -10.08 -0.3712507910764627 0.8510850135269692 0.3712507910764627 204 204 204 64 
2.52 18.867 8.4 -3.733548345826948e-17 0.9788002567351621 0.204817131644744 204 204 204 130 
-2.52 18.867 -8.4 0 0.9950295383744607 -0.09958020768359307 204 204 204 129 
-30.8 40 11.2 0.4706846082711928 0.7251205158536018 -0.502649218665264 204 204 204 55 
-30.8 40 -11.2 0.1787722285831041 0.8965711911772984 0.4052167191002247 204 204 204 55 
-11.2 40 -30.8 0.1864260503281276 0.9004395598084065 0.393006268259296 204 204 204 55 
10.08 40 -10.08 -0.6705340383048181 0.3174400840304603 0.6705340383048181 204 204 204 129 
-10.08 40 -10.08 0.8260744764100528 0.3810992375423115 0.4151678342171105 204 204 204 225 
11.2 40 -30.8 -0.2890120439657149 0.910147261758127 0.2968231802891126 204 204 204 129 
-11.2 40 30.8 0.5026492186652639 0.7251205158536018 -0.4706846082711928 204 204 204 55 
10.08 40 10.08 -0.4151678342171105 0.3810992375423115 -0.8260744764100528 204 204 204 225 
-10.08 40 10.08 0.6015831321173062 0.5255430242176786 -0.6015831321173062 204 204 204 130 
30.8 40 11.2 -0.393006268259296 0.9004395598084065 -0.1864260503281276 204 204 204 55 
30.8 40 -11.2 -0.2968231802891126 0.910147261758127 0.2890120439657149 204 204 204 129 
11.2 40 30.8 -0.4052167191002247 0.8965711911772984 -0.1787722285831041 204 204 204 55 
3 0 1 5 
3 0 5 3 
3 3 5 10 
3 3 10 8 
3 8 10 7 
3 8 7 6 
3 6 7 1 
3 6 1 0 
3 3 8 6 
3 3 6 0 
3 25 32 27 
3 27 32 10 
3 27 10 24 
3 24 10 5 
3 24 5 23 
3 23 5 1 
3 23 1 22 
3 22 1 28 
3 22 28 30 
3 33 28 1 
3 33 1 7 
3 33 7 31 
3 33 31 29 
3 26 24 23 
3 31 7 10 
3 31 10 32 
3 9 14 28 
3 9 28 33 
3 26 17 12 
3 26 12 24 
3 28 14 16 
3 28 16 30 
3 16 14 9 
3 16 9 18 
3 16 18 20 
3 17 21 19 
3 17 19 2 
3 17 2 12 
3 21 20 18 
3 21 18 19 
3 16 20 21 
3 16 21 17 
3 18 9 33 
3 18 33 29 
3 2 19 25 
3 2 25 27 
3 24 12 2 
3 24 2 27 
3 11 15 31 
3 11 31 32 
3 16 13 22 
3 16 22 30 
3 15 18 29 
3 15 29 31 
3 11 19 18 
3 11 18 15 
3 13 16 17 
3 13 17 4 
3 25 19 11 
3 25 11 32 
3 23 4 17 
3 23 17 26 
3 22 13 4 
3 22 4 23 
