# Blender v3.4.1 OBJ File: 'Diamond_cube_bottle_rotated45.blend'
# www.blender.org
mtllib Diamond_cube_bottle_rotated45.mtl
o Bottle_Cube.005
v -0.040000 -0.040000 0.040000
v -0.040000 0.040000 0.040000
v -0.017600 0.015000 -0.017600
v -0.040000 -0.040000 -0.040000
v -0.040000 0.040000 -0.040000
v 0.026400 0.015000 -0.026400
v 0.040000 -0.040000 0.040000
v 0.040000 0.040000 0.040000
v -0.026400 0.015000 0.026400
v 0.040000 -0.040000 -0.040000
v 0.040000 0.040000 -0.040000
v 0.017600 0.015000 0.017600
v -0.026400 0.040000 0.026400
v 0.026400 0.040000 -0.026400
v -0.017600 0.040000 -0.017600
v 0.017600 0.040000 0.017600
vt 0.375000 0.000000
vt 0.625000 0.000000
vt 0.625000 0.250000
vt 0.375000 0.250000
vt 0.625000 0.500000
vt 0.375000 0.500000
vt 0.625000 0.750000
vt 0.375000 0.750000
vt 0.625000 1.000000
vt 0.375000 1.000000
vt 0.125000 0.500000
vt 0.125000 0.750000
vt 0.667500 0.542500
vt 0.875000 0.500000
vt 0.875000 0.750000
vt 0.832500 0.707500
vt 0.805000 0.570000
vt 0.695000 0.680000
vt 0.375000 0.750000
vt 0.375000 1.000000
vt 0.590517 1.000000
vt 0.590517 0.750000
vt 0.375000 0.000000
vt 0.375000 0.250000
vt 0.590517 0.250000
vt 0.590517 0.000000
vt 0.125000 0.500000
vt 0.125000 0.750000
vt 0.375000 0.500000
vt 0.590517 0.500000
vn -1.0000 0.0000 0.0000
vn 0.0000 0.0000 -1.0000
vn 1.0000 0.0000 0.0000
vn 0.0000 0.0000 1.0000
vn 0.0000 -1.0000 0.0000
vn 0.0000 1.0000 0.0000
vn -0.9806 0.0000 -0.1961
vn -0.1961 0.0000 -0.9806
vn 0.1961 0.0000 0.9806
vn 0.9806 0.0000 0.1961
usemtl Red
s off
f 1/1/1 2/2/1 5/3/1 4/4/1
f 4/4/2 5/3/2 11/5/2 10/6/2
f 10/6/3 11/5/3 8/7/3 7/8/3
f 7/8/4 8/7/4 2/9/4 1/10/4
f 4/11/5 10/6/5 7/8/5 1/12/5
f 14/13/6 11/5/6 5/14/6 2/15/6 13/16/6 15/17/6
f 13/16/6 2/15/6 8/7/6 11/5/6 14/13/6 16/18/6
usemtl Blue
f 6/19/7 12/20/7 16/21/7 14/22/7
f 12/23/8 9/24/8 13/25/8 16/26/8
f 9/27/6 12/28/6 6/19/6 3/29/6
f 15/30/9 3/29/9 6/19/9 14/22/9
f 13/25/10 9/24/10 3/29/10 15/30/10
