ply
format ascii 1.0
comment VCGLIB generated
element vertex 16
property float x
property float y
property float z
property float nx
property float ny
property float nz
property uchar red
property uchar green
property uchar blue
property uchar alpha
element face 28
property list uchar int vertex_indices
end_header
-40 -40 40 -0.816496580927726 -0.408248290463863 0.408248290463863 204 204 204 225 
-40 40 40 -0.4353832164214673 0.2284891119779861 0.8707664328429346 204 204 204 64 
-17.6 15 -17.6 0.7080308905933136 0.5437677239756649 0.450565112195745 204 204 204 225 
-40 -40 -40 -0.3333333333333333 -0.6666666666666666 -0.6666666666666666 204 204 204 129 
-40 40 -40 -0.8676320104922559 0.2429369629378317 -0.433816005246128 204 204 204 129 
26.4 15 -26.4 -0.3934281726343049 0.8309203006036519 0.3934281726343049 204 204 204 64 
40 -40 40 0.3333333333333333 -0.6666666666666666 0.6666666666666666 204 204 204 129 
40 40 40 0.8525291575972629 0.3024773451155089 0.4262645787986314 204 204 204 55 
-26.4 15 26.4 0.2244943168923409 0.9482639945532481 -0.2244943168923409 204 204 204 225 
40 -40 -40 0.816496580927726 -0.408248290463863 -0.408248290463863 204 204 204 225 
40 40 -40 0.4353832164214673 0.2284891119779861 -0.8707664328429346 204 204 204 64 
17.6 15 17.6 -0.450565112195745 0.5437677239756649 -0.7080308905933136 204 204 204 225 
-26.4 40 26.4 0.4745569788867264 0.741344284108137 -0.4745569788867264 204 204 204 55 
26.4 40 -26.4 -0.2915854900163737 0.9110191018984303 0.2915854900163737 204 204 204 129 
-17.6 40 -17.6 0.2866999794450533 0.8454745160071057 0.4505285391279408 204 204 204 55 
17.6 40 17.6 -0.6508926970783286 0.6362180253623809 -0.4142044435953 204 204 204 129 
3 0 1 4 
3 0 4 3 
3 3 4 10 
3 3 10 9 
3 9 10 7 
3 9 7 6 
3 6 7 1 
3 6 1 0 
3 3 9 6 
3 3 6 0 
3 14 13 10 
3 14 10 4 
3 14 4 1 
3 14 1 12 
3 7 10 13 
3 7 13 15 
3 7 15 12 
3 7 12 1 
3 5 11 15 
3 5 15 13 
3 11 8 12 
3 11 12 15 
3 8 11 5 
3 8 5 2 
3 14 2 5 
3 14 5 13 
3 12 8 2 
3 12 2 14 
