ply
format ascii 1.0
comment VCGLIB generated
element vertex 20
property float x
property float y
property float z
property float nx
property float ny
property float nz
property uchar red
property uchar green
property uchar blue
property uchar alpha
element face 32
property list uchar int vertex_indices
end_header
40 -40 40 0.816496580927726 -0.408248290463863 0.408248290463863 204 204 204 225 
40 40 40 0.3333333333333333 0.6666666666666666 0.6666666666666666 204 204 204 129 
40 -40 -40 0.3333333333333333 -0.6666666666666666 -0.6666666666666666 204 204 204 129 
40 40 -40 0.816496580927726 0.408248290463863 -0.408248290463863 204 204 204 225 
-40 -40 40 -0.3333333333333333 -0.6666666666666666 0.6666666666666666 204 204 204 129 
-40 40 40 -0.816496580927726 0.408248290463863 0.408248290463863 204 204 204 225 
-40 -40 -40 -0.816496580927726 -0.408248290463863 -0.408248290463863 204 204 204 225 
-40 40 -40 -0.3333333333333333 0.6666666666666666 -0.6666666666666666 204 204 204 129 
22.627 40 -22.627 0.1700455769928514 -0.952911180495729 -0.2510872036393023 204 204 204 55 
22.627 60 -22.627 0.733494153098927 0.4639248720022366 -0.4967494745919681 204 204 204 225 
-8.282 40 -30.91 -0.3868538036575628 -0.4639549166259828 -0.796925322683533 204 204 204 225 
-8.282 60 -30.91 -0.02171284437334574 0.9529121038971136 -0.3024683035221962 204 204 204 55 
-30.91 40 -8.282 -0.535557006976641 -0.8436235273781367 -0.03844523809644506 204 204 204 129 
-30.91 60 -8.282 -0.796925322683533 0.4639549166259828 -0.3868538036575627 204 204 204 225 
-22.627 40 22.627 -0.241565019391781 -0.9024506677726832 0.3566919310033331 204 204 204 129 
-22.627 60 22.627 -0.4445795856538665 0.8436209644484953 0.30108580232689 204 204 204 129 
8.282 40 30.91 0.234481864892226 -0.8436195371742236 0.4830365737028749 204 204 204 129 
8.282 60 30.91 0.03084452149362138 0.9024561333064464 0.4296760907374381 204 204 204 129 
30.91 40 8.282 0.8835819892839361 -0.4639608897945636 0.06342839233402675 204 204 204 225 
30.91 60 8.282 0.4830365737028748 0.8436195371742233 0.2344818648922259 204 204 204 129 
3 1 0 3 
3 3 0 2 
3 3 2 7 
3 7 2 6 
3 7 6 5 
3 5 6 4 
3 5 4 1 
3 1 4 0 
3 6 2 4 
3 4 2 0 
3 3 7 1 
3 1 7 5 
3 10 8 12 
3 12 8 14 
3 14 8 16 
3 16 8 18 
3 9 8 11 
3 11 8 10 
3 11 10 13 
3 13 10 12 
3 13 12 15 
3 15 12 14 
3 15 14 17 
3 17 14 16 
3 9 11 19 
3 19 11 17 
3 17 11 15 
3 15 11 13 
3 17 16 19 
3 19 16 18 
3 19 18 9 
3 9 18 8 
