ply
format ascii 1.0
comment VCGLIB generated
element vertex 78
property float x
property float y
property float z
property float nx
property float ny
property float nz
property uchar red
property uchar green
property uchar blue
property uchar alpha
element face 152
property list uchar int vertex_indices
end_header
-40 -40 40 -0.816496580927726 -0.408248290463863 0.408248290463863 204 204 204 225 
-18.526 15.519 -18.526 0.6468928795362138 0.4621461997429603 0.606589228777173 204 204 204 64 
-40 40 40 -0.4225634168081021 0.3274153232170283 0.8451268336162041 204 204 204 247 
-40 -40 -40 -0.3333333333333333 -0.6666666666666666 -0.6666666666666666 204 204 204 129 
-40 40 -40 -0.8716705898214816 0.2241383022830726 -0.4358352949107408 204 204 204 42 
1.886 15.483 -9.428000000000001 0.002167840362379772 0.9999527741322538 0.009473646255417249 204 204 204 247 
40 -40 40 0.3333333333333333 -0.6666666666666666 0.6666666666666666 204 204 204 129 
-16.646 15.52 -20.07 0.5581464036681475 0.2855270226859735 0.7790679761024689 204 204 204 64 
40 40 40 0.8788705525922457 0.1856964989781739 0.4394352762961228 204 204 204 55 
40 -40 -40 0.816496580927726 -0.408248290463863 -0.408248290463863 204 204 204 225 
40 40 -40 0.4235448635496854 0.3210120602148645 -0.8470897270993708 204 204 204 159 
26.21 15.483 13.765 -0.8282309208588924 0.5066185513498815 0.2395228280589947 204 204 204 127 
-14.494 15.523 -21.22 0.4091600917567805 0.1251929820867084 0.9038333566259988 204 204 204 64 
-9.428000000000001 15.483 1.886 0.02039357510740691 0.9995457155260385 0.02219154496375056 204 204 204 55 
-12.143 15.528 -21.934 0.2267849582924861 0.02672071922653448 0.9735782381792909 204 204 204 129 
13.765 15.483 26.21 0.2261400078277058 0.5297378924444567 -0.8174585385009998 204 204 204 130 
-9.664999999999999 15.537 -22.179 0.03226898490768511 0.006738488849421981 0.9994565049971179 204 204 204 225 
-7.13 15.549 -21.931 -0.1637686714375662 0.06497551729948632 0.9843566449246118 204 204 204 64 
-4.593 15.565 -21.164 -0.3482564230147351 0.1872014631366528 0.9185167804827945 204 204 204 64 
-2.119 15.579 -19.845 -0.4989006261669177 0.3396019531107215 0.7973510385355003 204 204 204 64 
0.161 15.585 -17.975 -0.6541897127435463 0.3810744184521582 0.6533131770765579 204 204 204 55 
2.03 15.579 -15.695 -0.6785224368532309 0.599653140862473 0.4242916607011319 204 204 204 64 
3.35 15.565 -13.221 -0.6862025797123025 0.6787988692510806 0.2614538481255069 204 204 204 64 
4.116 15.549 -10.685 -0.7390023312805357 0.6609732111851565 0.1303455732179494 204 204 204 55 
4.365 15.537 -8.148999999999999 -0.9735919205821996 0.1006908334826488 -0.2048905274277791 204 204 204 129 
2.862 15.483 -6.566 0.08283139448407177 0.9927700898749162 -0.08687064370415909 204 204 204 225 
2.179 15.483 -4.315 0 1 0 204 204 204 225 
1.07 15.483 -2.24 0 1 0 204 204 204 225 
-0.422 15.483 -0.422 0 1 0 204 204 204 225 
-2.24 15.483 1.07 0 1 0 204 204 204 225 
-4.315 15.483 2.179 0 1 0 204 204 204 225 
-6.566 15.483 2.862 -0.16976347620144 0.96926850176305 0.1780419434796631 204 204 204 129 
-8.148999999999999 15.537 4.365 0.01668489517525153 0.008451333302784593 -0.999825079320576 204 204 204 225 
-10.685 15.549 4.116 0.2275259479105383 0.01770392270462252 -0.9736110692408338 204 204 204 129 
-13.221 15.565 3.35 0.413689561062704 0.03721303087027406 -0.9096571537679431 204 204 204 129 
-15.695 15.579 2.03 0.5846080993469331 0.1423359080077247 -0.7987326583216583 204 204 204 64 
-17.975 15.585 0.161 0.6937256964641731 0.1930215065430811 -0.6938928995725041 204 204 204 225 
-19.845 15.579 -2.119 0.799658276812461 0.1705618095468913 -0.5757215554844334 204 204 204 129 
-21.164 15.565 -4.593 0.8876679764083787 0.2191458495517718 -0.4049946422896061 204 204 204 129 
-21.931 15.549 -7.13 0.4911001960079511 0.8636427679878952 -0.1137618863379059 204 204 204 64 
-22.179 15.537 -9.664999999999999 0.7626350352213821 0.6465036294902434 -0.02051487530605976 204 204 204 64 
-21.934 15.528 -12.143 0.6833108348808579 0.7213485528861124 0.1128829844730212 204 204 204 64 
-21.22 15.523 -14.494 0.757203645034073 0.5725795374102962 0.3143172176100521 204 204 204 55 
-20.07 15.52 -16.646 0.5516027818485684 0.7475802449385869 0.3699434395072891 204 204 204 129 
-8.148999999999999 15 3.947 0.6454488117322983 0.4050408842728391 -0.6475629031228092 204 204 204 159 
3.947 15 -8.148999999999999 -0.7056709755435699 0.08431774506458237 0.7035047918405465 204 204 204 129 
-6.531000000000001 15.483 2.852 0 1 0 204 204 204 129 
-6.544 15.483 2.847 0 1 0 204 204 204 130 
-21.931 40 -7.13 0.7931143024930818 0.5946696050763574 -0.131672943231484 204 204 204 129 
-22.179 40 -9.664999999999999 0.8982286474110179 0.4385690934826379 0.0290249412056319 204 204 204 129 
-21.934 40 -12.143 0.9538105463357286 0.202114395229361 0.2222503384470062 204 204 204 129 
-21.164 40 -4.593 0.6780791877735386 0.6888571698086816 -0.2562897085556719 204 204 204 129 
-21.22 40 -14.494 0.06967593865836728 0.997152644874865 0.02884209408376557 204 204 204 129 
-20.07 40 -16.646 0.7118895581789797 0.5166856903683088 0.4756565508056849 204 204 204 64 
-17.975 40 0.161 0.5266304344867722 0.667223399599769 -0.5267573639720668 204 204 204 64 
-18.526 40 -18.526 0.5269130332530819 0.6371041204202383 0.5625486602344646 204 204 204 129 
-13.221 40 3.35 0.2247000817391126 0.7720220399594098 -0.5945518001682842 204 204 204 129 
-14.494 40 -21.22 0.03974587868081454 0.9936067311606781 0.1056689591132699 204 204 204 64 
-15.695 40 2.03 0.3322557113503621 0.7784055846048012 -0.5326264057771848 204 204 204 129 
-16.646 40 -20.07 0.4114725509981196 0.6265095214492118 0.6619487588239588 204 204 204 129 
-19.845 40 -2.119 0.5690548868887287 0.7417692533180628 -0.354901268721344 204 204 204 129 
-8.148999999999999 40 3.947 0.7059414326493352 0.01184062299294567 -0.7081712316355014 204 204 204 130 
-4.593 40 -21.164 -0.3027740550733413 0.6821410306720296 0.6655910800545229 204 204 204 129 
-7.13 40 -21.931 -0.1841518065190337 0.5896781276019626 0.7863636677667781 204 204 204 129 
-10.685 40 4.116 0.1089990539012185 0.7467541325001269 -0.6561078202876585 204 204 204 129 
-8.148999999999999 40 4.365 -0.009198903646451007 0.99919178088223 -0.03913010591731892 204 204 204 64 
-9.664999999999999 40 -22.179 -0.02990093308612938 0.4359787590141193 0.8994600913265065 204 204 204 129 
2.03 40 -15.695 -0.8079200144336339 0.0987949186075148 0.5809516454360824 204 204 204 129 
0.161 40 -17.975 -0.0514789633346913 0.9973470357216953 0.05146655876521303 204 204 204 129 
4.116 40 -10.685 -0.8856682121169028 0.4154648883555684 0.2073179794165084 204 204 204 129 
3.947 40 -8.148999999999999 -0.7082008578863027 0.005978309643081701 0.7059856972367897 204 204 204 129 
4.365 40 -8.148999999999999 -0.9026762611447526 0.430085307929345 0.01421954531801748 204 204 204 129 
3.35 40 -13.221 -0.8741858535499091 0.2784389524934487 0.3978326824024992 204 204 204 129 
-2.119 40 -19.845 -0.3951709523625979 0.7361694668579329 0.5494492100958415 204 204 204 129 
-12.143 40 -21.934 0.1592614544399431 0.2012821751242241 0.9664994956578794 204 204 204 129 
26.21 40 13.765 -0.2235735017324128 0.97159572245549 0.07756701250726035 204 204 204 192 
15.326 40 24.649 -0.4629833513295385 0.7558391580113709 -0.4629833513295385 204 204 204 225 
13.765 40 26.21 0.2443684743872196 0.8536760231592012 -0.4599144444445661 204 204 204 240 
3 0 2 4 
3 0 4 3 
3 3 4 10 
3 3 10 9 
3 9 10 8 
3 9 8 6 
3 6 8 2 
3 6 2 0 
3 3 9 6 
3 3 6 0 
3 77 61 65 
3 77 65 2 
3 77 2 8 
3 77 8 76 
3 2 65 64 
3 2 64 56 
3 2 56 58 
3 2 58 54 
3 2 54 60 
3 2 60 51 
3 2 51 48 
3 2 48 49 
3 2 49 50 
3 2 50 52 
3 2 52 4 
3 53 55 4 
3 53 4 52 
3 75 76 8 
3 75 8 10 
3 75 10 68 
3 75 68 67 
3 75 67 72 
3 75 72 69 
3 75 69 71 
3 75 71 70 
3 10 4 57 
3 10 57 74 
3 10 74 66 
3 10 66 63 
3 10 63 62 
3 10 62 73 
3 10 73 68 
3 59 57 4 
3 59 4 55 
3 11 15 77 
3 11 77 76 
3 11 76 75 
3 77 15 44 
3 77 44 61 
3 11 45 25 
3 11 25 26 
3 11 26 27 
3 11 27 28 
3 11 28 29 
3 11 29 30 
3 11 30 46 
3 11 46 31 
3 11 31 44 
3 11 44 15 
3 5 13 44 
3 5 44 31 
3 5 31 47 
3 5 47 46 
3 5 46 30 
3 5 30 29 
3 5 29 28 
3 5 28 27 
3 5 27 26 
3 5 26 25 
3 5 25 45 
3 31 46 47 
3 70 45 11 
3 70 11 75 
3 55 1 7 
3 55 7 59 
3 59 7 12 
3 59 12 57 
3 57 12 14 
3 57 14 74 
3 74 14 16 
3 74 16 66 
3 66 16 17 
3 66 17 63 
3 63 17 18 
3 63 18 62 
3 62 18 19 
3 62 19 73 
3 73 19 20 
3 73 20 68 
3 20 21 67 
3 20 67 68 
3 21 22 72 
3 21 72 67 
3 22 23 69 
3 22 69 72 
3 23 24 71 
3 23 71 69 
3 24 45 70 
3 24 70 71 
3 44 32 65 
3 44 65 61 
3 32 33 64 
3 32 64 65 
3 33 34 56 
3 33 56 64 
3 34 35 58 
3 34 58 56 
3 35 36 54 
3 35 54 58 
3 54 36 37 
3 54 37 60 
3 60 37 38 
3 60 38 51 
3 51 38 39 
3 51 39 48 
3 48 39 40 
3 48 40 49 
3 49 40 41 
3 49 41 50 
3 50 41 42 
3 50 42 52 
3 42 43 53 
3 42 53 52 
3 53 43 1 
3 53 1 55 
3 23 22 41 
3 23 41 40 
3 23 40 5 
3 23 5 24 
3 16 14 17 
3 17 14 12 
3 17 12 18 
3 18 12 7 
3 18 7 19 
3 19 7 1 
3 19 1 20 
3 20 1 43 
3 20 43 21 
3 21 43 42 
3 21 42 22 
3 22 42 41 
3 44 13 35 
3 44 35 34 
3 44 34 33 
3 44 33 32 
3 13 5 39 
3 13 39 38 
3 13 38 37 
3 13 37 36 
3 13 36 35 
3 39 5 40 
3 24 5 45 
