ply
format ascii 1.0
comment VCGLIB generated
element vertex 18
property float x
property float y
property float z
property float nx
property float ny
property float nz
property uchar red
property uchar green
property uchar blue
property uchar alpha
element face 32
property list uchar int vertex_indices
end_header
-40 -40 40 -0.816496580927726 -0.408248290463863 0.408248290463863 204 204 204 225 
-40 40 40 -0.4299699818009001 0.2750074067196522 0.8599399636018001 204 204 204 64 
-12.445 15 -31.113 -0.05983184965718405 0.6255443875941983 0.7778909749547165 204 204 204 225 
-40 -40 -40 -0.3333333333333333 -0.6666666666666666 -0.6666666666666666 204 204 204 129 
-40 40 -40 -0.8849303100263851 0.1453373076527747 -0.4424651550131926 204 204 204 55 
31.113 15 12.445 -0.6662429660513678 0.6964925286533293 0.266492903690074 204 204 204 55 
40 -40 40 0.3333333333333333 -0.6666666666666666 0.6666666666666666 204 204 204 129 
40 40 40 0.8849303100263851 0.1453373076527747 0.4424651550131926 204 204 204 55 
-31.113 15 -12.445 0.4251868909212149 0.888983472690447 -0.1700720231901301 204 204 204 225 
40 -40 -40 0.816496580927726 -0.408248290463863 -0.408248290463863 204 204 204 225 
40 40 -40 0.4299699818009001 0.2750074067196522 -0.8599399636018001 204 204 204 64 
12.445 15 31.113 0.4827103234421353 0.4587557638384975 -0.746011992388424 204 204 204 225 
-31.113 40 -12.445 0.5989774595101317 0.764083770587469 -0.2395871334684405 204 204 204 240 
-12.445 40 -31.113 -0.3647730421930374 0.7410352853870877 0.5637440318979118 204 204 204 55 
-15.02 40 -28.538 0 1 0 204 204 204 130 
12.445 40 31.113 0.1439450999269403 0.8969679184090223 -0.4180052171349163 204 204 204 64 
31.113 40 12.445 -0.3472056739081128 0.9240627442797881 0.1598632685769948 204 204 204 129 
15.02 40 28.538 -0.4923760513198734 0.7177267224879529 -0.4923760513198734 204 204 204 225 
3 0 1 4 
3 0 4 3 
3 3 4 10 
3 3 10 9 
3 9 10 7 
3 9 7 6 
3 6 7 1 
3 6 1 0 
3 3 9 6 
3 3 6 0 
3 14 4 12 
3 12 4 1 
3 12 1 15 
3 15 1 7 
3 15 7 17 
3 17 7 16 
3 16 7 10 
3 16 10 13 
3 13 10 4 
3 13 4 14 
3 5 11 15 
3 5 15 17 
3 5 17 16 
3 11 8 12 
3 11 12 15 
3 8 11 5 
3 8 5 2 
3 13 2 5 
3 13 5 16 
3 12 8 2 
3 12 2 13 
3 12 13 14 
