ply
format ascii 1.0
comment VCGLIB generated
element vertex 16
property float x
property float y
property float z
property float nx
property float ny
property float nz
property uchar red
property uchar green
property uchar blue
property uchar alpha
element face 28
property list uchar int vertex_indices
end_header
-40 -40 40 -0.816496580927726 -0.408248290463863 0.408248290463863 204 204 204 225 
-40 40 40 -0.426355187212435 0.3018381547870434 0.8527103744248701 204 204 204 64 
13.2 15 -30.8 -0.8269102542716718 0.4366086142554427 0.3543901089735736 204 204 204 129 
-40 -40 -40 -0.3333333333333333 -0.6666666666666666 -0.6666666666666666 204 204 204 129 
-40 40 -40 -0.8768472640428289 0.1972906344096365 -0.4384236320214144 204 204 204 129 
13.2 15 30.8 -0.4017639883894456 0.8485255434785091 -0.3443691329052391 204 204 204 129 
40 -40 40 0.3333333333333333 -0.6666666666666666 0.6666666666666666 204 204 204 129 
40 40 40 0.8484661907080936 0.3164354658245835 0.4242330953540468 204 204 204 55 
-13.2 15 -30.8 0.6802478119823433 0.7183416894533545 0.1457673882819307 204 204 204 129 
40 -40 -40 0.816496580927726 -0.408248290463863 -0.408248290463863 204 204 204 225 
40 40 -40 0.4369314502372254 0.2132007011432542 -0.8738629004744508 204 204 204 64 
-13.2 15 30.8 0.6595511945968897 0.6964860614943156 -0.2826647976843813 204 204 204 130 
13.2 40 -30.8 -0.3522754328791783 0.9236387349754747 0.1509751855196478 204 204 204 129 
-13.2 40 -30.8 0.2969081398650424 0.9203689621832108 0.2544926913128935 204 204 204 55 
-13.2 40 30.8 0.7230676973059603 0.6173683466452345 -0.3098861559882687 204 204 204 55 
13.2 40 30.8 -0.8380114159352683 0.5152573048836279 -0.1795738748432718 204 204 204 129 
3 0 1 4 
3 0 4 3 
3 3 4 10 
3 3 10 9 
3 9 10 7 
3 9 7 6 
3 6 7 1 
3 6 1 0 
3 3 9 6 
3 3 6 0 
3 14 1 7 
3 14 7 15 
3 15 7 12 
3 12 7 10 
3 12 10 13 
3 13 10 4 
3 13 4 1 
3 13 1 14 
3 5 11 14 
3 5 14 15 
3 14 11 8 
3 14 8 13 
3 8 11 5 
3 8 5 2 
3 2 5 15 
3 2 15 12 
3 13 8 2 
3 13 2 12 
