# Blender v3.4.1 OBJ File: 'Line_cube_bottle_rotated45.blend'
# www.blender.org
mtllib Line_cube_bottle_rotated45.mtl
o Bottle_Cube.005
v -0.040000 -0.040000 0.040000
v -0.040000 0.040000 0.040000
v -0.012445 0.015000 -0.031113
v -0.040000 -0.040000 -0.040000
v -0.040000 0.040000 -0.040000
v 0.031113 0.015000 0.012445
v 0.040000 -0.040000 0.040000
v 0.040000 0.040000 0.040000
v -0.031113 0.015000 -0.012445
v 0.040000 -0.040000 -0.040000
v 0.040000 0.040000 -0.040000
v 0.012445 0.015000 0.031113
v -0.031113 0.040000 -0.012445
v -0.012445 0.040000 -0.031113
v -0.015020 0.040000 -0.028538
v 0.012445 0.040000 0.031113
v 0.031113 0.040000 0.012445
v 0.015020 0.040000 0.028538
vt 0.375000 0.000000
vt 0.625000 0.000000
vt 0.625000 0.250000
vt 0.375000 0.250000
vt 0.625000 0.500000
vt 0.375000 0.500000
vt 0.625000 0.750000
vt 0.375000 0.750000
vt 0.625000 1.000000
vt 0.375000 1.000000
vt 0.125000 0.500000
vt 0.125000 0.750000
vt 0.875000 0.500000
vt 0.875000 0.750000
vt 0.703063 0.714181
vt 0.711109 0.722227
vt 0.847227 0.586109
vt 0.796937 0.535819
vt 0.788891 0.527773
vt 0.652773 0.663891
vt 0.375000 0.750000
vt 0.375000 1.000000
vt 0.590517 1.000000
vt 0.590517 0.965517
vt 0.590517 0.750000
vt 0.375000 0.000000
vt 0.375000 0.250000
vt 0.590517 0.250000
vt 0.590517 0.000000
vt 0.125000 0.500000
vt 0.125000 0.750000
vt 0.375000 0.500000
vt 0.590517 0.500000
vt 0.590517 0.465517
vn -1.0000 0.0000 0.0000
vn 0.0000 0.0000 -1.0000
vn 1.0000 0.0000 0.0000
vn 0.0000 0.0000 1.0000
vn 0.0000 -1.0000 0.0000
vn 0.0000 1.0000 -0.0000
vn -0.7071 0.0000 -0.7071
vn 0.7071 0.0000 -0.7071
vn -0.7071 0.0000 0.7071
vn 0.7071 0.0000 0.7071
usemtl Red
s off
f 1/1/1 2/2/1 5/3/1 4/4/1
f 4/4/2 5/3/2 11/5/2 10/6/2
f 10/6/3 11/5/3 8/7/3 7/8/3
f 7/8/4 8/7/4 2/9/4 1/10/4
f 4/11/5 10/6/5 7/8/5 1/12/5
f 5/13/6 2/14/6 8/7/6 18/15/6 16/16/6 13/17/6 15/18/6
f 8/7/6 11/5/6 5/13/6 15/18/6 14/19/6 17/20/6 18/15/6
usemtl Blue
f 6/21/7 12/22/7 16/23/7 18/24/7 17/25/7
f 12/26/8 9/27/8 13/28/8 16/29/8
f 9/30/6 12/31/6 6/21/6 3/32/6
f 14/33/9 3/32/9 6/21/9 17/25/9
f 13/28/10 9/27/10 3/32/10 14/33/10 15/34/10
