ply
format ascii 1.0
comment VCGLIB generated
element vertex 18
property float x
property float y
property float z
property float nx
property float ny
property float nz
property uchar red
property uchar green
property uchar blue
property uchar alpha
element face 28
property list uchar int vertex_indices
end_header
40 -40 40 0.816496580927726 -0.408248290463863 0.408248290463863 204 204 204 225 
40 40 40 0.3333333333333333 0.6666666666666666 0.6666666666666666 204 204 204 129 
40 -40 -40 0.3333333333333333 -0.6666666666666666 -0.6666666666666666 204 204 204 129 
40 40 -40 0.816496580927726 0.408248290463863 -0.408248290463863 204 204 204 225 
-40 -40 40 -0.3333333333333333 -0.6666666666666666 0.6666666666666666 204 204 204 129 
-40 40 40 -0.816496580927726 0.408248290463863 0.408248290463863 204 204 204 225 
-40 -40 -40 -0.816496580927726 -0.408248290463863 -0.408248290463863 204 204 204 225 
-40 40 -40 -0.3333333333333333 0.6666666666666666 -0.6666666666666666 204 204 204 129 
19.799 40 -19.799 0.2101322014841304 -0.9149888869589534 -0.3444412789446825 204 204 204 64 
19.799 60 -19.799 0.7233292429082091 0.5311002625558658 -0.4412791831334529 204 204 204 225 
-12.712 40 -24.948 -0.5515652346639981 -0.5310951079236524 -0.6432058599310274 204 204 204 225 
-12.712 60 -24.948 -0.09341067545277271 0.9149893013919882 -0.392516272337413 204 204 204 64 
-27.655 40 4.38 -0.4803733342520182 -0.8539330163964431 0.2000996333021896 204 204 204 129 
-27.655 60 4.38 -0.8445712492593908 0.5310887030766905 -0.06814832638261255 204 204 204 225 
-4.38 40 27.655 0.04185341148190668 -0.8539343726023386 0.5186948806722278 204 204 204 129 
-4.38 60 27.655 -0.2001011913247858 0.8539305472203007 0.4803770745512732 204 204 204 129 
24.948 40 12.712 0.8242948584735124 -0.5310906646918147 0.1961649616300999 204 204 204 225 
24.948 60 12.712 0.3950258808558154 0.8539359559379125 0.3387446480912882 204 204 204 129 
3 1 0 3 
3 3 0 2 
3 3 2 7 
3 7 2 6 
3 7 6 5 
3 5 6 4 
3 5 4 1 
3 1 4 0 
3 6 2 4 
3 4 2 0 
3 3 7 1 
3 1 7 5 
3 10 8 12 
3 12 8 14 
3 14 8 16 
3 9 8 11 
3 11 8 10 
3 11 10 13 
3 13 10 12 
3 13 12 15 
3 15 12 14 
3 9 11 17 
3 17 11 15 
3 15 11 13 
3 15 14 17 
3 17 14 16 
3 17 16 9 
3 9 16 8 
