# Blender v3.4.1 OBJ File: 'Pentagon_cube_bottle.blend'
# www.blender.org
mtllib Pentagon_cube_bottle.mtl
o Bottle.001_Cube
v -0.040000 -0.040000 0.040000
v 0.000000 0.015000 -0.031551
v -0.040000 0.040000 0.040000
v -0.040000 -0.040000 -0.040000
v 0.030007 0.015000 -0.009750
v -0.040000 0.040000 -0.040000
v 0.040000 -0.040000 0.040000
v 0.018545 0.015000 0.025525
v 0.040000 0.040000 0.040000
v 0.040000 -0.040000 -0.040000
v -0.018545 0.015000 0.025525
v 0.040000 0.040000 -0.040000
v -0.030007 0.015000 -0.009750
v -0.030007 0.040000 -0.009750
v 0.000000 0.040000 -0.031551
v -0.018545 0.040000 0.025525
v 0.030007 0.040000 -0.009750
v 0.018545 0.040000 0.025525
vt 0.375000 0.000000
vt 0.625000 0.000000
vt 0.625000 0.250000
vt 0.375000 0.250000
vt 0.625000 0.500000
vt 0.375000 0.500000
vt 0.625000 0.750000
vt 0.375000 0.750000
vt 0.625000 1.000000
vt 0.375000 1.000000
vt 0.125000 0.500000
vt 0.125000 0.750000
vt 0.807953 0.704766
vt 0.875000 0.750000
vt 0.692046 0.704766
vt 0.875000 0.500000
vt 0.843771 0.594532
vt 0.750000 0.526404
vt 0.656229 0.594532
vt 1.000000 0.931035
vt 1.000000 0.500000
vt 0.800000 0.500000
vt 0.800000 0.931034
vt 0.600000 0.500000
vt 0.600000 0.931034
vt 0.400000 0.500000
vt 0.400000 0.931034
vt 0.200000 0.500000
vt 0.200000 0.931035
vt 0.000000 0.500000
vt 0.000000 0.931035
vt 0.978254 0.324164
vt 0.750000 0.490000
vt 0.521746 0.324164
vt 0.608932 0.055836
vt 0.891068 0.055836
vn -1.0000 0.0000 0.0000
vn 0.0000 0.0000 -1.0000
vn 1.0000 0.0000 0.0000
vn 0.0000 0.0000 1.0000
vn 0.0000 -1.0000 0.0000
vn 0.0000 1.0000 0.0000
vn -0.5878 0.0000 0.8090
vn -0.9511 0.0000 -0.3090
vn 0.9511 0.0000 -0.3090
vn 0.5878 0.0000 0.8090
usemtl Red
s off
f 1/1/1 3/2/1 6/3/1 4/4/1
f 4/4/2 6/3/2 12/5/2 10/6/2
f 10/6/3 12/5/3 9/7/3 7/8/3
f 7/8/4 9/7/4 3/9/4 1/10/4
f 4/11/5 10/6/5 7/8/5 1/12/5
f 16/13/6 3/14/6 9/7/6 18/15/6
f 18/15/6 9/7/6 12/5/6 6/16/6 3/14/6 16/13/6 14/17/6 15/18/6 17/19/6
usemtl Blue
f 15/20/7 2/21/7 5/22/7 17/23/7
f 5/22/8 8/24/8 18/25/8 17/23/8
f 8/24/2 11/26/2 16/27/2 18/25/2
f 16/27/9 11/26/9 13/28/9 14/29/9
f 14/29/10 13/28/10 2/30/10 15/31/10
f 5/32/6 2/33/6 13/34/6 11/35/6 8/36/6
