ply
format ascii 1.0
comment VCGLIB generated
element vertex 18
property float x
property float y
property float z
property float nx
property float ny
property float nz
property uchar red
property uchar green
property uchar blue
property uchar alpha
element face 28
property list uchar int vertex_indices
end_header
40 -40 40 0.816496580927726 -0.408248290463863 0.408248290463863 204 204 204 225 
40 40 40 0.3333333333333333 0.6666666666666666 0.6666666666666666 204 204 204 129 
40 -40 -40 0.3333333333333333 -0.6666666666666666 -0.6666666666666666 204 204 204 129 
40 40 -40 0.816496580927726 0.408248290463863 -0.408248290463863 204 204 204 225 
-40 -40 40 -0.3333333333333333 -0.6666666666666666 0.6666666666666666 204 204 204 129 
-40 40 40 -0.816496580927726 0.408248290463863 0.408248290463863 204 204 204 225 
-40 -40 -40 -0.816496580927726 -0.408248290463863 -0.408248290463863 204 204 204 225 
-40 40 -40 -0.3333333333333333 0.6666666666666666 -0.6666666666666666 204 204 204 129 
0 40 -28 -0.09497090211414884 -0.9149877967683561 -0.3921452020828691 204 204 204 64 
0 60 -28 0.1994379393067383 0.531103232373844 -0.8235009805259108 204 204 204 225 
-26.63 40 -8.651999999999999 -0.8448272140979528 -0.5311009312067624 -0.06479798755209787 204 204 204 225 
-26.63 60 -8.651999999999999 -0.3436002522643609 0.9149897969830165 -0.2115006809938112 204 204 204 64 
-16.458 40 22.652 -0.1981804178853951 -0.8539327957139937 0.4811686839049824 204 204 204 129 
-16.458 60 22.652 -0.6453845743695897 0.5310869662487354 0.5490222085184697 204 204 204 225 
16.458 40 22.652 0.3963621000424036 -0.8539355195022592 0.3371812779238822 204 204 204 129 
16.458 60 22.652 0.1981826198146347 0.8539292722572981 0.4811740300406178 204 204 204 129 
26.63 40 -8.651999999999999 0.7215705716257286 -0.5310931429589638 -0.4441576112887056 204 204 204 225 
26.63 60 -8.651999999999999 0.5188480565653477 0.853939701302371 -0.03979548640209109 204 204 204 129 
3 1 0 3 
3 3 0 2 
3 3 2 7 
3 7 2 6 
3 7 6 5 
3 5 6 4 
3 5 4 1 
3 1 4 0 
3 6 2 4 
3 4 2 0 
3 3 7 1 
3 1 7 5 
3 10 8 12 
3 12 8 14 
3 14 8 16 
3 9 8 11 
3 11 8 10 
3 11 10 13 
3 13 10 12 
3 13 12 15 
3 15 12 14 
3 9 11 17 
3 17 11 15 
3 15 11 13 
3 15 14 17 
3 17 14 16 
3 17 16 9 
3 9 16 8 
