# Blender v3.4.1 OBJ File: 'Pentagon_cube_cap_rotated45.blend'
# www.blender.org
mtllib Pentagon_cube_cap_rotated45.mtl
o Cap_Cube.003
v -0.040000 -0.040000 0.040000
v -0.040000 0.040000 0.040000
v -0.040000 -0.040000 -0.040000
v -0.040000 0.040000 -0.040000
v 0.040000 -0.040000 0.040000
v 0.040000 0.040000 0.040000
v 0.040000 -0.040000 -0.040000
v 0.040000 0.040000 -0.040000
v -0.019799 0.040000 -0.019799
v -0.019799 0.060000 -0.019799
v 0.012712 0.040000 -0.024948
v 0.012712 0.060000 -0.024948
v 0.027655 0.040000 0.004380
v 0.027655 0.060000 0.004380
v 0.004380 0.040000 0.027655
v 0.004380 0.060000 0.027655
v -0.024948 0.040000 0.012712
v -0.024948 0.060000 0.012712
vt 0.375000 0.000000
vt 0.625000 0.000000
vt 0.625000 0.250000
vt 0.375000 0.250000
vt 0.625000 0.500000
vt 0.375000 0.500000
vt 0.625000 0.750000
vt 0.375000 0.750000
vt 0.625000 1.000000
vt 0.375000 1.000000
vt 0.125000 0.500000
vt 0.125000 0.750000
vt 0.875000 0.500000
vt 0.875000 0.750000
vt 0.750000 0.490000
vt 0.978254 0.324164
vt 0.891068 0.055836
vt 0.608932 0.055836
vt 0.521746 0.324164
vt 1.000000 0.500000
vt 1.000000 1.000000
vt 0.800000 1.000000
vt 0.800000 0.500000
vt 0.600000 1.000000
vt 0.600000 0.500000
vt 0.400000 1.000000
vt 0.400000 0.500000
vt 0.478254 0.324164
vt 0.250000 0.490000
vt 0.021746 0.324164
vt 0.108932 0.055836
vt 0.391068 0.055836
vt 0.200000 1.000000
vt 0.200000 0.500000
vt 0.000000 1.000000
vt 0.000000 0.500000
vn -1.0000 0.0000 0.0000
vn 0.0000 0.0000 -1.0000
vn 1.0000 0.0000 0.0000
vn 0.0000 0.0000 1.0000
vn 0.0000 -1.0000 0.0000
vn 0.0000 1.0000 0.0000
vn -0.1564 0.0000 -0.9877
vn 0.8910 0.0000 -0.4540
vn 0.7071 0.0000 0.7071
vn -0.4540 0.0000 0.8910
vn -0.9877 0.0000 -0.1564
usemtl Red
s off
f 1/1/1 2/2/1 4/3/1 3/4/1
f 3/4/2 4/3/2 8/5/2 7/6/2
f 7/6/3 8/5/3 6/7/3 5/8/3
f 5/8/4 6/7/4 2/9/4 1/10/4
f 3/11/5 7/6/5 5/8/5 1/12/5
f 8/5/6 4/13/6 2/14/6 6/7/6
f 9/15/5 11/16/5 13/17/5 15/18/5 17/19/5
usemtl Blue
f 9/20/7 10/21/7 12/22/7 11/23/7
f 11/23/8 12/22/8 14/24/8 13/25/8
f 13/25/9 14/24/9 16/26/9 15/27/9
f 12/28/6 10/29/6 18/30/6 16/31/6 14/32/6
f 15/27/10 16/26/10 18/33/10 17/34/10
f 17/34/11 18/33/11 10/35/11 9/36/11
