# Blender v3.4.1 OBJ File: 'U_cube_cap_rotated45.blend'
# www.blender.org
mtllib U_cube_cap_rotated45.mtl
o Cap_Cube.006
v -0.040000 -0.040000 0.040000
v -0.040000 0.040000 0.040000
v -0.040000 -0.040000 -0.040000
v -0.040000 0.040000 -0.040000
v 0.040000 -0.040000 0.040000
v 0.040000 0.040000 0.040000
v 0.040000 -0.040000 -0.040000
v 0.040000 0.040000 -0.040000
v -0.002121 0.060000 -0.031820
v -0.003818 0.040000 0.017395
v -0.003818 0.060000 0.017395
v -0.002121 0.040000 -0.031820
v 0.031820 0.060000 0.002121
v -0.017395 0.040000 0.003818
v -0.017395 0.060000 0.003818
v 0.031820 0.040000 0.002121
v -0.036062 0.060000 0.002121
v -0.036062 0.040000 0.002121
v -0.002121 0.060000 0.036062
v -0.002121 0.040000 0.036062
v 0.021637 0.060000 -0.008061
v 0.008061 0.060000 -0.021637
v 0.021637 0.040000 -0.008061
v 0.008061 0.040000 -0.021637
vt 0.375000 0.000000
vt 0.625000 0.000000
vt 0.625000 0.250000
vt 0.375000 0.250000
vt 0.625000 0.500000
vt 0.375000 0.500000
vt 0.625000 0.750000
vt 0.375000 0.750000
vt 0.625000 1.000000
vt 0.375000 1.000000
vt 0.125000 0.500000
vt 0.125000 0.750000
vt 0.875000 0.500000
vt 0.875000 0.750000
vt 0.375000 0.750000
vt 0.125000 0.750000
vt 0.125000 0.500000
vt 0.375000 0.500000
vt 0.375000 0.575000
vt 0.187500 0.575000
vt 0.187500 0.675000
vt 0.375000 0.675000
vt 0.625000 0.575000
vt 0.625000 0.500000
vt 0.875000 0.500000
vt 0.875000 0.750000
vt 0.625000 0.750000
vt 0.625000 0.675000
vt 0.812500 0.675000
vt 0.812500 0.575000
vt 0.625000 1.000000
vt 0.375000 1.000000
vt 0.375000 0.000000
vt 0.625000 0.000000
vt 0.625000 0.250000
vt 0.375000 0.250000
vt 0.625000 0.000000
vt 0.375000 0.000000
vt 0.375000 0.250000
vt 0.625000 0.250000
vt 0.375000 0.437500
vt 0.625000 0.437500
vt 0.375000 0.812500
vt 0.375000 1.000000
vt 0.625000 1.000000
vt 0.625000 0.812500
vn -1.0000 0.0000 0.0000
vn 0.0000 0.0000 -1.0000
vn 1.0000 0.0000 0.0000
vn 0.0000 0.0000 1.0000
vn 0.0000 -1.0000 0.0000
vn 0.0000 1.0000 0.0000
vn 0.7071 0.0000 0.7071
vn -0.7071 0.0000 0.7071
vn 0.7071 0.0000 -0.7071
vn -0.7071 0.0000 -0.7071
usemtl Red
s off
f 1/1/1 2/2/1 4/3/1 3/4/1
f 3/4/2 4/3/2 8/5/2 7/6/2
f 7/6/3 8/5/3 6/7/3 5/8/3
f 5/8/4 6/7/4 2/9/4 1/10/4
f 3/11/5 7/6/5 5/8/5 1/12/5
f 8/5/6 4/13/6 2/14/6 6/7/6
f 16/15/5 20/16/5 18/17/5 12/18/5 24/19/5 14/20/5 10/21/5 23/22/5
usemtl Blue
f 22/23/6 9/24/6 17/25/6 19/26/6 13/27/6 21/28/6 11/29/6 15/30/6
f 16/15/7 13/27/7 19/31/7 20/32/7
f 20/33/8 19/34/8 17/35/8 18/36/8
f 13/27/9 16/15/9 23/22/9 21/28/9
f 24/19/9 12/18/9 9/24/9 22/23/9
f 18/36/10 17/35/10 9/24/10 12/18/10
f 11/37/9 10/38/9 14/39/9 15/40/9
f 24/41/7 22/42/7 15/40/7 14/39/7
f 23/43/10 10/44/10 11/45/10 21/46/10
