ply
format ascii 1.0
comment VCGLIB generated
element vertex 24
property float x
property float y
property float z
property float nx
property float ny
property float nz
property uchar red
property uchar green
property uchar blue
property uchar alpha
element face 40
property list uchar int vertex_indices
end_header
40 -40 40 0.816496580927726 -0.408248290463863 0.408248290463863 204 204 204 225 
40 40 40 0.3333333333333333 0.6666666666666666 0.6666666666666666 204 204 204 129 
40 -40 -40 0.3333333333333333 -0.6666666666666666 -0.6666666666666666 204 204 204 129 
40 40 -40 0.816496580927726 0.408248290463863 -0.408248290463863 204 204 204 225 
-40 -40 40 -0.3333333333333333 -0.6666666666666666 0.6666666666666666 204 204 204 129 
-40 40 40 -0.816496580927726 0.408248290463863 0.408248290463863 204 204 204 225 
-40 -40 -40 -0.816496580927726 -0.408248290463863 -0.408248290463863 204 204 204 225 
-40 40 -40 -0.3333333333333333 0.6666666666666666 -0.6666666666666666 204 204 204 129 
-21 60 -24 -0.2460256421287036 0.5166538484702776 -0.8200854737623454 204 204 204 64 
15 40 9.6 -0.2320059162262966 -0.8700221858486124 -0.4350110929243062 204 204 204 129 
15 60 9.6 -0.4277157618381226 0.4170228677921695 -0.8019670534464798 204 204 204 64 
-21 40 -24 -0.2365506918053373 -0.5677216603328096 -0.788502306017791 204 204 204 130 
-21 60 24 -0.4377813040633343 0.5253375648760011 0.7296355067722238 204 204 204 225 
15 40 -9.6 -0.4538646407303767 -0.7829165052599 0.4254981006847282 204 204 204 64 
15 60 -9.6 -0.1531679162134967 0.8041315601208577 0.5743796858006126 204 204 204 55 
-21 40 24 -0.1259038059505158 -0.5287959849921663 0.8393587063367719 204 204 204 129 
27 60 -24 0.7702340943102745 0.5083545022447812 -0.3851170471551372 204 204 204 129 
27 40 -24 0.3438152102014963 -0.6394962909747832 -0.6876304204029926 204 204 204 64 
27 60 24 0.3259906833194042 0.6845804349707488 0.6519813666388083 204 204 204 55 
27 40 24 0.7335511488571663 -0.5721698961085898 0.3667755744285832 204 204 204 64 
-21 60 9.6 -0.2004414573445789 0.8418541208472313 -0.5011036433614473 204 204 204 225 
-21 60 -9.6 -0.3087537605472192 0.5557567689849945 0.7718844013680479 204 204 204 130 
-21 40 9.6 -0.3522349768381735 -0.3170114791543561 -0.8805874420954337 204 204 204 129 
-21 40 -9.6 -0.2928537063287114 -0.6149927832902939 0.7321342658217784 204 204 204 64 
3 1 0 3 
3 3 0 2 
3 3 2 7 
3 7 2 6 
3 7 6 5 
3 5 6 4 
3 5 4 1 
3 1 4 0 
3 6 2 4 
3 4 2 0 
3 3 7 1 
3 1 7 5 
3 15 22 9 
3 15 9 19 
3 19 9 13 
3 19 13 17 
3 17 13 23 
3 17 23 11 
3 21 14 8 
3 8 14 16 
3 16 14 18 
3 18 14 10 
3 10 20 18 
3 18 20 12 
3 12 15 18 
3 18 15 19 
3 18 19 16 
3 16 19 17 
3 15 12 22 
3 22 12 20 
3 11 23 8 
3 8 23 21 
3 16 17 8 
3 8 17 11 
3 9 10 13 
3 13 10 14 
3 21 23 14 
3 14 23 13 
3 9 22 10 
3 10 22 20 
