ply
format ascii 1.0
comment VCGLIB generated
element vertex 22
property float x
property float y
property float z
property float nx
property float ny
property float nz
property uchar red
property uchar green
property uchar blue
property uchar alpha
element face 36
property list uchar int vertex_indices
end_header
40 -40 40 0.816496580927726 -0.408248290463863 0.408248290463863 204 204 204 225 
40 40 40 0.3333333333333333 0.6666666666666666 0.6666666666666666 204 204 204 129 
40 -40 -40 0.3333333333333333 -0.6666666666666666 -0.6666666666666666 204 204 204 129 
40 40 -40 0.816496580927726 0.408248290463863 -0.408248290463863 204 204 204 225 
-40 -40 40 -0.3333333333333333 -0.6666666666666666 0.6666666666666666 204 204 204 129 
-40 40 40 -0.816496580927726 0.408248290463863 0.408248290463863 204 204 204 225 
-40 -40 -40 -0.816496580927726 -0.408248290463863 -0.408248290463863 204 204 204 225 
-40 40 -40 -0.3333333333333333 0.6666666666666666 -0.6666666666666666 204 204 204 129 
1.863 60 -13.177 -0.6139405277874388 0.6221429813557598 -0.4858138934714074 204 204 204 55 
21.662 40 -21.662 0.3446630732065222 -0.5282693058520249 -0.7759760991567042 204 204 204 129 
1.863 40 -13.177 -0.5187830100676653 -0.8337599927569421 -0.1889668302720786 204 204 204 55 
21.662 60 -21.662 0.7759837554228386 0.5282558405839933 -0.344666473868241 204 204 204 225 
-26.421 60 15.107 -0.7378631624700267 0.5962928207741236 -0.3162164217161562 204 204 204 130 
-4.727 40 -19.768 -0.361516257651066 -0.3971168938675862 -0.8435663388607492 204 204 204 130 
-26.421 40 15.107 -0.7378631624700267 -0.5962928207741237 -0.3162164217161562 204 204 204 64 
-4.727 60 -19.768 -0.3069780562769896 0.6266337274156495 -0.7163062505866963 204 204 204 64 
13.177 60 -1.863 0.4921675818094947 0.3630011934877202 0.7912023792572197 204 204 204 64 
19.768 40 4.727 0.792415489094619 -0.5067077961862055 0.3395952030389334 204 204 204 64 
13.177 40 -1.863 0.2852720861555428 -0.8416092101980949 0.4585997973944204 204 204 204 129 
19.768 60 4.727 0.4853597329262215 0.8492114793567265 0.2080043100095454 204 204 204 129 
-15.107 60 26.421 0.06899534157867594 0.7807237066854424 0.6210556630929188 204 204 204 129 
-15.107 40 26.421 0.5163908324947007 -0.3651560950131551 0.7745976596854482 204 204 204 225 
3 1 0 3 
3 3 0 2 
3 3 2 7 
3 7 2 6 
3 7 6 5 
3 5 6 4 
3 5 4 1 
3 1 4 0 
3 6 2 4 
3 4 2 0 
3 3 7 1 
3 1 7 5 
3 10 18 14 
3 14 18 21 
3 18 10 17 
3 17 10 9 
3 9 10 13 
3 16 8 20 
3 20 8 12 
3 12 14 20 
3 20 14 21 
3 20 21 16 
3 16 21 18 
3 12 8 14 
3 14 8 10 
3 11 9 15 
3 15 9 13 
3 19 16 17 
3 17 16 18 
3 13 10 15 
3 15 10 8 
3 16 19 8 
3 8 19 15 
3 15 19 11 
3 19 17 11 
3 11 17 9 
