ply
format ascii 1.0
comment VCGLIB generated
element vertex 22
property float x
property float y
property float z
property float nx
property float ny
property float nz
property uchar red
property uchar green
property uchar blue
property uchar alpha
element face 40
property list uchar int vertex_indices
end_header
-40 -40 40 -0.816496580927726 -0.408248290463863 0.408248290463863 204 204 204 225 
-40 40 40 -0.4297589095195772 0.2766521253175532 0.8595178190391545 204 204 204 55 
0 16.679 -32.904 5.233402836371307e-17 0.4320260992294972 0.9018611032662095 204 204 204 129 
-40 -40 -40 -0.3333333333333333 -0.6666666666666666 -0.6666666666666666 204 204 204 129 
8.622 15 -9.08 -0.9326534827706692 0.332744937101116 -0.1394212606072525 204 204 204 129 
-40 40 -40 -0.871987453613796 0.2225923424674803 -0.435993726806898 204 204 204 64 
40 -40 40 0.3333333333333333 -0.6666666666666666 0.6666666666666666 204 204 204 129 
40 40 40 0.8570570107371693 0.2860360124754124 0.4285285053685847 204 204 204 240 
19.839 15.312 -9.251000000000001 -0.5298619817955208 0.8480746140343695 0.00396601540318697 204 204 204 64 
40 -40 -40 0.816496580927726 -0.408248290463863 -0.408248290463863 204 204 204 225 
8.800000000000001 16.568 31.365 -0.4960337765354508 0.7376152658587081 -0.4581203030953397 204 204 204 129 
40 40 -40 0.435993726806898 0.2225923424674803 -0.871987453613796 204 204 204 64 
-19.839 15.312 -9.251000000000001 0.5123957922720439 0.8235110274534249 0.2434751316346483 204 204 204 225 
-8.622 15 -9.08 0.7883914203297863 0.5686526714831984 -0.2346766020833859 204 204 204 240 
-8.800000000000001 16.568 31.365 0.7504486379552306 0.5636691715607741 -0.3451143387677914 204 204 204 130 
-19.839 40 -9.251000000000001 0.3293775292857409 0.9373212738668997 0.1137509242079091 204 204 204 55 
-8.622 40 -9.08 0.483746654189084 0.8652762054012721 -0.1314772334940244 204 204 204 225 
8.622 40 -9.08 -0.4731402298424357 0.8428004809576459 -0.2565651422196861 204 204 204 129 
0 40 -32.904 0 0.9474836086040664 0.3198043330328972 204 204 204 129 
-8.800000000000001 40 31.365 0.6556337342328318 0.7039287684850153 -0.2731825313505284 204 204 204 55 
8.800000000000001 40 31.365 -0.8000420049052409 0.5768322970284194 -0.1649160134496344 204 204 204 129 
19.839 40 -9.251000000000001 -0.3242663723989481 0.9262373575424001 0.192186568792147 204 204 204 64 
3 0 1 5 
3 0 5 3 
3 3 5 11 
3 3 11 9 
3 9 11 7 
3 9 7 6 
3 6 7 1 
3 6 1 0 
3 3 9 6 
3 3 6 0 
3 19 16 1 
3 1 16 15 
3 1 15 5 
3 5 15 18 
3 5 18 11 
3 11 18 21 
3 11 21 7 
3 7 21 17 
3 7 17 20 
3 19 1 7 
3 19 7 20 
3 10 14 19 
3 10 19 20 
3 19 14 13 
3 19 13 16 
3 13 14 10 
3 13 10 4 
3 4 10 20 
3 4 20 17 
3 2 8 21 
3 2 21 18 
3 13 12 15 
3 13 15 16 
3 8 4 17 
3 8 17 21 
3 15 12 2 
3 15 2 18 
3 8 2 12 
3 8 12 13 
3 8 13 4 
