# Blender v3.4.1 OBJ File: 'Arrow_cube_cap_rotated45.blend'
# www.blender.org
mtllib Arrow_cube_cap_rotated45.mtl
o Cap_Cube.006
v -0.040000 -0.040000 0.040000
v -0.040000 0.040000 0.040000
v -0.040000 -0.040000 -0.040000
v -0.040000 0.040000 -0.040000
v 0.040000 -0.040000 0.040000
v 0.040000 0.040000 0.040000
v 0.040000 -0.040000 -0.040000
v 0.040000 0.040000 -0.040000
v -0.001863 0.060000 -0.013177
v -0.021662 0.040000 -0.021662
v -0.001863 0.040000 -0.013177
v -0.021662 0.060000 -0.021662
v 0.026421 0.060000 0.015107
v 0.004727 0.040000 -0.019768
v 0.026421 0.040000 0.015107
v 0.004727 0.060000 -0.019768
v -0.013177 0.060000 -0.001863
v -0.019768 0.040000 0.004727
v -0.013177 0.040000 -0.001863
v -0.019768 0.060000 0.004727
v 0.015107 0.060000 0.026421
v 0.015107 0.040000 0.026421
vt 0.375000 0.000000
vt 0.625000 0.000000
vt 0.625000 0.250000
vt 0.375000 0.250000
vt 0.625000 0.500000
vt 0.375000 0.500000
vt 0.625000 0.750000
vt 0.375000 0.750000
vt 0.625000 1.000000
vt 0.375000 1.000000
vt 0.125000 0.500000
vt 0.125000 0.750000
vt 0.875000 0.500000
vt 0.875000 0.750000
vt 0.125000 0.500000
vt 0.375000 0.500000
vt 0.375000 0.750000
vt 0.125000 0.750000
vt 0.846000 0.130000
vt 0.654000 0.130000
vt 0.542154 0.130000
vt 0.750000 0.490000
vt 0.957846 0.130000
vt 0.625000 0.500000
vt 0.875000 0.500000
vt 0.875000 0.750000
vt 0.625000 0.750000
vt 0.625000 1.000000
vt 0.375000 1.000000
vt 0.375000 0.000000
vt 0.625000 0.000000
vt 0.625000 0.250000
vt 0.375000 0.250000
vt 1.000000 0.500000
vt 1.000000 1.000000
vt 0.666667 1.000000
vt 0.666667 0.500000
vt 0.423020 1.000000
vt 0.333333 1.000000
vt 0.333333 0.500000
vt 0.423020 0.500000
vt 0.576980 0.500000
vt 0.576980 1.000000
vt 0.042154 0.130000
vt 0.154000 0.130000
vt 0.346000 0.130000
vt 0.457846 0.130000
vt 0.250000 0.490000
vt -0.000000 1.000000
vt -0.000000 0.500000
vn -1.0000 0.0000 0.0000
vn 0.0000 0.0000 -1.0000
vn 1.0000 0.0000 0.0000
vn 0.0000 0.0000 1.0000
vn 0.0000 -1.0000 0.0000
vn 0.0000 1.0000 0.0000
vn 0.7071 0.0000 0.7071
vn -0.7071 0.0000 0.7071
vn 0.7071 0.0000 -0.7071
vn 0.0716 0.0000 -0.9974
vn -0.9974 0.0000 0.0716
usemtl Red
s off
f 1/1/1 2/2/1 4/3/1 3/4/1
f 3/4/2 4/3/2 8/5/2 7/6/2
f 7/6/3 8/5/3 6/7/3 5/8/3
f 5/8/4 6/7/4 2/9/4 1/10/4
f 3/11/5 7/6/5 5/8/5 1/12/5
f 8/5/6 4/13/6 2/14/6 6/7/6
f 19/15/5 11/16/5 15/17/5 22/18/5
f 11/19/5 19/20/5 18/21/5 10/22/5 14/23/5
usemtl Blue
f 9/24/6 17/25/6 21/26/6 13/27/6
f 15/17/7 13/27/7 21/28/7 22/29/7
f 22/30/8 21/31/8 17/32/8 19/33/8
f 9/24/9 13/27/9 15/17/9 11/16/9
f 10/34/10 12/35/10 16/36/10 14/37/10
f 17/38/7 20/39/7 18/40/7 19/41/7
f 11/42/7 14/37/7 16/36/7 9/43/7
f 20/44/6 17/45/6 9/46/6 16/47/6 12/48/6
f 18/40/11 20/39/11 12/49/11 10/50/11
