ply
format ascii 1.0
comment VCGLIB generated
element vertex 96
property float x
property float y
property float z
property float nx
property float ny
property float nz
property uchar red
property uchar green
property uchar blue
property uchar alpha
element face 184
property list uchar int vertex_indices
end_header
40 -40 40 0.816496580927726 -0.408248290463863 0.408248290463863 204 204 204 225 
40 40 40 0.3333333333333333 0.6666666666666666 0.6666666666666666 204 204 204 129 
40 -40 -40 0.3333333333333333 -0.6666666666666666 -0.6666666666666666 204 204 204 129 
40 40 -40 0.816496580927726 0.408248290463863 -0.408248290463863 204 204 204 225 
-40 -40 40 -0.3333333333333333 -0.6666666666666666 0.6666666666666666 204 204 204 129 
-40 40 40 -0.816496580927726 0.408248290463863 0.408248290463863 204 204 204 225 
-40 -40 -40 -0.816496580927726 -0.408248290463863 -0.408248290463863 204 204 204 225 
-40 40 -40 -0.3333333333333333 0.6666666666666666 -0.6666666666666666 204 204 204 129 
19.799 40 -19.799 0.03357371777214432 -0.9988157046103981 -0.03521354424919851 204 204 204 212 
19.799 60 -19.799 0.7237253128812725 0.009495675015302988 -0.6900228283549088 204 204 204 225 
16.78 40 -22.415 0.5800010836474929 -0.009496664801957645 -0.8145603454166996 204 204 204 225 
16.78 60 -22.415 0.03007840223160821 0.9988156041613605 -0.03824498140894015 204 204 204 212 
13.419 40 -24.575 0.4579242064166185 -0.03775585081905006 -0.888189122263181 204 204 204 129 
13.419 60 -24.575 0.5000377200564611 0.009491435044462957 -0.8659516101847338 204 204 204 225 
9.785 40 -26.235 0.3258389526516476 -0.08403737428269813 -0.9416829066403123 204 204 204 129 
9.785 60 -26.235 0.3714568356221826 0.03778440964970298 -0.9276810646213376 204 204 204 129 
5.952 40 -27.36 0.1871865177855945 -0.1465243205642403 -0.9713350766046138 204 204 204 129 
5.952 60 -27.36 0.234907387823635 0.08403429731148954 -0.9683784157142499 204 204 204 129 
1.997 40 -27.929 0.04639937115099792 -0.2221952210039247 -0.9738975213644447 204 204 204 129 
1.997 60 -27.929 0.09413753184891357 0.1464974350693069 -0.9847215985320465 204 204 204 129 
-1.997 40 -27.929 -0.09058222512926904 -0.3065599159141653 -0.9475314656755892 204 204 204 129 
-1.997 60 -27.929 -0.0463985779495 0.2222683471582269 -0.9738808724971521 204 204 204 129 
-5.952 40 -27.36 -0.2166771417763426 -0.3939514108101939 -0.8932263443004201 204 204 204 129 
-5.952 60 -27.36 -0.180120538206625 0.3065140091174457 -0.934668793707646 204 204 204 129 
-9.785 40 -26.235 -0.3263334810483667 -0.4788514425041549 -0.8149894202739968 204 204 204 129 
-9.785 60 -26.235 -0.3005491893132767 0.3939710422545923 -0.868594843795404 204 204 204 129 
-13.419 40 -24.575 -0.4153899073990969 -0.5567505660467705 -0.7193608496697401 204 204 204 129 
-13.419 60 -24.575 -0.40228737221515 0.4788885404629546 -0.7802759998676687 204 204 204 129 
-16.78 40 -22.415 -0.4826534628171635 -0.624835729443787 -0.6136985791421158 204 204 204 129 
-16.78 60 -22.415 -0.4818276924768608 0.5567227222396481 -0.6766844798755912 204 204 204 129 
-19.799 40 -19.799 -0.529176900692963 -0.6822148420288948 -0.5045341584952205 204 204 204 129 
-19.799 60 -19.799 -0.5387658429126949 0.6248322497832089 -0.5650805483658298 204 204 204 129 
-22.415 40 -16.78 -0.5573674404210515 -0.7292712545509403 -0.3968689628128953 204 204 204 129 
-22.415 60 -16.78 -0.5746993795823188 0.6822264956429571 -0.4519818931665603 204 204 204 129 
-24.575 40 -13.419 -0.5701584390650163 -0.7671431910767941 -0.2939569334910427 204 204 204 129 
-24.575 60 -13.419 -0.5925367803812356 0.7292662588277135 -0.3421562327809763 204 204 204 129 
-26.235 40 -9.785 -0.5704624883471716 -0.7972513348017275 -0.1973901176493309 204 204 204 129 
-26.235 60 -9.785 -0.5954983507892604 0.7671539422024697 -0.2384461011853224 204 204 204 129 
-27.36 40 -5.952 -0.5607532539666662 -0.8209008231120655 -0.1080630685281923 204 204 204 129 
-27.36 60 -5.952 -0.5866234719017591 0.7972597082447699 -0.1423020021763234 204 204 204 129 
-27.929 40 -1.997 -0.5429520612179087 -0.8393651848853958 -0.02586784918638445 204 204 204 129 
-27.929 60 -1.997 -0.5685020772638949 0.8208847132930788 -0.05434772882445492 204 204 204 129 
-27.929 40 1.997 -0.5186682965023214 -0.8535365566822286 0.04958371315689186 204 204 204 129 
-27.929 60 1.997 -0.5429295460128273 0.8393797817079325 0.0258667764951267 204 204 204 129 
-27.36 40 5.952 -0.4888627158007827 -0.864262851987601 0.1185873845488686 204 204 204 129 
-27.36 60 5.952 -0.5116211276537371 0.853535523128489 0.0985947893962705 204 204 204 129 
-26.235 40 9.785 -0.4543521584188704 -0.872046962861654 0.1819291364896749 204 204 204 129 
-26.235 60 9.785 -0.475388892508409 0.8642612240790906 0.1644929707706086 204 204 204 129 
-24.575 40 13.419 -0.4155515326341453 -0.877346796269719 0.2399573353758391 204 204 204 129 
-24.575 60 13.419 -0.4349993791356131 0.872053443808845 0.2242728946902966 204 204 204 129 
-22.415 40 16.78 -0.3727291795804071 -0.8804217431395782 0.2931390675027524 204 204 204 129 
-22.415 60 16.78 -0.3908976873463765 0.877341628418119 0.2783355260686242 204 204 204 129 
-19.799 40 19.799 -0.3259300448560991 -0.8814242220076784 0.3418493041067363 204 204 204 129 
-19.799 60 19.799 -0.3432053621046313 0.8804176383331871 0.327222953862412 204 204 204 129 
-16.78 40 22.415 -0.275053150550442 -0.8804132198635848 0.3862878805524589 204 204 204 129 
-16.78 60 22.415 -0.291980672421071 0.8814284257369606 0.3712562689509803 204 204 204 129 
-13.419 40 24.575 -0.2198942068691031 -0.8773475697009159 0.4265064826298712 204 204 204 129 
-13.419 60 24.575 -0.2371280626573131 0.8804176956751469 0.4106518757322966 204 204 204 129 
-9.785 40 26.235 -0.1600337792156693 -0.8720558200329587 0.4625017148688145 204 204 204 129 
-9.785 60 26.235 -0.1783766096444796 0.8773421943208471 0.4454800323202174 204 204 204 129 
-5.952 40 27.36 -0.09519594138503891 -0.8642438753109709 0.4939840652605013 204 204 204 129 
-5.952 60 27.36 -0.1153724318264387 0.872057828461828 0.4756094467027486 204 204 204 129 
-1.997 40 27.929 -0.0247928273612728 -0.8535699788920057 0.5203879387973313 204 204 204 129 
-1.997 60 27.929 -0.04787463391815913 0.8642435118344876 0.5007905467150854 204 204 204 129 
1.997 40 27.929 0.05173349314926499 -0.839329407117002 0.5411559775473213 204 204 204 129 
1.997 60 27.929 0.02479369725105831 0.8535588218617205 0.5204061973099999 204 204 204 129 
5.952 40 27.36 0.1346170612468104 -0.8209240502870129 0.5549431957251466 204 204 204 129 
5.952 60 27.36 0.1028652514961246 0.8393428788911513 0.5337811084043281 204 204 204 129 
9.785 40 26.235 0.2243952725549506 -0.797239015954926 0.5604076311884151 204 204 204 129 
9.785 60 26.235 0.1867301932081514 0.8209167309397161 0.5396550340798242 204 204 204 129 
13.419 40 24.575 0.3207773162315915 -0.7671419825234304 0.5555133590124348 204 204 204 129 
13.419 60 24.575 0.2766341266233697 0.7972313594687476 0.5365591481532469 204 204 204 129 
16.78 40 22.415 0.4229692188038365 -0.7292859531837174 0.5378094815391313 204 204 204 129 
16.78 60 22.415 0.3720721648303952 0.7671451056288308 0.5225425256073933 204 204 204 129 
19.799 40 19.799 0.5291769006929629 -0.6822148420288947 0.5045341584952204 204 204 204 129 
19.799 60 19.799 0.4721488139894428 0.7292755160189337 0.4952097729080884 204 204 204 129 
22.415 40 16.78 0.63601244519288 -0.6248193313144927 0.4528675002420507 204 204 204 129 
22.415 60 16.78 0.5747050373122425 0.6822187816427323 0.4519863427824339 204 204 204 129 
24.575 40 13.419 0.7383262524486245 -0.5567520368549099 0.3806593154029981 204 204 204 129 
24.575 60 13.419 0.6761216826029262 0.6248442414003067 0.3904217518313539 204 204 204 129 
26.235 40 9.785 0.8296262873782261 -0.4788670916051734 0.28706537908397 204 204 204 129 
26.235 60 9.785 0.7711772786905968 0.5567172088896178 0.308790469667571 204 204 204 129 
27.36 40 5.952 0.9025374864913548 -0.393922535095762 0.1739284962896986 204 204 204 129 
27.36 60 5.952 0.8531535357345941 0.4788508233537865 0.2069563563579566 204 204 204 129 
27.929 40 1.997 0.9507600269462431 -0.30659998375214 0.0452970321805586 204 204 204 129 
27.929 60 1.997 0.9149536783065599 0.3939659144860537 0.08746784995907791 204 204 204 129 
27.929 40 -1.997 0.9705841423078421 -0.2221647533513975 -0.09278601763661982 204 204 204 129 
27.929 60 -1.997 0.9507852435255398 0.3065215991234838 -0.04529823357330916 204 204 204 129 
27.36 40 -5.952 0.9613253284158005 -0.146536761321948 -0.2331964633683964 204 204 204 129 
27.36 60 -5.952 0.9573857939575208 0.2221999159500838 -0.1844983438410853 204 204 204 129 
26.235 40 -9.785 0.9250603378928808 -0.08403383606050722 -0.3704074589617024 204 204 204 129 
26.235 60 -9.785 0.9348246642648218 0.14653556545417 -0.3234658794049071 204 204 204 129 
24.575 40 -13.419 0.8653731663934172 -0.0377557064772954 -0.4997037017219619 204 204 204 129 
24.575 60 -13.419 0.8856816189520457 0.08399895217135167 -0.456631411408149 204 204 204 129 
22.415 40 -16.78 0.7859955111674017 -0.00949707362673116 -0.6181592529577012 204 204 204 225 
22.415 60 -16.78 0.8140159627457946 0.03776571111752576 -0.5796134603844402 204 204 204 129 
3 1 0 3 
3 3 0 2 
3 3 2 7 
3 7 2 6 
3 7 6 5 
3 5 6 4 
3 5 4 1 
3 1 4 0 
3 6 2 4 
3 4 2 0 
3 3 7 1 
3 1 7 5 
3 10 8 12 
3 12 8 14 
3 14 8 16 
3 16 8 18 
3 18 8 20 
3 20 8 22 
3 22 8 24 
3 24 8 26 
3 26 8 28 
3 28 8 30 
3 30 8 32 
3 32 8 34 
3 34 8 36 
3 36 8 38 
3 38 8 40 
3 40 8 42 
3 42 8 44 
3 44 8 46 
3 46 8 48 
3 48 8 50 
3 50 8 52 
3 52 8 54 
3 54 8 56 
3 56 8 58 
3 58 8 60 
3 60 8 62 
3 62 8 64 
3 64 8 66 
3 66 8 68 
3 68 8 70 
3 70 8 72 
3 72 8 74 
3 74 8 76 
3 76 8 78 
3 78 8 80 
3 80 8 82 
3 82 8 84 
3 84 8 86 
3 86 8 88 
3 88 8 90 
3 90 8 92 
3 92 8 94 
3 9 8 11 
3 11 8 10 
3 11 10 13 
3 13 10 12 
3 13 12 15 
3 15 12 14 
3 15 14 17 
3 17 14 16 
3 17 16 19 
3 19 16 18 
3 19 18 21 
3 21 18 20 
3 21 20 23 
3 23 20 22 
3 23 22 25 
3 25 22 24 
3 25 24 27 
3 27 24 26 
3 27 26 29 
3 29 26 28 
3 29 28 31 
3 31 28 30 
3 31 30 33 
3 33 30 32 
3 33 32 35 
3 35 32 34 
3 35 34 37 
3 37 34 36 
3 37 36 39 
3 39 36 38 
3 39 38 41 
3 41 38 40 
3 41 40 43 
3 43 40 42 
3 43 42 45 
3 45 42 44 
3 45 44 47 
3 47 44 46 
3 47 46 49 
3 49 46 48 
3 49 48 51 
3 51 48 50 
3 51 50 53 
3 53 50 52 
3 53 52 55 
3 55 52 54 
3 55 54 57 
3 57 54 56 
3 57 56 59 
3 59 56 58 
3 59 58 61 
3 61 58 60 
3 61 60 63 
3 63 60 62 
3 63 62 65 
3 65 62 64 
3 65 64 67 
3 67 64 66 
3 67 66 69 
3 69 66 68 
3 69 68 71 
3 71 68 70 
3 71 70 73 
3 73 70 72 
3 73 72 75 
3 75 72 74 
3 75 74 77 
3 77 74 76 
3 77 76 79 
3 79 76 78 
3 79 78 81 
3 81 78 80 
3 81 80 83 
3 83 80 82 
3 83 82 85 
3 85 82 84 
3 85 84 87 
3 87 84 86 
3 87 86 89 
3 89 86 88 
3 89 88 91 
3 91 88 90 
3 91 90 93 
3 93 90 92 
3 9 11 95 
3 95 11 93 
3 93 11 91 
3 91 11 89 
3 89 11 87 
3 87 11 85 
3 85 11 83 
3 83 11 81 
3 81 11 79 
3 79 11 77 
3 77 11 75 
3 75 11 73 
3 73 11 71 
3 71 11 69 
3 69 11 67 
3 67 11 65 
3 65 11 63 
3 63 11 61 
3 61 11 59 
3 59 11 57 
3 57 11 55 
3 55 11 53 
3 53 11 51 
3 51 11 49 
3 49 11 47 
3 47 11 45 
3 45 11 43 
3 43 11 41 
3 41 11 39 
3 39 11 37 
3 37 11 35 
3 35 11 33 
3 33 11 31 
3 31 11 29 
3 29 11 27 
3 27 11 25 
3 25 11 23 
3 23 11 21 
3 21 11 19 
3 19 11 17 
3 17 11 15 
3 15 11 13 
3 93 92 95 
3 95 92 94 
3 95 94 9 
3 9 94 8 
