ply
format ascii 1.0
comment VCGLIB generated
element vertex 98
property float x
property float y
property float z
property float nx
property float ny
property float nz
property uchar red
property uchar green
property uchar blue
property uchar alpha
element face 192
property list uchar int vertex_indices
end_header
-40 -40 40 -0.816496580927726 -0.408248290463863 0.408248290463863 204 204 204 225 
0 15 -30.812 0.0233217254163725 0.196716205634677 0.9801830602312503 204 204 204 129 
-40 40 40 -0.4405336052383298 0.1721938247400209 0.8810672104766596 204 204 204 20 
-40 -40 -40 -0.3333333333333333 -0.6666666666666666 -0.6666666666666666 204 204 204 129 
4.385 15 -30.499 -0.117630517204568 0.1293299354119257 0.9845998320274755 204 204 204 129 
-40 40 -40 -0.8821762787021143 0.1649432224103548 -0.4410881393510572 204 204 204 27 
40 -40 40 0.3333333333333333 -0.6666666666666666 0.6666666666666666 204 204 204 129 
8.680999999999999 15 -29.564 -0.2581158541156799 0.07402539288657235 0.9632738172825636 204 204 204 129 
40 40 40 0.8810672104766596 0.1721938247400209 0.4405336052383298 204 204 204 127 
40 -40 -40 0.816496580927726 -0.408248290463863 -0.408248290463863 204 204 204 225 
12.8 15 -28.028 -0.393380405402192 0.0332656872222433 0.9187737755831078 204 204 204 129 
40 40 -40 0.4406778692395918 0.1703381278876412 -0.8813557384791836 204 204 204 127 
16.658 15 -25.921 -0.5204662899659804 0.008356611007221827 0.8538413248733761 204 204 204 225 
20.178 15 -23.286 -0.03517756592077757 0.9984723200788479 0.04260944604488556 204 204 204 212 
23.286 15 -20.178 -0.755745693207337 0.006272598035070152 0.654835171407624 204 204 204 129 
25.921 15 -16.658 -0.8533992209454608 0.03324240000313369 0.5201968017315294 204 204 204 129 
28.028 15 -12.8 -0.9167601394555895 0.07402884206639995 0.392518250846602 204 204 204 129 
29.564 15 -8.680999999999999 -0.9578169204901421 0.1292890380756213 0.2566536410344914 204 204 204 129 
30.499 15 -4.385 -0.9735349768748378 0.1967281362449282 0.1163085947422025 204 204 204 129 
30.812 15 0 -0.9618141896846003 0.2727448558161609 -0.02288467057174297 204 204 204 129 
30.499 15 4.385 -0.9226518414011805 0.3530208256977577 -0.155209136917529 204 204 204 129 
29.564 15 8.680999999999999 -0.8586416372401956 0.4328793709937278 -0.2744995245270033 204 204 204 129 
28.028 15 12.8 -0.7746761687315704 0.508152869573967 -0.3763741419692889 204 204 204 129 
25.921 15 16.658 -0.6769775235286685 0.5759372975438724 -0.4582550184502646 204 204 204 129 
23.286 15 20.178 -0.5717624616058089 0.6347492989854898 -0.5197893947897506 204 204 204 129 
20.178 15 23.286 -0.4642813565271402 0.6842396998625652 -0.5623689670610437 204 204 204 129 
16.658 15 25.921 -0.3584449173488547 0.7250696555224626 -0.5880401651820308 204 204 204 129 
12.8 15 28.028 -0.2566603379251069 0.7581440590272687 -0.5994522972662857 204 204 204 129 
8.680999999999999 15 29.564 -0.1604728594983193 0.7845995147201968 -0.5988756656145447 204 204 204 129 
4.385 15 30.499 -0.07029430562411314 0.8055212641445756 -0.5883827016557747 204 204 204 129 
0 15 30.812 0.01355371508182097 0.8217785641422392 -0.5696457568733402 204 204 204 129 
-4.385 15 30.499 0.09149384806135295 0.8341526550859779 -0.5438917390252768 204 204 204 129 
-8.680999999999999 15 29.564 0.1636890151204234 0.8432306056437715 -0.512023487776239 204 204 204 129 
-12.8 15 28.028 0.230614740646559 0.8494172694166927 -0.4746652966177432 204 204 204 129 
-16.658 15 25.921 0.2925574277626922 0.8530058619533056 -0.4321934184299608 204 204 204 129 
-20.178 15 23.286 0.349741657195799 0.8542116536112486 -0.384711871478737 204 204 204 64 
-23.286 15 20.178 0.28535724822569 0.9259784910178609 -0.2472550809535511 204 204 204 225 
-25.921 15 16.658 0.437028089388914 0.8494062706725202 -0.2958300803286857 204 204 204 129 
-28.028 15 12.8 0.4835083896955167 0.843229741774685 -0.2349111314532508 204 204 204 129 
-29.564 15 8.680999999999999 0.525324448585595 0.8341642376219798 -0.1679412051605614 204 204 204 129 
-30.499 15 4.385 0.5619126672557864 0.8217780200580017 -0.09452534118974953 204 204 204 129 
-30.812 15 0 0.5924069930556775 0.8055155353575729 -0.01409527851208106 204 204 204 129 
-30.499 15 -4.385 0.6155968909867607 0.7846218918910606 0.07354559519595372 204 204 204 129 
-29.564 15 -8.680999999999999 0.6298689392319163 0.7581419394857756 0.1687777206375505 204 204 204 129 
-28.028 15 -12.8 0.633084909046582 0.7250722384465792 0.2710604120330892 204 204 204 129 
-25.921 15 -16.658 0.6226692272571153 0.6842676971663215 0.3795533586226401 204 204 204 129 
-23.286 15 -20.178 0.5958990369770097 0.6347256009276891 0.4919631584345074 204 204 204 129 
-20.178 15 -23.286 0.5498962996579632 0.575964050802162 0.6048797168082627 204 204 204 129 
-16.658 15 -25.921 0.4827894046094051 0.5081621036656652 0.7132220321856175 204 204 204 129 
-12.8 15 -28.028 0.3939328094074247 0.4328897854406791 0.8108164868411942 204 204 204 129 
-8.680999999999999 15 -29.564 0.2848986698186148 0.3530552452252297 0.8911704336177995 204 204 204 129 
-4.385 15 -30.499 0.1595996105483517 0.2727615890935615 0.9487513266541288 204 204 204 129 
-30.812 40 0 0.9710121618304438 0.2379109264772831 0.02310352008004012 204 204 204 129 
-30.499 40 4.385 0.9263794671074378 0.3599613141117953 -0.1106749080173509 204 204 204 129 
-29.564 40 8.680999999999999 0.8631964960929385 0.4487676181910468 -0.2312994465968488 204 204 204 129 
-30.499 40 -4.385 0.3516371161257929 0.934265649376551 0.05915264117304497 204 204 204 64 
-29.564 40 -8.680999999999999 0.8512023450681954 0.4487812283429697 0.272121253924386 204 204 204 129 
-28.028 40 -12.8 0.7741508836583427 0.5091413919523197 0.3761189337588065 204 204 204 129 
-23.286 40 20.178 0.6985123566933006 0.4007490957824556 -0.5928580350946721 204 204 204 64 
-25.921 40 16.658 0.7151961578200685 0.5462953568066371 -0.4359539413411936 204 204 204 129 
-25.921 40 -16.658 0.6936395084772145 0.5462621194208859 0.4695337359181875 204 204 204 129 
-28.028 40 12.8 0.791214048718539 0.5091353663901071 -0.3387646790933625 204 204 204 129 
-23.286 40 -20.178 0.6110651867788992 0.5639125901844639 0.5555195119330355 204 204 204 129 
-16.658 40 -25.921 0.4359539413411936 0.5462953568066371 0.7151961578200685 204 204 204 129 
-20.178 40 -23.286 0.5257879722351164 0.5638649572988667 0.6368699382002826 204 204 204 129 
-4.385 40 -30.499 0.04229850836607701 0.9342694020504811 0.3540501667592336 204 204 204 64 
-8.680999999999999 40 -29.564 0.2312994465968488 0.4487676181910468 0.8631964960929385 204 204 204 129 
-12.8 40 -28.028 0.3387646790933625 0.5091353663901071 0.791214048718539 204 204 204 129 
8.680999999999999 40 -29.564 -0.272121253924386 0.4487812283429697 0.8512023450681954 204 204 204 129 
4.385 40 -30.499 -0.1547704552117193 0.3599514158834007 0.9200440665517562 204 204 204 129 
20.178 40 -23.286 -0.5991864983232343 0.4544940788939134 0.6590983784515889 204 204 204 64 
21.732 40 -21.732 0 1 0 204 204 204 130 
16.658 40 -25.921 -0.4695337359181875 0.5462621194208859 0.6936395084772145 204 204 204 129 
12.8 40 -28.028 -0.3761189337588065 0.5091413919523197 0.7741508836583427 204 204 204 129 
0 40 -30.812 -0.02310352008004012 0.2379109264772831 0.9710121618304438 204 204 204 129 
-21.732 40 21.732 0.491722266405135 0.7186225890151207 -0.491722266405135 204 204 204 225 
-20.178 40 23.286 0.5304495863709241 0.5218715822585118 -0.6680368911593978 204 204 204 129 
-16.658 40 25.921 0.4359539413411936 0.5462953568066371 -0.7151961578200685 204 204 204 129 
-4.385 40 30.499 0.1106749080173509 0.3599613141117953 -0.9263794671074378 204 204 204 129 
-8.680999999999999 40 29.564 0.2312994465968488 0.4487676181910468 -0.8631964960929385 204 204 204 129 
-12.8 40 28.028 0.3387646790933625 0.5091353663901071 -0.791214048718539 204 204 204 129 
8.680999999999999 40 29.564 -0.272121253924386 0.4487812283429697 -0.8512023450681954 204 204 204 129 
4.385 40 30.499 -0.1547704552117193 0.3599514158834007 -0.9200440665517562 204 204 204 129 
20.178 40 23.286 -0.5555195119330355 0.5639125901844639 -0.6110651867788992 204 204 204 129 
16.658 40 25.921 -0.4695337359181875 0.5462621194208859 -0.6936395084772145 204 204 204 129 
12.8 40 28.028 -0.3761189337588065 0.5091413919523197 -0.7741508836583427 204 204 204 129 
0 40 30.812 -0.008668120769515175 0.9312372725406901 -0.364310315408858 204 204 204 64 
23.286 40 -20.178 -0.6001065897575688 0.6078612344730143 0.5199776923623589 204 204 204 129 
25.921 40 16.658 -0.7151961578200685 0.5462953568066371 -0.4359539413411936 204 204 204 129 
25.921 40 -16.658 -0.6936395084772145 0.5462621194208859 0.4695337359181875 204 204 204 129 
29.564 40 8.680999999999999 -0.8631964960929385 0.4487676181910468 -0.2312994465968488 204 204 204 129 
29.564 40 -8.680999999999999 -0.8512023450681954 0.4487812283429697 0.272121253924386 204 204 204 129 
30.812 40 0 -0.9710121618304438 0.2379109264772831 0.02310352008004012 204 204 204 129 
30.499 40 4.385 -0.9263794671074378 0.3599613141117953 -0.1106749080173509 204 204 204 129 
30.499 40 -4.385 -0.3516371161257929 0.934265649376551 0.05915264117304497 204 204 204 64 
23.286 40 20.178 -0.6368699382002826 0.5638649572988667 -0.5257879722351164 204 204 204 129 
28.028 40 12.8 -0.791214048718539 0.5091353663901071 -0.3387646790933625 204 204 204 129 
28.028 40 -12.8 -0.7741508836583427 0.5091413919523197 0.3761189337588065 204 204 204 129 
3 0 2 5 
3 0 5 3 
3 3 5 11 
3 3 11 9 
3 9 11 8 
3 9 8 6 
3 6 8 2 
3 6 2 0 
3 3 9 6 
3 3 6 0 
3 11 5 65 
3 11 65 74 
3 11 74 69 
3 11 69 68 
3 11 68 73 
3 11 73 72 
3 11 72 70 
3 11 70 71 
3 2 75 58 
3 2 58 59 
3 2 59 61 
3 2 61 54 
3 2 54 53 
3 2 53 52 
3 2 52 55 
3 2 55 5 
3 5 55 56 
3 5 56 57 
3 5 57 60 
3 5 60 62 
3 5 62 64 
3 5 64 63 
3 5 63 67 
3 5 67 66 
3 5 66 65 
3 8 11 94 
3 8 94 92 
3 8 92 93 
3 8 93 90 
3 8 90 96 
3 8 96 88 
3 8 88 95 
3 8 95 83 
3 8 83 84 
3 8 84 85 
3 8 85 81 
3 8 81 82 
3 8 82 86 
3 8 86 2 
3 11 71 87 
3 11 87 89 
3 11 89 97 
3 11 97 91 
3 11 91 94 
3 2 86 78 
3 2 78 79 
3 2 79 80 
3 2 80 77 
3 2 77 76 
3 2 76 75 
3 74 1 4 
3 74 4 69 
3 69 4 7 
3 69 7 68 
3 68 7 10 
3 68 10 73 
3 73 10 12 
3 73 12 72 
3 72 12 13 
3 72 13 70 
3 70 13 14 
3 70 14 87 
3 70 87 71 
3 14 15 89 
3 14 89 87 
3 15 16 97 
3 15 97 89 
3 16 17 91 
3 16 91 97 
3 17 18 94 
3 17 94 91 
3 18 19 92 
3 18 92 94 
3 19 20 93 
3 19 93 92 
3 20 21 90 
3 20 90 93 
3 21 22 96 
3 21 96 90 
3 22 23 88 
3 22 88 96 
3 23 24 95 
3 23 95 88 
3 24 25 83 
3 24 83 95 
3 25 26 84 
3 25 84 83 
3 26 27 85 
3 26 85 84 
3 27 28 81 
3 27 81 85 
3 28 29 82 
3 28 82 81 
3 29 30 86 
3 29 86 82 
3 30 31 78 
3 30 78 86 
3 31 32 79 
3 31 79 78 
3 32 33 80 
3 32 80 79 
3 33 34 77 
3 33 77 80 
3 34 35 76 
3 34 76 77 
3 35 36 58 
3 35 58 75 
3 35 75 76 
3 58 36 37 
3 58 37 59 
3 59 37 38 
3 59 38 61 
3 61 38 39 
3 61 39 54 
3 54 39 40 
3 54 40 53 
3 53 40 41 
3 53 41 52 
3 52 41 42 
3 52 42 55 
3 55 42 43 
3 55 43 56 
3 56 43 44 
3 56 44 57 
3 57 44 45 
3 57 45 60 
3 60 45 46 
3 60 46 62 
3 62 46 47 
3 62 47 64 
3 64 47 48 
3 64 48 63 
3 63 48 49 
3 63 49 67 
3 67 49 50 
3 67 50 66 
3 66 50 51 
3 66 51 65 
3 65 51 1 
3 65 1 74 
3 13 12 10 
3 13 10 7 
3 13 7 4 
3 13 4 1 
3 13 1 51 
3 13 51 50 
3 13 50 49 
3 13 49 48 
3 13 48 47 
3 13 47 46 
3 13 46 45 
3 13 45 44 
3 13 44 43 
3 13 43 42 
3 13 42 41 
3 13 41 40 
3 13 40 39 
3 13 39 38 
3 13 38 37 
3 13 37 36 
3 13 36 35 
3 13 35 34 
3 13 34 33 
3 13 33 32 
3 13 32 31 
3 13 31 30 
3 13 30 29 
3 13 29 28 
3 13 28 27 
3 13 27 26 
3 13 26 25 
3 13 25 24 
3 13 24 23 
3 13 23 22 
3 13 22 21 
3 13 21 20 
3 13 20 19 
3 13 19 18 
3 13 18 17 
3 13 17 16 
3 13 16 15 
3 13 15 14 
