ply
format ascii 1.0
comment VCGLIB generated
element vertex 36
property float x
property float y
property float z
property float nx
property float ny
property float nz
property uchar red
property uchar green
property uchar blue
property uchar alpha
element face 64
property list uchar int vertex_indices
end_header
40 -40 40 0.816496580927726 -0.408248290463863 0.408248290463863 204 204 204 225 
40 40 40 0.3333333333333333 0.6666666666666666 0.6666666666666666 204 204 204 129 
40 -40 -40 0.3333333333333333 -0.6666666666666666 -0.6666666666666666 204 204 204 129 
40 40 -40 0.816496580927726 0.408248290463863 -0.408248290463863 204 204 204 225 
-40 -40 40 -0.3333333333333333 -0.6666666666666666 0.6666666666666666 204 204 204 129 
-40 40 40 -0.816496580927726 0.408248290463863 0.408248290463863 204 204 204 225 
-40 -40 -40 -0.816496580927726 -0.408248290463863 -0.408248290463863 204 204 204 225 
-40 40 -40 -0.3333333333333333 0.6666666666666666 -0.6666666666666666 204 204 204 129 
-8.4 60 -28 -0.7233674947680493 0.3038143478025808 -0.6200292812297565 204 204 204 129 
28 60 -8.4 0.7954621924103343 0.3897764742810639 -0.4640196122393617 204 204 204 225 
-8.4 40 -28 -0.5230164238845071 -0.724900763503927 -0.4482997919010061 204 204 204 225 
28 40 -8.4 0.3674870421759846 -0.3601373013324649 -0.8574697650772973 204 204 204 225 
-8.4 60 28 -0.7275328155138145 0.6111275650316043 0.3117997780773491 204 204 204 129 
-28 60 -8.4 -0.4015218861067849 0.7869828967692983 -0.4684422004579156 204 204 204 225 
-8.4 40 28 -0.4374898797456948 -0.4961135236316179 0.7499826509926196 204 204 204 129 
-28 40 -8.4 -0.5486964434775033 -0.5377225146079533 -0.640145850723754 204 204 204 64 
8.4 60 -28 0.4684422004579156 0.7869828967692983 -0.4015218861067849 204 204 204 225 
28 60 8.4 0.3117997780773491 0.6111275650316043 0.7275328155138145 204 204 204 129 
8.4 40 -28 0.6973794261731212 -0.3954141346401597 -0.5977537938626754 204 204 204 64 
28 40 8.4 0.659283339769293 -0.6460976729739071 0.3845819481987542 204 204 204 129 
8.4 60 28 0.4640196122393617 0.3897764742810639 0.7954621924103343 204 204 204 225 
-28 60 8.4 -0.6200292812297565 0.3038143478025808 0.7233674947680493 204 204 204 129 
8.4 40 28 0.7752351516260824 -0.5372379600768751 0.3322436364111782 204 204 204 129 
-28 40 8.4 -0.5486964434775033 -0.5377225146079533 0.640145850723754 204 204 204 130 
8.4 60 -8.4 0.4860996667118179 0.7262329020674559 -0.4860996667118179 204 204 204 42 
8.4 60 8.4 0.5080398416401856 0.8230245434571006 0.2540199208200928 204 204 204 42 
8.4 40 8.4 0.3255544351349665 -0.6856176403942396 0.651108870269933 204 204 204 55 
8.4 40 -8.4 0.3791831761217525 -0.8440617500470211 -0.3791831761217525 204 204 204 64 
-8.4 60 8.4 -0.3025009866237018 0.9038729480316212 0.3025009866237018 204 204 204 55 
-8.4 60 -8.4 -0.2540199208200928 0.8230245434571006 -0.5080398416401856 204 204 204 42 
-8.4 40 8.4 -0.5120193462750874 -0.6896900594325428 0.5120193462750874 204 204 204 42 
-8.4 40 -8.4 -0.688537880313063 -0.6382746150502093 -0.3442689401565315 204 204 204 64 
2.52 60 8.4 0 1 0 204 204 204 225 
-2.52 40 8.4 0 -1 0 204 204 204 129 
-2.52 60 -8.4 0 1 0 204 204 204 225 
2.52 40 -8.4 0 -1 0 204 204 204 55 
3 1 0 3 
3 3 0 2 
3 3 2 7 
3 7 2 6 
3 7 6 5 
3 5 6 4 
3 5 4 1 
3 1 4 0 
3 6 2 4 
3 4 2 0 
3 3 7 1 
3 1 7 5 
3 30 33 14 
3 14 33 22 
3 22 33 26 
3 27 35 18 
3 18 35 10 
3 10 35 31 
3 31 35 30 
3 30 35 33 
3 27 26 35 
3 35 26 33 
3 23 15 30 
3 30 15 31 
3 11 19 27 
3 27 19 26 
3 20 25 12 
3 12 25 28 
3 28 25 32 
3 8 29 16 
3 16 29 24 
3 24 29 34 
3 24 34 25 
3 25 34 32 
3 28 32 29 
3 29 32 34 
3 12 14 20 
3 20 14 22 
3 16 24 18 
3 18 24 27 
3 20 22 25 
3 25 22 26 
3 14 12 30 
3 30 12 28 
3 10 31 8 
3 8 31 29 
3 16 18 8 
3 8 18 10 
3 21 28 13 
3 13 28 29 
3 9 24 17 
3 17 24 25 
3 13 15 21 
3 21 15 23 
3 19 17 26 
3 26 17 25 
3 23 30 21 
3 21 30 28 
3 13 29 15 
3 15 29 31 
3 9 11 24 
3 24 11 27 
3 17 19 9 
3 9 19 11 
