ply
format ascii 1.0
comment VCGLIB generated
element vertex 36
property float x
property float y
property float z
property float nx
property float ny
property float nz
property uchar red
property uchar green
property uchar blue
property uchar alpha
element face 68
property list uchar int vertex_indices
end_header
-40 -40 40 -0.816496580927726 -0.408248290463863 0.408248290463863 204 204 204 225 
-40 40 40 -0.4389113113923456 0.1917923451529216 0.8778226227846911 204 204 204 42 
-13.859 18.867 -29.698 0.04375033289921362 0.5256605244160308 0.8495686678791017 204 204 204 64 
-40 -40 -40 -0.3333333333333333 -0.6666666666666666 -0.6666666666666666 204 204 204 129 
-29.698 18.867 13.859 0.8264331353224671 0.5568054952302427 -0.08352193318213502 204 204 204 130 
-40 40 -40 -0.8838037637537776 0.1536672833374789 -0.4419018818768888 204 204 204 64 
40 -40 40 0.3333333333333333 -0.6666666666666666 0.6666666666666666 204 204 204 129 
40 40 40 0.8809679575947089 0.172827434495392 0.4404839787973545 204 204 204 55 
40 -40 -40 0.816496580927726 -0.408248290463863 -0.408248290463863 204 204 204 225 
29.698 18.867 13.859 -0.8495686678791018 0.5256605244160309 -0.04375033289921356 204 204 204 64 
40 40 -40 0.4404840617861487 0.1728263769274861 -0.8809681235722975 204 204 204 240 
13.859 18.867 -29.698 0.1831948305155668 0.6181536199766167 0.7644120329914863 204 204 204 129 
-29.698 18.867 -13.859 0.8264331353224672 0.5568054952302427 0.08352193318213497 204 204 204 130 
-13.859 18.867 29.698 0.3131837475025148 0.601075686704075 -0.7352713506954462 204 204 204 64 
13.859 18.867 29.698 -0.08352193318213502 0.5568054952302426 -0.8264331353224671 204 204 204 130 
29.698 18.867 -13.859 -0.9470559159655696 0.3208202285054637 0.01262826260092832 204 204 204 129 
0 15 14.255 -0.04375198275846096 0.7990543471068486 -0.5996648350323297 204 204 204 192 
-14.255 15 0 0.5835629342075985 0.8120679169989528 -4.734712670416902e-17 204 204 204 192 
14.255 15 0 -0.3897791271625499 0.9209080041524854 0.0008245703648904119 204 204 204 240 
0 15 -14.255 4.306931355622988e-17 0.8510795896032515 0.5250366960134892 204 204 204 64 
7.722 18.867 4.158 0.1448258128233985 0.9788007804860414 0.1448258128233985 204 204 204 130 
-7.722 18.867 -4.158 -0.07041411065662992 0.9950295000857371 -0.07041411065662991 204 204 204 129 
-29.698 40 13.859 0.7443486123491037 0.6535508822354865 0.1371728385037679 204 204 204 55 
-29.698 40 -13.859 0.5261408123707627 0.8502219166211891 -0.0172782538129777 204 204 204 240 
-21.779 40 21.779 0.4483917167798149 0.7732333002700418 -0.4483917167798149 204 204 204 225 
-13.859 40 -29.698 0.003793333295347231 0.9586742214746796 0.2844808389020736 204 204 204 64 
13.859 40 -29.698 -0.2397303212920757 0.7002801122956588 0.6724114345966892 204 204 204 55 
21.779 40 -21.779 0 1 0 204 204 204 130 
0 40 -14.255 8.430882299287924e-17 0.3174361635469271 0.9482796433925009 204 204 204 129 
-14.255 40 0 0.8507702515806699 0.5255377998064114 0 204 204 204 130 
-13.859 40 29.698 -0.3901061162276586 0.7172625654167724 -0.577366114639163 204 204 204 64 
13.859 40 29.698 0.01727825381297765 0.8502219166211891 -0.5261408123707626 204 204 204 240 
0 40 14.255 0 0.5255377998064114 -0.8507702515806699 204 204 204 130 
14.255 40 0 -0.9482796433925009 0.3174361635469271 4.215441149643962e-17 204 204 204 129 
29.698 40 13.859 -0.4372560569796128 0.899318156279944 -0.005830473384198535 204 204 204 129 
29.698 40 -13.859 -0.3249796232950029 0.9457110903922485 0.00433335345224669 204 204 204 55 
3 0 1 5 
3 0 5 3 
3 3 5 10 
3 3 10 8 
3 8 10 7 
3 8 7 6 
3 6 7 1 
3 6 1 0 
3 3 8 6 
3 3 6 0 
3 24 22 1 
3 1 22 23 
3 1 23 5 
3 5 23 25 
3 5 25 10 
3 10 25 26 
3 10 26 27 
3 23 22 29 
3 28 26 25 
3 31 32 30 
3 31 30 1 
3 31 1 7 
3 31 7 34 
3 35 33 34 
3 35 34 7 
3 35 7 10 
3 35 10 27 
3 1 30 24 
3 9 14 31 
3 9 31 34 
3 17 12 23 
3 17 23 29 
3 31 14 16 
3 31 16 32 
3 16 14 9 
3 16 9 18 
3 16 18 20 
3 17 21 19 
3 17 19 2 
3 17 2 12 
3 21 20 18 
3 21 18 19 
3 16 20 21 
3 16 21 17 
3 33 18 9 
3 33 9 34 
3 2 19 28 
3 2 28 25 
3 23 12 2 
3 23 2 25 
3 26 11 15 
3 26 15 35 
3 26 35 27 
3 16 13 30 
3 16 30 32 
3 15 18 33 
3 15 33 35 
3 11 19 18 
3 11 18 15 
3 13 16 17 
3 13 17 4 
3 28 19 11 
3 28 11 26 
3 22 4 17 
3 22 17 29 
3 13 4 22 
3 13 22 24 
3 13 24 30 
