# Blender v3.4.1 OBJ File: 'Cross_cube_bottle_rotated45.blend'
# www.blender.org
mtllib Cross_cube_bottle_rotated45.mtl
o Bottle_Cube.005
v -0.040000 -0.040000 0.040000
v -0.040000 0.040000 0.040000
v -0.013859 0.018867 -0.029698
v -0.040000 -0.040000 -0.040000
v -0.029698 0.018867 0.013859
v -0.040000 0.040000 -0.040000
v 0.040000 -0.040000 0.040000
v 0.040000 0.040000 0.040000
v 0.040000 -0.040000 -0.040000
v 0.029698 0.018867 0.013859
v 0.040000 0.040000 -0.040000
v 0.013859 0.018867 -0.029698
v -0.029698 0.018867 -0.013859
v -0.013859 0.018867 0.029698
v 0.013859 0.018867 0.029698
v 0.029698 0.018867 -0.013859
v 0.000000 0.015000 0.014255
v -0.014255 0.015000 -0.000000
v 0.014255 0.015000 0.000000
v -0.000000 0.015000 -0.014255
v 0.007722 0.018867 0.004158
v -0.007722 0.018867 -0.004158
v -0.029698 0.040000 0.013859
v -0.029698 0.040000 -0.013859
v -0.021779 0.040000 0.021779
v -0.013859 0.040000 -0.029698
v 0.013859 0.040000 -0.029698
v 0.021779 0.040000 -0.021779
v -0.000000 0.040000 -0.014255
v -0.014255 0.040000 -0.000000
v -0.013859 0.040000 0.029698
v 0.013859 0.040000 0.029698
v 0.000000 0.040000 0.014255
v 0.014255 0.040000 0.000000
v 0.029698 0.040000 0.013859
v 0.029698 0.040000 -0.013859
vt 0.375000 0.000000
vt 0.625000 0.000000
vt 0.625000 0.250000
vt 0.375000 0.250000
vt 0.625000 0.500000
vt 0.375000 0.500000
vt 0.625000 0.750000
vt 0.375000 0.750000
vt 0.625000 1.000000
vt 0.375000 1.000000
vt 0.125000 0.500000
vt 0.125000 0.750000
vt 0.706690 0.532192
vt 0.681941 0.556941
vt 0.875000 0.500000
vt 0.875000 0.750000
vt 0.818059 0.693059
vt 0.842808 0.668310
vt 0.794548 0.625000
vt 0.842808 0.581690
vt 0.793310 0.532192
vt 0.750000 0.580452
vt 0.750000 0.669548
vt 0.793310 0.717808
vt 0.657192 0.581690
vt 0.705452 0.625000
vt 0.657192 0.668310
vt 0.706690 0.717808
vt 0.375000 0.750000
vt 0.375000 1.000000
vt 0.623433 1.000000
vt 0.623433 0.750000
vt 0.375000 0.162500
vt 0.375000 0.250000
vt 0.623433 0.250000
vt 0.590517 0.162500
vt 0.623433 0.000000
vt 0.375000 0.000000
vt 0.375000 0.087500
vt 0.590517 0.087500
vt 0.125000 0.662500
vt 0.125000 0.750000
vt 0.375000 0.662500
vt 0.287500 0.662500
vt 0.125000 0.587500
vt 0.212500 0.587500
vt 0.375000 0.587500
vt 0.375000 0.500000
vt 0.125000 0.500000
vt 0.590517 0.662500
vt 0.590517 0.587500
vt 0.623433 0.500000
vt 0.623433 0.751567
vt 0.375000 1.000000
vt 0.375000 1.000000
vt 0.623433 0.751567
vt 0.623433 0.751567
vt 0.375000 0.250000
vt 0.375000 0.250000
vt 0.623433 0.001567
vt 0.590517 0.034483
vt 0.375000 0.250000
vt 0.375000 0.250000
vt 0.590517 0.034483
vt 0.623433 0.001567
vt 0.375000 0.750000
vt 0.375000 0.662500
vt 0.125000 0.662500
vt 0.125000 0.750000
vt 0.125000 0.500000
vt 0.125000 0.587500
vt 0.375000 0.587500
vt 0.375000 0.500000
vt 0.590517 0.534483
vt 0.375000 0.750000
vt 0.623433 0.501567
vt 0.623433 0.501567
vt 0.375000 0.750000
vt 0.375000 0.750000
vt 0.590517 0.534483
vt 0.375000 0.500000
vt 0.623433 0.251567
vt 0.623433 0.251567
vt 0.623433 0.251567
vn -1.0000 0.0000 0.0000
vn 0.0000 0.0000 -1.0000
vn 1.0000 0.0000 0.0000
vn 0.0000 0.0000 1.0000
vn 0.0000 -1.0000 0.0000
vn 0.0000 1.0000 -0.0000
vn -0.7071 0.0000 -0.7071
vn 0.6679 0.0000 -0.7442
vn 0.7442 0.0000 -0.6679
vn -0.0666 0.9956 -0.0666
vn 0.0666 0.9956 0.0666
vn 0.2185 0.9326 -0.2874
vn -0.2185 0.9326 0.2874
vn -0.6679 0.0000 0.7442
vn -0.7442 0.0000 0.6679
vn 0.7071 0.0000 0.7071
vn -0.7071 0.0000 0.7071
vn -0.7442 0.0000 -0.6679
vn -0.6679 0.0000 -0.7442
vn -0.1297 0.9830 0.1297
vn 0.1297 0.9830 -0.1297
vn 0.7442 0.0000 0.6679
vn 0.6679 0.0000 0.7442
vn 0.7071 0.0000 -0.7071
usemtl Red
s off
f 1/1/1 2/2/1 6/3/1 4/4/1
f 4/4/2 6/3/2 11/5/2 9/6/2
f 9/6/3 11/5/3 8/7/3 7/8/3
f 7/8/4 8/7/4 2/9/4 1/10/4
f 4/11/5 9/6/5 7/8/5 1/12/5
f 27/13/6 28/14/6 11/5/6 6/15/6 2/16/6 25/17/6 23/18/6 30/19/6 24/20/6 26/21/6 29/22/6
f 33/23/6 31/24/6 25/17/6 2/16/6 8/7/6 11/5/6 28/14/6 36/25/6 34/26/6 35/27/6 32/28/6
usemtl Blue
f 10/29/7 15/30/7 32/31/7 35/32/7
f 18/33/8 13/34/8 24/35/8 30/36/8
f 32/37/9 15/38/9 17/39/9 33/40/9
f 17/41/10 15/42/10 10/29/10 19/43/10 21/44/10
f 18/45/11 22/46/11 20/47/11 3/48/11 13/49/11
f 22/46/12 21/44/12 19/43/12 20/47/12
f 17/41/13 21/44/13 22/46/13 18/45/13
f 34/50/14 19/43/14 10/29/14 35/32/14
f 3/48/15 20/47/15 29/51/15 26/52/15
f 24/35/16 13/34/16 3/48/16 26/52/16
f 27/53/17 12/54/17 16/55/17 36/56/17 28/57/17
f 17/58/18 14/59/18 31/60/18 33/61/18
f 16/62/19 19/63/19 34/64/19 36/65/19
f 12/66/20 20/67/20 19/68/20 16/69/20
f 14/70/21 17/71/21 18/72/21 5/73/21
f 29/74/22 20/75/22 12/66/22 27/76/22
f 23/77/23 5/78/23 18/79/23 30/80/23
f 14/81/24 5/73/24 23/82/24 25/83/24 31/84/24
