ply
format ascii 1.0
comment VCGLIB generated
element vertex 36
property float x
property float y
property float z
property float nx
property float ny
property float nz
property uchar red
property uchar green
property uchar blue
property uchar alpha
element face 64
property list uchar int vertex_indices
end_header
40 -40 40 0.816496580927726 -0.408248290463863 0.408248290463863 204 204 204 225 
40 40 40 0.3333333333333333 0.6666666666666666 0.6666666666666666 204 204 204 129 
40 -40 -40 0.3333333333333333 -0.6666666666666666 -0.6666666666666666 204 204 204 129 
40 40 -40 0.816496580927726 0.408248290463863 -0.408248290463863 204 204 204 225 
-40 -40 40 -0.3333333333333333 -0.6666666666666666 0.6666666666666666 204 204 204 129 
-40 40 40 -0.816496580927726 0.408248290463863 0.408248290463863 204 204 204 225 
-40 -40 -40 -0.816496580927726 -0.408248290463863 -0.408248290463863 204 204 204 225 
-40 40 -40 -0.3333333333333333 0.6666666666666666 -0.6666666666666666 204 204 204 129 
13.859 60 -25.739 -0.07307361246933682 0.3038291196056324 -0.9499200562364959 204 204 204 129 
25.739 60 13.859 0.8905812059993573 0.3897896314831105 0.23436970518604 204 204 204 225 
13.859 40 -25.739 -0.05283450578181297 -0.7249028934596535 -0.6868218910697399 204 204 204 225 
25.739 40 13.859 0.8661626604950283 -0.3601556314722826 -0.3464825633173707 204 204 204 225 
-25.739 60 13.859 -0.7349144562005698 0.6111269354724834 -0.2939806299867929 204 204 204 64 
-13.859 60 -25.739 0.04732129936922254 0.7869863346147125 -0.6151529921537474 204 204 204 225 
-25.739 40 13.859 -0.8396721733879937 -0.4961067551466218 0.2209722352146825 204 204 204 129 
-13.859 40 -25.739 0.0646667789554151 -0.5377269012034113 -0.8406354664310257 204 204 204 64 
25.739 60 -13.859 0.6151598643420408 0.786980931087636 0.04732182801962935 204 204 204 129 
13.859 60 25.739 -0.2939786495403793 0.6111338417918613 0.7349095053345922 204 204 204 129 
25.739 40 -13.859 0.9157978938925297 -0.3954126884106923 0.07044872877373665 204 204 204 64 
13.859 40 25.739 0.1942482311502956 -0.6460968125392959 0.7381236573376736 204 204 204 129 
-13.859 60 25.739 -0.23436970518604 0.3897896314831105 0.8905812059993573 204 204 204 225 
-25.739 60 -13.859 -0.9499200562364959 0.3038291196056323 0.0730736124693368 204 204 204 129 
-13.859 40 25.739 0.313254938714517 -0.537242205885378 0.7830977943950407 204 204 204 129 
-25.739 40 -13.859 -0.8406252357559878 -0.5377429892572601 0.06466599194983699 204 204 204 130 
11.879 60 0 0.7240950179528547 0.6897002283426148 0 204 204 204 240 
0 60 11.879 0.2019800698388922 0.7694761164057581 0.6058964908868415 204 204 204 240 
0 40 11.879 -0.230216840449769 -0.6856171615055977 0.690600690864361 204 204 204 55 
11.879 40 0 0.5362382008968993 -0.8440666987263843 0 204 204 204 64 
-11.879 60 0 -0.4647884991671136 0.8854217362601746 0 204 204 204 64 
0 60 -11.879 0.2019800698388922 0.7694761164057581 -0.6058964908868415 204 204 204 240 
-11.879 40 0 -0.724096567862768 -0.6896986011362933 0 204 204 204 42 
0 40 -11.879 -0.2434512874375186 -0.6382724150309337 -0.7303011672286949 204 204 204 64 
-4.158 60 7.722 0 1 0 204 204 204 129 
-7.722 40 4.158 0 -1 0 204 204 204 129 
4.158 60 -7.722 0 1 0 204 204 204 129 
7.722 40 -4.158 0 -1 0 204 204 204 55 
3 1 0 3 
3 3 0 2 
3 3 2 7 
3 7 2 6 
3 7 6 5 
3 5 6 4 
3 5 4 1 
3 1 4 0 
3 6 2 4 
3 4 2 0 
3 3 7 1 
3 1 7 5 
3 30 33 14 
3 14 33 22 
3 22 33 26 
3 27 35 18 
3 18 35 10 
3 10 35 31 
3 31 35 30 
3 30 35 33 
3 27 26 35 
3 35 26 33 
3 23 15 30 
3 30 15 31 
3 11 19 27 
3 27 19 26 
3 28 12 32 
3 32 12 25 
3 25 12 20 
3 24 16 34 
3 34 16 29 
3 29 16 8 
3 24 34 25 
3 25 34 32 
3 28 32 29 
3 29 32 34 
3 12 14 20 
3 20 14 22 
3 16 24 18 
3 18 24 27 
3 20 22 25 
3 25 22 26 
3 14 12 30 
3 30 12 28 
3 10 31 8 
3 8 31 29 
3 16 18 8 
3 8 18 10 
3 21 28 13 
3 13 28 29 
3 9 24 17 
3 17 24 25 
3 13 15 21 
3 21 15 23 
3 19 17 26 
3 26 17 25 
3 23 30 21 
3 21 30 28 
3 13 29 15 
3 15 29 31 
3 9 11 24 
3 24 11 27 
3 17 19 9 
3 9 19 11 
