ply
format ascii 1.0
comment VCGLIB generated
element vertex 18
property float x
property float y
property float z
property float nx
property float ny
property float nz
property uchar red
property uchar green
property uchar blue
property uchar alpha
element face 32
property list uchar int vertex_indices
end_header
-40 -40 40 -0.816496580927726 -0.408248290463863 0.408248290463863 204 204 204 225 
-40 40 40 -0.4378114726813001 0.2039744394358183 0.8756229453626001 204 204 204 55 
0 15 -24.89 0.1820561410497937 0.5437652820875238 0.8192526347240716 204 204 204 225 
-40 -40 -40 -0.3333333333333333 -0.6666666666666666 -0.6666666666666666 204 204 204 129 
-40 40 -40 -0.8756229453626001 0.2039744394358183 -0.4378114726813001 204 204 204 64 
37.335 15 0 -0.5563939068694868 0.8309186605188916 0 204 204 204 64 
40 -40 40 0.3333333333333333 -0.6666666666666666 0.6666666666666666 204 204 204 129 
40 40 40 0.8756229453626001 0.2039744394358183 0.4378114726813001 204 204 204 64 
-37.335 15 0 0.3174847278468769 0.9482633851330518 0 204 204 204 225 
40 -40 -40 0.816496580927726 -0.408248290463863 -0.408248290463863 204 204 204 225 
40 40 -40 0.4378114726813001 0.2039744394358183 -0.8756229453626001 204 204 204 55 
0 15 24.89 0.1820561410497937 0.5437652820875237 -0.8192526347240716 204 204 204 129 
-37.335 40 0 0.6337258024814801 0.7663131335049905 0.1056209670802467 204 204 204 55 
0 40 -24.89 -0.1400652818423863 0.7636173665365881 0.6302937682907385 204 204 204 55 
14.934 40 -14.934 0 1 0 204 204 204 130 
-14.934 40 14.934 0.3238800601504984 0.8118377587732392 -0.4858200902257475 204 204 204 225 
0 40 24.89 -0.2378728947761485 0.8105321992096111 -0.5352140132463341 204 204 204 64 
37.335 40 0 -0.417480660145995 0.9086858084090804 0 204 204 204 64 
3 0 1 4 
3 0 4 3 
3 3 4 10 
3 3 10 9 
3 9 10 7 
3 9 7 6 
3 6 7 1 
3 6 1 0 
3 3 9 6 
3 3 6 0 
3 14 10 13 
3 13 10 4 
3 13 4 12 
3 12 4 1 
3 12 1 15 
3 15 1 16 
3 16 1 7 
3 16 7 17 
3 17 7 10 
3 17 10 14 
3 5 11 16 
3 5 16 17 
3 11 8 12 
3 11 12 15 
3 11 15 16 
3 8 11 5 
3 8 5 2 
3 13 2 5 
3 13 5 17 
3 13 17 14 
3 12 8 2 
3 12 2 13 
