ply
format ascii 1.0
comment VCGLIB generated
element vertex 16
property float x
property float y
property float z
property float nx
property float ny
property float nz
property uchar red
property uchar green
property uchar blue
property uchar alpha
element face 24
property list uchar int vertex_indices
end_header
40 -40 40 0.816496580927726 -0.408248290463863 0.408248290463863 204 204 204 225 
40 40 40 0.3333333333333333 0.6666666666666666 0.6666666666666666 204 204 204 129 
40 -40 -40 0.3333333333333333 -0.6666666666666666 -0.6666666666666666 204 204 204 129 
40 40 -40 0.816496580927726 0.408248290463863 -0.408248290463863 204 204 204 225 
-40 -40 40 -0.3333333333333333 -0.6666666666666666 0.6666666666666666 204 204 204 129 
-40 40 40 -0.816496580927726 0.408248290463863 0.408248290463863 204 204 204 225 
-40 -40 -40 -0.816496580927726 -0.408248290463863 -0.408248290463863 204 204 204 225 
-40 40 -40 -0.3333333333333333 0.6666666666666666 -0.6666666666666666 204 204 204 129 
16 60 -16 0.4739618483117934 0.8272788625078575 -0.301612085289323 204 204 204 129 
16 40 -16 0.4323294554045275 -0.5929089674119234 -0.6793748584928289 204 204 204 225 
-24 60 -24 -0.2222771122371935 0.7112867591590193 -0.6668313367115806 204 204 204 225 
-24 40 -24 -0.4202488610103944 -0.8965309034888413 -0.1400829536701315 204 204 204 129 
24 60 24 0.2222771122371935 0.7112867591590193 0.6668313367115806 204 204 204 225 
24 40 24 0.4202488610103944 -0.8965309034888413 0.1400829536701315 204 204 204 129 
-16 60 16 -0.4739618483117934 0.8272788625078575 0.301612085289323 204 204 204 129 
-16 40 16 -0.4323294554045275 -0.5929089674119234 0.6793748584928289 204 204 204 225 
3 1 0 3 
3 3 0 2 
3 3 2 7 
3 7 2 6 
3 7 6 5 
3 5 6 4 
3 5 4 1 
3 1 4 0 
3 6 2 4 
3 4 2 0 
3 3 7 1 
3 1 7 5 
3 9 13 11 
3 11 13 15 
3 12 8 14 
3 14 8 10 
3 10 11 14 
3 14 11 15 
3 14 15 12 
3 12 15 13 
3 8 9 10 
3 10 9 11 
3 12 13 8 
3 8 13 9 
