# Blender v3.4.1 OBJ File: 'Diamond_cube_bottle.blend'
# www.blender.org
mtllib Diamond_cube_bottle.mtl
o Bottle.001_Cube.003
v -0.040000 -0.040000 0.040000
v -0.040000 0.040000 0.040000
v 0.000000 0.015000 -0.024890
v -0.040000 -0.040000 -0.040000
v -0.040000 0.040000 -0.040000
v 0.037335 0.015000 0.000000
v 0.040000 -0.040000 0.040000
v 0.040000 0.040000 0.040000
v -0.037335 0.015000 0.000000
v 0.040000 -0.040000 -0.040000
v 0.040000 0.040000 -0.040000
v 0.000000 0.015000 0.024890
v -0.037335 0.040000 0.000000
v 0.000000 0.040000 -0.024890
v 0.014934 0.040000 -0.014934
v -0.014934 0.040000 0.014934
v 0.000000 0.040000 0.024890
v 0.037335 0.040000 0.000000
vt 0.375000 0.000000
vt 0.625000 0.000000
vt 0.625000 0.250000
vt 0.375000 0.250000
vt 0.625000 0.500000
vt 0.375000 0.500000
vt 0.625000 0.750000
vt 0.375000 0.750000
vt 0.625000 1.000000
vt 0.375000 1.000000
vt 0.125000 0.500000
vt 0.125000 0.750000
vt 0.750000 0.547218
vt 0.703331 0.578331
vt 0.875000 0.500000
vt 0.875000 0.750000
vt 0.796669 0.671669
vt 0.866673 0.625000
vt 0.633327 0.625000
vt 0.750000 0.702782
vt 0.375000 0.750000
vt 0.375000 1.000000
vt 0.590517 1.000000
vt 0.590517 0.750000
vt 0.375000 0.000000
vt 0.375000 0.250000
vt 0.590517 0.250000
vt 0.590517 0.100000
vt 0.590517 0.000000
vt 0.125000 0.500000
vt 0.125000 0.750000
vt 0.375000 0.500000
vt 0.590517 0.500000
vt 0.590517 0.600000
vn -1.0000 0.0000 0.0000
vn 0.0000 0.0000 -1.0000
vn 1.0000 0.0000 0.0000
vn 0.0000 0.0000 1.0000
vn 0.0000 -1.0000 0.0000
vn 0.0000 1.0000 0.0000
vn -0.5547 0.0000 -0.8321
vn 0.5547 -0.0000 -0.8321
vn -0.5547 0.0000 0.8321
vn 0.5547 0.0000 0.8321
usemtl Red
s off
f 1/1/1 2/2/1 5/3/1 4/4/1
f 4/4/2 5/3/2 11/5/2 10/6/2
f 10/6/3 11/5/3 8/7/3 7/8/3
f 7/8/4 8/7/4 2/9/4 1/10/4
f 4/11/5 10/6/5 7/8/5 1/12/5
f 14/13/6 15/14/6 11/5/6 5/15/6 2/16/6 16/17/6 13/18/6
f 16/17/6 2/16/6 8/7/6 11/5/6 15/14/6 18/19/6 17/20/6
usemtl Blue
f 6/21/7 12/22/7 17/23/7 18/24/7
f 12/25/8 9/26/8 13/27/8 16/28/8 17/29/8
f 9/30/6 12/31/6 6/21/6 3/32/6
f 14/33/9 3/32/9 6/21/9 18/24/9 15/34/9
f 13/27/10 9/26/10 3/32/10 14/33/10
