ply
format ascii 1.0
comment VCGLIB generated
element vertex 16
property float x
property float y
property float z
property float nx
property float ny
property float nz
property uchar red
property uchar green
property uchar blue
property uchar alpha
element face 24
property list uchar int vertex_indices
end_header
40 -40 40 0.816496580927726 -0.408248290463863 0.408248290463863 204 204 204 225 
40 40 40 0.3333333333333333 0.6666666666666666 0.6666666666666666 204 204 204 129 
40 -40 -40 0.3333333333333333 -0.6666666666666666 -0.6666666666666666 204 204 204 129 
40 40 -40 0.816496580927726 0.408248290463863 -0.408248290463863 204 204 204 225 
-40 -40 40 -0.3333333333333333 -0.6666666666666666 0.6666666666666666 204 204 204 129 
-40 40 40 -0.816496580927726 0.408248290463863 0.408248290463863 204 204 204 225 
-40 -40 -40 -0.816496580927726 -0.408248290463863 -0.408248290463863 204 204 204 225 
-40 40 -40 -0.3333333333333333 0.6666666666666666 -0.6666666666666666 204 204 204 129 
0 60 -22.627 0.1218694545967626 0.8272742316937436 -0.5484206247141094 204 204 204 129 
0 40 -22.627 -0.1746861166126593 -0.5929021483950271 -0.7860991051332837 204 204 204 225 
-33.941 60 0 -0.6286948743417713 0.7112844243344686 -0.3143520680313203 204 204 204 225 
-33.941 40 0 -0.3962153743156565 -0.8965297346431796 0.1981106056134661 204 204 204 129 
33.941 60 0 0.6286948743417713 0.7112844243344686 0.3143520680313203 204 204 204 225 
33.941 40 0 0.3962153743156565 -0.8965297346431796 -0.1981106056134661 204 204 204 129 
0 60 22.627 -0.1218694545967626 0.8272742316937436 0.5484206247141094 204 204 204 129 
0 40 22.627 0.1746861166126593 -0.5929021483950271 0.7860991051332837 204 204 204 225 
3 1 0 3 
3 3 0 2 
3 3 2 7 
3 7 2 6 
3 7 6 5 
3 5 6 4 
3 5 4 1 
3 1 4 0 
3 6 2 4 
3 4 2 0 
3 3 7 1 
3 1 7 5 
3 9 13 11 
3 11 13 15 
3 12 8 14 
3 14 8 10 
3 10 11 14 
3 14 11 15 
3 14 15 12 
3 12 15 13 
3 8 9 10 
3 10 9 11 
3 12 13 8 
3 8 13 9 
