ply
format ascii 1.0
comment VCGLIB generated
element vertex 22
property float x
property float y
property float z
property float nx
property float ny
property float nz
property uchar red
property uchar green
property uchar blue
property uchar alpha
element face 40
property list uchar int vertex_indices
end_header
-40 -40 40 -0.816496580927726 -0.408248290463863 0.408248290463863 204 204 204 225 
0 15 -35.811 0.08891733533764332 0.8824052220450064 0.4620116141225845 204 204 204 129 
-40 40 40 -0.4419182007326735 0.1534324584499078 0.8838364014653469 204 204 204 240 
-40 -40 -40 -0.3333333333333333 -0.6666666666666666 -0.6666666666666666 204 204 204 129 
31.013 15 -17.905 -0.5900527255239322 0.7319722070669482 0.3406676814482408 204 204 204 64 
-40 40 -40 -0.8866449982547099 0.1316275382941645 -0.4433224991273549 204 204 204 64 
40 -40 40 0.3333333333333333 -0.6666666666666666 0.6666666666666666 204 204 204 129 
31.013 15 17.905 -0.6844356696669743 0.4245162137842031 -0.5927341717176809 204 204 204 225 
40 40 40 0.8838363991993128 0.1534324747665601 0.4419181995996564 204 204 204 55 
40 -40 -40 0.816496580927726 -0.408248290463863 -0.408248290463863 204 204 204 225 
0 15 35.811 0.06329852604795738 0.9422420022575027 -0.3288971051589359 204 204 204 240 
40 40 -40 0.4433225001055415 0.1316275218214673 -0.8866450002110829 204 204 204 55 
-31.013 15 17.905 0.7040752127236656 0.582268748626441 -0.4064987075024022 204 204 204 130 
-31.013 15 -17.905 0.5475005953433583 0.815028595410595 0.1896615057456333 204 204 204 129 
-31.013 40 17.905 0.9192050240450089 0.1752740459586412 -0.3526203802727554 204 204 204 64 
-31.013 40 -17.905 0.5912556142079964 0.6230837692333353 0.5120384899453405 204 204 204 64 
0 40 -35.811 -0.147096195593234 0.6278513879464533 0.7643071005137327 204 204 204 55 
-26.735 40 20.375 0.363391652730459 0.6868873075009971 -0.6293904460030004 204 204 204 225 
0 40 35.811 -0.1713844500052575 0.6428452310301547 -0.7465771087022308 204 204 204 64 
31.013 40 17.905 -0.847479138154964 0.4422567419332848 -0.2935780724214183 204 204 204 129 
31.013 40 -17.905 -0.6939957041485746 0.5981856473739254 0.4006792905793384 204 204 204 64 
26.735 40 -20.375 0 1 0 204 204 204 130 
3 0 2 5 
3 0 5 3 
3 3 5 11 
3 3 11 9 
3 9 11 8 
3 9 8 6 
3 6 8 2 
3 6 2 0 
3 3 9 6 
3 3 6 0 
3 8 11 20 
3 8 20 19 
3 8 19 18 
3 8 18 2 
3 2 18 17 
3 20 11 21 
3 17 14 2 
3 2 14 15 
3 2 15 5 
3 5 15 16 
3 5 16 11 
3 11 16 21 
3 16 1 4 
3 16 4 20 
3 16 20 21 
3 4 7 19 
3 4 19 20 
3 7 10 18 
3 7 18 19 
3 10 12 14 
3 10 14 17 
3 10 17 18 
3 14 12 13 
3 14 13 15 
3 15 13 1 
3 15 1 16 
3 10 7 4 
3 10 4 1 
3 10 1 13 
3 10 13 12 
