ply
format ascii 1.0
comment VCGLIB generated
element vertex 20
property float x
property float y
property float z
property float nx
property float ny
property float nz
property uchar red
property uchar green
property uchar blue
property uchar alpha
element face 36
property list uchar int vertex_indices
end_header
-40 -40 40 -0.816496580927726 -0.408248290463863 0.408248290463863 204 204 204 225 
-25.322 15 -25.322 0.3895672294369409 0.8824037622900218 0.2638199652134781 204 204 204 129 
-40 40 40 -0.4437908767807007 0.1234839602178544 0.8875817535614015 204 204 204 64 
-40 -40 -40 -0.3333333333333333 -0.6666666666666666 -0.6666666666666666 204 204 204 129 
9.268000000000001 15 -34.59 -0.04150073177492249 0.8150232032350351 0.5779401936625006 204 204 204 129 
-40 40 -40 -0.884472814689964 0.1487776868116178 -0.442236407344982 204 204 204 55 
40 -40 40 0.3333333333333333 -0.6666666666666666 0.6666666666666666 204 204 204 129 
34.59 15 -9.268000000000001 -0.9093741148490151 0.3371363601493378 0.2436755915306798 204 204 204 129 
40 40 40 0.884472814689964 0.1487776868116178 0.442236407344982 204 204 204 55 
40 -40 -40 0.816496580927726 -0.408248290463863 -0.408248290463863 204 204 204 225 
25.322 15 25.322 -0.1878069224374758 0.942242192372592 -0.2773232965285379 204 204 204 55 
40 40 -40 0.4437908767807007 0.1234839602178544 -0.8875817535614015 204 204 204 64 
-9.268000000000001 15 34.59 0.3954007148235276 0.4245176641469374 -0.8145201210186716 204 204 204 225 
-34.59 15 9.268000000000001 0.4075767171972531 0.9066165091381262 -0.1092141243471208 204 204 204 225 
-34.59 40 9.268000000000001 0.8127457215119539 0.5403840511903106 -0.2177830787346927 204 204 204 55 
9.268000000000001 40 -34.59 -0.3342428204998938 0.643583984753615 0.6885356864483746 204 204 204 64 
-25.322 40 -25.322 0.4926536301467293 0.4775735468543383 0.7274722730442837 204 204 204 129 
-9.268000000000001 40 34.59 0.05481876995024031 0.64358672163661 -0.7634075151543788 204 204 204 64 
34.59 40 -9.268000000000001 -0.5933802579644574 0.7890616196629683 0.1590019805942282 204 204 204 129 
25.322 40 25.322 -0.7274722730442837 0.4775735468543383 -0.4926536301467293 204 204 204 129 
3 0 2 5 
3 0 5 3 
3 3 5 11 
3 3 11 9 
3 9 11 8 
3 9 8 6 
3 6 8 2 
3 6 2 0 
3 3 9 6 
3 3 6 0 
3 16 5 14 
3 14 5 2 
3 14 2 17 
3 17 2 8 
3 17 8 19 
3 19 8 18 
3 18 8 11 
3 18 11 15 
3 15 11 5 
3 15 5 16 
3 16 1 4 
3 16 4 15 
3 15 4 7 
3 15 7 18 
3 7 10 19 
3 7 19 18 
3 10 12 17 
3 10 17 19 
3 12 13 14 
3 12 14 17 
3 14 13 1 
3 14 1 16 
3 10 7 4 
3 10 4 1 
3 10 1 13 
3 10 13 12 
