ply
format ascii 1.0
comment VCGLIB generated
element vertex 20
property float x
property float y
property float z
property float nx
property float ny
property float nz
property uchar red
property uchar green
property uchar blue
property uchar alpha
element face 32
property list uchar int vertex_indices
end_header
40 -40 40 0.816496580927726 -0.408248290463863 0.408248290463863 204 204 204 225 
40 40 40 0.3333333333333333 0.6666666666666666 0.6666666666666666 204 204 204 129 
40 -40 -40 0.3333333333333333 -0.6666666666666666 -0.6666666666666666 204 204 204 129 
40 40 -40 0.816496580927726 0.408248290463863 -0.408248290463863 204 204 204 225 
-40 -40 40 -0.3333333333333333 -0.6666666666666666 0.6666666666666666 204 204 204 129 
-40 40 40 -0.816496580927726 0.408248290463863 0.408248290463863 204 204 204 225 
-40 -40 -40 -0.816496580927726 -0.408248290463863 -0.408248290463863 204 204 204 225 
-40 40 -40 -0.3333333333333333 0.6666666666666666 -0.6666666666666666 204 204 204 129 
0 40 -32 -0.05730832199979431 -0.9529113165481796 -0.2977847864213062 204 204 204 55 
0 60 -32 0.1674112840882424 0.4639468915937461 -0.8699004217382739 204 204 204 225 
-27.713 40 -16 -0.837060221320224 -0.4639489982689474 -0.2899681239180921 204 204 204 225 
-27.713 60 -16 -0.2292333642334397 0.952911633450197 -0.1985232569687911 204 204 204 55 
-27.713 40 16 -0.4058851906498308 -0.8436222216359071 0.3515092590149612 204 204 204 129 
-27.713 60 16 -0.837060221320224 0.4639489982689474 0.2899681239180921 204 204 204 225 
0 40 32 0.08141065519759938 -0.9024533949964287 0.4230250289045759 204 204 204 129 
0 60 32 -0.1014711918672777 0.8436213420653601 0.5272633387908501 204 204 204 129 
27.713 40 16 0.5073568056986225 -0.8436227493795556 0.1757547394540741 204 204 204 129 
27.713 60 16 0.325642839335509 0.9024540006504961 0.28201687520328 204 204 204 129 
27.713 40 -16 0.6696470367876215 -0.4639482082623839 -0.5799352603279798 204 204 204 225 
27.713 60 -16 0.5073568056986225 0.8436227493795556 -0.1757547394540741 204 204 204 129 
3 1 0 3 
3 3 0 2 
3 3 2 7 
3 7 2 6 
3 7 6 5 
3 5 6 4 
3 5 4 1 
3 1 4 0 
3 6 2 4 
3 4 2 0 
3 3 7 1 
3 1 7 5 
3 10 8 12 
3 12 8 14 
3 14 8 16 
3 16 8 18 
3 9 8 11 
3 11 8 10 
3 11 10 13 
3 13 10 12 
3 13 12 15 
3 15 12 14 
3 15 14 17 
3 17 14 16 
3 9 11 19 
3 19 11 17 
3 17 11 15 
3 15 11 13 
3 17 16 19 
3 19 16 18 
3 19 18 9 
3 9 18 8 
