ply
format ascii 1.0
comment VCGLIB generated
element vertex 77
property float x
property float y
property float z
property float nx
property float ny
property float nz
property uchar red
property uchar green
property uchar blue
property uchar alpha
element face 150
property list uchar int vertex_indices
end_header
-40 -40 40 -0.816496580927726 -0.408248290463863 0.408248290463863 204 204 204 225 
0 15.519 -26.2 -7.493054424047382e-18 0.004861053677126062 0.9999881850087771 204 204 204 129 
-40 40 40 -0.4246699114762928 0.3134921552983239 0.8493398229525856 204 204 204 159 
-40 -40 -40 -0.3333333333333333 -0.6666666666666666 -0.6666666666666666 204 204 204 129 
-40 40 -40 -0.8647566427808135 0.2554308829371861 -0.4323783213904068 204 204 204 42 
8 15.483 -5.333 -0.01045644955537125 0.9997868149770047 0.01780413605970583 204 204 204 127 
40 -40 40 0.3333333333333333 -0.6666666666666666 0.6666666666666666 204 204 204 129 
2.421 15.52 -25.962 -0.1942808861599222 0.09492555802399545 0.9763421919116004 204 204 204 129 
40 40 40 0.8456360669374779 0.3257676363117454 0.422818033468739 204 204 204 206 
40 -40 -40 0.816496580927726 -0.408248290463863 -0.408248290463863 204 204 204 225 
40 40 -40 0.431403081987745 0.2635467781198906 -0.86280616397549 204 204 204 206 
8.800000000000001 15.483 28.267 -0.5451508797205912 0.5611325871790949 -0.6228488885320105 204 204 204 240 
4.756 15.523 -25.254 -0.3464661065138761 0.1857711924971854 0.9194837144154806 204 204 204 64 
-8 15.483 -5.333 0.005663812723652512 0.9944341622622853 0.1052075004509566 204 204 204 129 
6.923 15.528 -24.096 -0.4970618168659688 0.3433103783882091 0.7969112461904693 204 204 204 64 
-8.800000000000001 15.483 28.267 0.6479281766689692 0.6669240561269163 -0.3679692667025973 204 204 204 240 
8.848000000000001 15.537 -22.517 -0.6523850865722438 0.3908416339133799 0.6493354418311429 204 204 204 55 
10.466 15.549 -20.549 -0.6782380251601965 0.6051811653885848 0.4168320264635517 204 204 204 64 
11.717 15.565 -18.213 -0.6898069547411166 0.6777507166943845 0.254598372365252 204 204 204 64 
12.534 15.579 -15.531 -0.6906659073185226 0.7146533198596169 0.1106853056259504 204 204 204 64 
12.824 15.585 -12.597 -0.6920718981141286 0.7214833712520966 -0.0223211300658535 204 204 204 64 
12.534 15.579 -9.663 -0.6965234267089514 0.6997822317536576 -0.1586188644754788 204 204 204 64 
11.717 15.565 -6.98 -0.7571453232581082 0.5657643013685828 -0.3265604304953282 204 204 204 55 
10.466 15.549 -4.644 -0.8117389310384182 0.06650103830203787 -0.5802219573071645 204 204 204 129 
8.848000000000001 15.537 -2.676 -0.6713719953286631 0.1027637454303588 -0.7339613453810315 204 204 204 225 
6.667 15.483 -2.619 0.1200033343640761 0.9927693770571978 -0.00285722224676372 204 204 204 225 
4.592 15.483 -1.51 0 1 0 204 204 204 225 
2.341 15.483 -0.8270000000000001 0 1 0 204 204 204 225 
0 15.483 -0.597 0 1 0 204 204 204 129 
-2.341 15.483 -0.8270000000000001 0 1 0 204 204 204 225 
-4.592 15.483 -1.51 0 1 0 204 204 204 225 
-6.667 15.483 -2.619 -0.2229736089426723 0.9684283464169408 -0.1114868044713362 204 204 204 129 
-8.848000000000001 15.537 -2.676 0.66092188880672 0.01665206344475247 -0.7502699285451802 204 204 204 130 
-10.466 15.549 -4.644 0.8151866536525186 0.06898089208304846 -0.5750759569258964 204 204 204 64 
-11.717 15.565 -6.98 0.6835101098133469 0.6661383039752333 -0.2984521565677586 204 204 204 55 
-12.534 15.579 -9.663 0.6760397836518891 0.7204784153353221 -0.1545349926580062 204 204 204 64 
-12.824 15.585 -12.597 0.6920566099867482 0.7214674334142609 -0.02328929145098784 204 204 204 64 
-12.534 15.579 -15.531 0.7112637813213147 0.6937188818103706 0.1133928851395634 204 204 204 64 
-11.717 15.565 -18.213 0.7217619420350001 0.63879725188347 0.2664540673662004 204 204 204 64 
-10.466 15.549 -20.549 0.7122528835904889 0.5481396812210592 0.4384503617148802 204 204 204 64 
-8.848000000000001 15.537 -22.517 0.6648158355757596 0.4171087440122917 0.6197097711317719 204 204 204 64 
-6.923 15.528 -24.096 0.5632790488725788 0.2608802554414311 0.7840014065178815 204 204 204 64 
-4.756 15.523 -25.254 0.3815211060141351 0.08845277035958224 0.9201183364554073 204 204 204 55 
-2.421 15.52 -25.962 0.1949710038098386 0.03856411766532838 0.9800505683392458 204 204 204 225 
-8.552999999999999 15 -2.971 0.9972097765472949 0.07463380771333138 -0.001567260253966367 204 204 204 42 
8.552999999999999 15 -2.971 -0.9991054356813761 0.04226132211359085 -0.001519554256633121 204 204 204 55 
-6.634 15.483 -2.602 0 1 0 204 204 204 129 
-6.64 15.483 -2.614 0 1 0 204 204 204 130 
-12.534 40 -9.663 0.7016931560195868 0.7031956207566115 -0.1146413265101016 204 204 204 129 
-12.824 40 -12.597 0.8027934533497983 0.5956700901894625 0.02645401505221306 204 204 204 129 
-11.717 40 -6.98 0.6024591273075967 0.7655802838332982 -0.2256763809739419 204 204 204 129 
-12.534 40 -15.531 0.8897088721397894 0.4072558651614914 0.2063026493463155 204 204 204 129 
-11.717 40 -18.213 0.07512638428297951 0.9965973724022903 0.03390728100890375 204 204 204 64 
-10.466 40 -20.549 0.5837993437475933 0.6962311938532718 0.4176606887720306 204 204 204 129 
-8.848000000000001 40 -2.676 0.0734153985741047 0.9937356582648527 -0.08425924723806516 204 204 204 55 
-8.552999999999999 40 -2.971 0.9999289682350839 0.01181746514959665 -0.001551129188355494 204 204 204 130 
-10.466 40 -4.644 0.5091918607757775 0.8005601316005722 -0.3159543077905027 204 204 204 129 
-8.848000000000001 40 -22.517 0.4982284279809349 0.6850542882020947 0.5314781799543306 204 204 204 129 
-2.421 40 -25.962 0.193864798029427 0.1114879744471948 0.9746726997503682 204 204 204 64 
-4.756 40 -25.254 0.03622491513723874 0.9955146179195959 0.08739794638148385 204 204 204 129 
4.756 40 -25.254 -0.3323776159145833 0.593470091201297 0.7330200347115091 204 204 204 129 
2.421 40 -25.962 -0.1791524006473127 0.3957717546913977 0.9007047993270585 204 204 204 64 
0 40 -26.2 0 0.4910567614006707 0.8711275779601313 204 204 204 225 
10.466 40 -20.549 -0.5837993437475935 0.6962311938532718 0.4176606887720306 204 204 204 129 
8.848000000000001 40 -22.517 -0.4100599276964487 0.8149114956202601 0.4095974975552633 204 204 204 225 
12.534 40 -15.531 -0.8897088721397894 0.4072558651614914 0.2063026493463155 204 204 204 129 
11.717 40 -18.213 -0.07512638428297949 0.9965973724022903 0.03390728100890375 204 204 204 64 
6.923 40 -24.096 -0.4421663799822125 0.6515283484596196 0.616441159857862 204 204 204 129 
-6.923 40 -24.096 0.4000916630136461 0.6531249249598812 0.6429265071399098 204 204 204 129 
-8.800000000000001 40 28.267 0.5606463926813203 0.7684970963251367 -0.3083631549216873 204 204 204 240 
8.848000000000001 40 -2.676 -0.07341539857410471 0.9937356582648527 -0.08425924723806515 204 204 204 55 
8.800000000000001 40 28.267 -0.77684553262365 0.5934414463869424 -0.2105665409148645 204 204 204 64 
8.552999999999999 40 -2.971 -0.9999289682350839 0.01181746514959665 -0.001551129188355494 204 204 204 130 
11.717 40 -6.98 -0.6024591273075967 0.7655802838332981 -0.2256763809739419 204 204 204 129 
12.824 40 -12.597 -0.8027934533497986 0.5956700901894625 0.02645401505221306 204 204 204 129 
12.534 40 -9.663 -0.7016931560195868 0.7031956207566115 -0.1146413265101016 204 204 204 129 
10.466 40 -4.644 -0.5091918607757775 0.8005601316005722 -0.3159543077905027 204 204 204 129 
3 0 2 4 
3 0 4 3 
3 3 4 10 
3 3 10 9 
3 9 10 8 
3 9 8 6 
3 6 8 2 
3 6 2 0 
3 3 9 6 
3 3 6 0 
3 8 10 66 
3 8 66 65 
3 8 65 74 
3 8 74 75 
3 8 75 73 
3 8 73 76 
3 8 76 70 
3 8 70 71 
3 10 4 59 
3 10 59 58 
3 10 58 62 
3 10 62 61 
3 10 61 60 
3 10 60 67 
3 10 67 64 
3 10 64 63 
3 10 63 66 
3 54 56 2 
3 54 2 69 
3 54 69 55 
3 2 56 50 
3 2 50 48 
3 2 48 49 
3 2 49 51 
3 2 51 52 
3 2 52 4 
3 4 52 53 
3 4 53 57 
3 4 57 68 
3 4 68 59 
3 71 70 72 
3 69 2 8 
3 69 8 71 
3 11 15 69 
3 11 69 71 
3 69 15 44 
3 69 44 55 
3 15 11 28 
3 15 28 29 
3 15 29 30 
3 15 30 46 
3 15 46 31 
3 15 31 44 
3 11 45 25 
3 11 25 26 
3 11 26 27 
3 11 27 28 
3 5 13 44 
3 5 44 31 
3 5 31 47 
3 5 47 46 
3 5 46 30 
3 5 30 29 
3 5 29 28 
3 5 28 27 
3 5 27 26 
3 5 26 25 
3 5 25 45 
3 31 46 47 
3 45 11 71 
3 45 71 72 
3 1 7 61 
3 1 61 62 
3 61 7 12 
3 61 12 60 
3 60 12 14 
3 60 14 67 
3 67 14 16 
3 67 16 64 
3 16 17 63 
3 16 63 64 
3 17 18 66 
3 17 66 63 
3 18 19 65 
3 18 65 66 
3 19 20 74 
3 19 74 65 
3 20 21 75 
3 20 75 74 
3 21 22 73 
3 21 73 75 
3 22 23 76 
3 22 76 73 
3 23 24 70 
3 23 70 76 
3 70 24 45 
3 70 45 72 
3 44 32 54 
3 44 54 55 
3 54 32 33 
3 54 33 56 
3 56 33 34 
3 56 34 50 
3 50 34 35 
3 50 35 48 
3 48 35 36 
3 48 36 49 
3 49 36 37 
3 49 37 51 
3 51 37 38 
3 51 38 52 
3 52 38 39 
3 52 39 53 
3 53 39 40 
3 53 40 57 
3 57 40 41 
3 57 41 68 
3 68 41 42 
3 68 42 59 
3 42 43 58 
3 42 58 59 
3 58 43 1 
3 58 1 62 
3 32 44 33 
3 33 44 13 
3 33 13 34 
3 34 13 22 
3 34 22 21 
3 1 43 7 
3 7 43 42 
3 7 42 12 
3 12 42 41 
3 12 41 14 
3 14 41 40 
3 14 40 16 
3 16 40 39 
3 16 39 17 
3 17 39 38 
3 17 38 18 
3 18 38 37 
3 18 37 19 
3 19 37 36 
3 19 36 20 
3 20 36 35 
3 20 35 21 
3 21 35 34 
3 5 24 23 
3 5 23 22 
3 5 22 13 
3 24 5 45 
