ply
format ascii 1.0
comment VCGLIB generated
element vertex 90
property float x
property float y
property float z
property float nx
property float ny
property float nz
property uchar red
property uchar green
property uchar blue
property uchar alpha
element face 172
property list uchar int vertex_indices
end_header
40 -40 40 0.816496580927726 -0.408248290463863 0.408248290463863 204 204 204 225 
40 40 40 0.3333333333333333 0.6666666666666666 0.6666666666666666 204 204 204 129 
40 -40 -40 0.3333333333333333 -0.6666666666666666 -0.6666666666666666 204 204 204 129 
40 40 -40 0.816496580927726 0.408248290463863 -0.408248290463863 204 204 204 225 
-40 -40 40 -0.3333333333333333 -0.6666666666666666 0.6666666666666666 204 204 204 129 
-40 40 40 -0.816496580927726 0.408248290463863 0.408248290463863 204 204 204 225 
-40 -40 -40 -0.816496580927726 -0.408248290463863 -0.408248290463863 204 204 204 225 
-40 40 -40 -0.3333333333333333 0.6666666666666666 -0.6666666666666666 204 204 204 129 
0 40 -24.597 -0.03287317495396649 -0.007695610256723556 -0.9994299034705848 204 204 204 225 
-8 60 -5.333 0 1 0 204 204 204 64 
0 60 -24.597 0.03287317495396649 0.007695610256723556 -0.9994299034705848 204 204 204 225 
-8 40 -5.333 0 -1 0 204 204 204 129 
-2.341 40 -24.366 -0.2271648158331668 -0.03043573263325084 -0.9733806103609012 204 204 204 129 
-8 60 26.667 -0.6331236677506302 0.698548937843774 0.3334423529957236 204 204 204 240 
-2.341 60 -24.366 -0.1624875757324979 0.07487214623933751 -0.9838658188239345 204 204 204 64 
-8 40 26.667 -0.7951270666553643 -0.4386457976858985 0.4187634320765579 204 204 204 42 
-4.592 40 -23.683 -0.4088168538060572 -0.1384955803129609 -0.9020464257885472 204 204 204 64 
8 60 -5.333 0 1 0 204 204 204 129 
-4.592 60 -23.683 -0.3438057137843527 0.2170152645890452 -0.9136202745695712 204 204 204 64 
8 40 -5.333 0 -1 0 204 204 204 129 
8 60 26.667 0.5482567420855454 0.6049109030595305 0.5774922892276976 204 204 204 240 
-6.667 40 -22.574 -0.5549314422968495 -0.304153340898239 -0.7743008714774754 204 204 204 64 
-6.667 60 -22.574 -0.4855529496383517 0.3926367911977638 -0.7810727772080012 204 204 204 64 
8 40 26.667 0.8532120180563392 -0.470690308487686 0.2246772924440656 204 204 204 42 
-8.484999999999999 40 -21.082 -0.6419198918018078 -0.4760092390275374 -0.6011273216795093 204 204 204 64 
-8.484999999999999 60 -21.082 -0.5709756422680485 0.5497416846242164 -0.609730183050764 204 204 204 64 
-9.978000000000002 40 -19.263 -0.6720283216917448 -0.6113077866415216 -0.4179482322436843 204 204 204 64 
-9.978000000000002 60 -19.263 -0.6101633325125414 0.6605700876272733 -0.4374332714703881 204 204 204 64 
-11.087 40 -17.189 -0.6694824711904308 -0.6988603617704681 -0.2517685753123381 204 204 204 64 
-11.087 60 -17.189 -0.6251478983625894 0.7272709609515294 -0.2833144093220048 204 204 204 64 
-11.769 40 -14.938 -0.6557355614054416 -0.7471969578617137 -0.1082015696304378 204 204 204 64 
-11.769 60 -14.938 -0.633088465356351 0.7598842336399722 -0.1475633643494638 204 204 204 64 
-12 40 -12.597 -0.6424711947669052 -0.7660184055205809 0.02113211533406735 204 204 204 64 
-12 60 -12.597 -0.642471194766905 0.766018405520581 -0.02113211533406735 204 204 204 64 
-11.769 40 -10.256 -0.6331469425176097 -0.759841236676291 0.1475338748452283 204 204 204 64 
-11.769 60 -10.256 -0.6556835653640104 0.7472460874016417 0.108177386613272 204 204 204 64 
-11.087 40 -8.004000000000001 -0.6251058997841366 -0.7273317140501634 0.2832511108396866 204 204 204 64 
-11.087 60 -8.004000000000001 -0.6695419979078935 0.6988228466432169 0.2517144057200091 204 204 204 64 
-9.978000000000002 40 -5.930000000000001 -0.6577914956903289 -0.5873023943339601 0.4715784619838755 204 204 204 55 
-9.978000000000002 60 -5.930000000000001 -0.7695526976214384 0.4227647883147202 0.4786006470375659 204 204 204 55 
-8.484999999999999 40 -4.111 -0.7270881087139481 -0.04855170467373526 0.6848252435038069 204 204 204 129 
-8.484999999999999 60 -4.111 -0.757773899379003 0.0327851835110153 0.6516930636136078 204 204 204 64 
-6.667 40 -2.619 0 -1 0 204 204 204 130 
-6.667 60 -2.619 0 1 0 204 204 204 225 
-4.592 40 -1.51 0 -1 0 204 204 204 225 
-4.592 60 -1.51 0 1 0 204 204 204 129 
-2.341 40 -0.8270000000000001 0 -1 0 204 204 204 225 
-2.341 60 -0.8270000000000001 0 1 0 204 204 204 225 
0 40 -0.597 0 -1 0 204 204 204 129 
0 60 -0.597 0 1 0 204 204 204 225 
2.341 40 -0.8270000000000001 0 -1 0 204 204 204 225 
2.341 60 -0.8270000000000001 0 1 0 204 204 204 129 
4.592 40 -1.51 0 -1 0 204 204 204 225 
4.592 60 -1.51 0 1 0 204 204 204 129 
6.667 40 -2.619 0 -1 0 204 204 204 129 
6.667 60 -2.619 0 1 0 204 204 204 64 
8.484999999999999 40 -4.111 0.757773899379003 -0.0327851835110153 0.6516930636136078 204 204 204 129 
8.484999999999999 60 -4.111 0.7270881087139481 0.04855170467373526 0.6848252435038069 204 204 204 129 
9.978000000000002 40 -5.930000000000001 0.7695526976214384 -0.4227647883147202 0.4786006470375659 204 204 204 55 
9.978000000000002 60 -5.930000000000001 0.6577914956903288 0.5873023943339601 0.4715784619838755 204 204 204 55 
11.087 40 -8.004000000000001 0.6695419979078935 -0.6988228466432169 0.2517144057200091 204 204 204 64 
11.087 60 -8.004000000000001 0.6251058997841366 0.7273317140501634 0.2832511108396866 204 204 204 64 
11.769 40 -10.256 0.6556835653640104 -0.7472460874016417 0.108177386613272 204 204 204 64 
11.769 60 -10.256 0.6331469425176097 0.759841236676291 0.1475338748452283 204 204 204 64 
12 40 -12.597 0.6424711947669051 -0.766018405520581 -0.02113211533406735 204 204 204 64 
12 60 -12.597 0.6424711947669052 0.7660184055205809 0.02113211533406735 204 204 204 64 
11.769 40 -14.938 0.633088465356351 -0.7598842336399722 -0.1475633643494638 204 204 204 64 
11.769 60 -14.938 0.6557355614054416 0.7471969578617137 -0.1082015696304378 204 204 204 64 
11.087 40 -17.189 0.6251478983625894 -0.7272709609515294 -0.2833144093220048 204 204 204 64 
11.087 60 -17.189 0.6694824711904308 0.6988603617704681 -0.2517685753123381 204 204 204 64 
9.978000000000002 40 -19.263 0.6101633325125414 -0.6605700876272733 -0.4374332714703881 204 204 204 64 
9.978000000000002 60 -19.263 0.6720283216917448 0.6113077866415216 -0.4179482322436843 204 204 204 64 
8.484999999999999 40 -21.082 0.5709756422680485 -0.5497416846242164 -0.6097301830507639 204 204 204 64 
8.484999999999999 60 -21.082 0.6419198918018078 0.4760092390275374 -0.6011273216795093 204 204 204 64 
6.667 40 -22.574 0.4855529496383517 -0.3926367911977638 -0.7810727772080012 204 204 204 64 
6.667 60 -22.574 0.5549314422968495 0.304153340898239 -0.7743008714774755 204 204 204 64 
4.592 40 -23.683 0.3438057137843527 -0.2170152645890452 -0.9136202745695712 204 204 204 64 
4.592 60 -23.683 0.4088168538060572 0.1384955803129609 -0.9020464257885472 204 204 204 64 
2.341 40 -24.366 0.1624875757324979 -0.07487214623933749 -0.9838658188239345 204 204 204 64 
2.341 60 -24.366 0.2271648158331668 0.03043573263325084 -0.9733806103609012 204 204 204 129 
8 60 -3.713 0.9959528512579152 0.0895295301105675 0.00789818393113065 204 204 204 42 
8 40 -3.713 0.9904273587738899 -0.1345512213800154 0.03081583711863843 204 204 204 55 
-8 60 -3.713 -0.9977147194395446 0.06571268833650086 0.01572199749587947 204 204 204 151 
-8 60 -4.917999999999999 0 1 0 204 204 204 225 
-8 40 -3.713 -0.9674468520845052 -0.2526146814101197 0.01524503617067335 204 204 204 127 
-6.634 60 -2.602 0 1 0 204 204 204 64 
6.634 40 -2.602 0 -1 0 204 204 204 129 
-7.585 60 -4.503 0 1 0 204 204 204 225 
-6.839 60 -3.011 0 1 0 204 204 204 225 
6.64 40 -2.614 0 -1 0 204 204 204 130 
3 1 0 3 
3 3 0 2 
3 3 2 7 
3 7 2 6 
3 7 6 5 
3 5 6 4 
3 5 4 1 
3 1 4 0 
3 6 2 4 
3 4 2 0 
3 3 7 1 
3 1 7 5 
3 81 23 54 
3 54 23 86 
3 86 23 52 
3 52 23 50 
3 50 23 48 
3 48 23 15 
3 48 15 46 
3 46 15 44 
3 44 15 42 
3 42 15 84 
3 42 84 44 
3 44 84 46 
3 46 84 48 
3 48 84 50 
3 50 84 52 
3 52 84 86 
3 86 84 89 
3 89 84 54 
3 54 84 81 
3 81 84 19 
3 19 84 11 
3 89 54 86 
3 56 81 19 
3 56 19 58 
3 58 19 11 
3 58 11 38 
3 38 11 40 
3 12 8 78 
3 12 78 16 
3 16 78 76 
3 16 76 21 
3 21 76 74 
3 21 74 24 
3 24 74 72 
3 24 72 26 
3 26 72 70 
3 26 70 28 
3 28 70 68 
3 28 68 30 
3 30 68 66 
3 30 66 32 
3 32 66 64 
3 32 64 34 
3 34 64 62 
3 34 62 36 
3 36 62 60 
3 36 60 38 
3 38 60 58 
3 40 11 84 
3 82 13 43 
3 43 13 85 
3 85 13 45 
3 45 13 47 
3 47 13 49 
3 49 13 20 
3 49 20 51 
3 51 20 53 
3 53 20 55 
3 55 20 80 
3 43 85 88 
3 47 49 51 
3 47 51 45 
3 45 51 53 
3 45 53 85 
3 85 53 55 
3 85 55 88 
3 88 55 82 
3 88 82 43 
3 55 80 82 
3 82 80 87 
3 87 80 9 
3 9 80 17 
3 82 87 83 
3 9 83 87 
3 13 15 20 
3 20 15 23 
3 20 23 80 
3 80 23 81 
3 13 82 15 
3 15 82 84 
3 10 8 14 
3 14 8 12 
3 14 12 18 
3 18 12 16 
3 18 16 22 
3 22 16 21 
3 22 21 25 
3 25 21 24 
3 25 24 27 
3 27 24 26 
3 27 26 29 
3 29 26 28 
3 29 28 31 
3 31 28 30 
3 31 30 33 
3 33 30 32 
3 33 32 35 
3 35 32 34 
3 35 34 37 
3 37 34 36 
3 37 36 39 
3 39 36 38 
3 39 38 41 
3 41 38 40 
3 41 40 82 
3 82 40 84 
3 56 57 81 
3 81 57 80 
3 57 56 59 
3 59 56 58 
3 59 58 61 
3 61 58 60 
3 61 60 63 
3 63 60 62 
3 63 62 65 
3 65 62 64 
3 65 64 67 
3 67 64 66 
3 67 66 69 
3 69 66 68 
3 69 68 71 
3 71 68 70 
3 71 70 73 
3 73 70 72 
3 73 72 75 
3 75 72 74 
3 75 74 77 
3 77 74 76 
3 17 59 39 
3 17 39 9 
3 9 39 41 
3 9 41 83 
3 83 41 82 
3 59 17 57 
3 57 17 80 
3 79 10 14 
3 79 14 77 
3 77 14 18 
3 77 18 75 
3 75 18 22 
3 75 22 73 
3 73 22 25 
3 73 25 71 
3 71 25 27 
3 71 27 69 
3 69 27 29 
3 69 29 67 
3 67 29 31 
3 67 31 65 
3 65 31 33 
3 65 33 63 
3 63 33 35 
3 63 35 61 
3 61 35 37 
3 61 37 59 
3 59 37 39 
3 77 76 79 
3 79 76 78 
3 79 78 10 
3 10 78 8 
