# Blender v3.4.1 OBJ File: 'Key_cube_cap_rotated45.blend'
# www.blender.org
mtllib Key_cube_cap_rotated45.mtl
o Cap_Cube.006
v -0.040000 -0.040000 0.040000
v -0.040000 0.040000 0.040000
v -0.040000 -0.040000 -0.040000
v -0.040000 0.040000 -0.040000
v 0.040000 -0.040000 0.040000
v 0.040000 0.040000 0.040000
v 0.040000 -0.040000 -0.040000
v 0.040000 0.040000 -0.040000
v -0.017392 0.040000 -0.017392
v 0.001886 0.060000 -0.009428
v -0.017392 0.060000 -0.017392
v 0.001886 0.040000 -0.009428
v -0.015574 0.040000 -0.018885
v 0.024513 0.060000 0.013199
v -0.015574 0.060000 -0.018885
v 0.024513 0.040000 0.013199
v -0.013499 0.040000 -0.019994
v -0.009428 0.060000 0.001886
v -0.013499 0.060000 -0.019994
v -0.009428 0.040000 0.001886
v 0.013199 0.060000 0.024513
v -0.011248 0.040000 -0.020677
v -0.011248 0.060000 -0.020677
v 0.013199 0.040000 0.024513
v -0.008907 0.040000 -0.020907
v -0.008907 0.060000 -0.020907
v -0.006566 0.040000 -0.020677
v -0.006566 0.060000 -0.020677
v -0.004315 0.040000 -0.019994
v -0.004315 0.060000 -0.019994
v -0.002240 0.040000 -0.018885
v -0.002240 0.060000 -0.018885
v -0.000422 0.040000 -0.017392
v -0.000422 0.060000 -0.017392
v 0.001070 0.040000 -0.015574
v 0.001070 0.060000 -0.015574
v 0.002179 0.040000 -0.013499
v 0.002179 0.060000 -0.013499
v 0.002862 0.040000 -0.011248
v 0.002862 0.060000 -0.011248
v 0.003093 0.040000 -0.008907
v 0.003093 0.060000 -0.008907
v 0.002862 0.040000 -0.006566
v 0.002862 0.060000 -0.006566
v 0.002179 0.040000 -0.004315
v 0.002179 0.060000 -0.004315
v 0.001070 0.040000 -0.002240
v 0.001070 0.060000 -0.002240
v -0.000422 0.040000 -0.000422
v -0.000422 0.060000 -0.000422
v -0.002240 0.040000 0.001070
v -0.002240 0.060000 0.001070
v -0.004315 0.040000 0.002179
v -0.004315 0.060000 0.002179
v -0.006566 0.040000 0.002862
v -0.006566 0.060000 0.002862
v -0.008907 0.040000 0.003093
v -0.008907 0.060000 0.003093
v -0.011248 0.040000 0.002862
v -0.011248 0.060000 0.002862
v -0.013499 0.040000 0.002179
v -0.013499 0.060000 0.002179
v -0.015574 0.040000 0.001070
v -0.015574 0.060000 0.001070
v -0.017392 0.040000 -0.000422
v -0.017392 0.060000 -0.000422
v -0.018885 0.040000 -0.002240
v -0.018885 0.060000 -0.002240
v -0.019994 0.040000 -0.004315
v -0.019994 0.060000 -0.004315
v -0.020677 0.040000 -0.006566
v -0.020677 0.060000 -0.006566
v -0.020907 0.040000 -0.008907
v -0.020907 0.060000 -0.008907
v -0.020677 0.040000 -0.011248
v -0.020677 0.060000 -0.011248
v -0.019994 0.040000 -0.013499
v -0.019994 0.060000 -0.013499
v -0.018885 0.040000 -0.015574
v -0.018885 0.060000 -0.015574
v -0.008282 0.060000 0.003031
v -0.008282 0.040000 0.003031
v 0.003031 0.060000 -0.008282
v 0.002179 0.060000 -0.009134
v 0.003031 0.040000 -0.008282
v 0.002852 0.060000 -0.006531
v -0.006531 0.040000 0.002852
v 0.002179 0.060000 -0.008547
v 0.002707 0.060000 -0.006965
v -0.006544 0.040000 0.002847
vt 0.375000 0.000000
vt 0.625000 0.000000
vt 0.625000 0.250000
vt 0.375000 0.250000
vt 0.625000 0.500000
vt 0.375000 0.500000
vt 0.625000 0.750000
vt 0.375000 0.750000
vt 0.625000 1.000000
vt 0.375000 1.000000
vt 0.125000 0.500000
vt 0.125000 0.750000
vt 0.875000 0.500000
vt 0.875000 0.750000
vt 0.354169 0.521205
vt 0.375000 0.512657
vt 0.375000 0.750000
vt 0.125000 0.750000
vt 0.125000 0.512657
vt 0.145831 0.521205
vt 0.146342 0.521342
vt 0.178247 0.529868
vt 0.213421 0.535203
vt 0.250000 0.537005
vt 0.286579 0.535203
vt 0.321753 0.529868
vt 0.146246 0.521246
vt 0.125000 0.500000
vt 0.375000 0.500000
vt 0.590000 0.072329
vt 0.580294 0.080294
vt 0.550447 0.116663
vt 0.528269 0.158156
vt 0.514612 0.203178
vt 0.510000 0.250000
vt 0.514612 0.296822
vt 0.528269 0.341844
vt 0.550447 0.383337
vt 0.580294 0.419706
vt 0.616663 0.449553
vt 0.658156 0.471731
vt 0.703178 0.485388
vt 0.750000 0.490000
vt 0.796822 0.485388
vt 0.841844 0.471731
vt 0.883337 0.449553
vt 0.919706 0.419706
vt 0.949553 0.383337
vt 0.971731 0.341844
vt 0.985388 0.296822
vt 0.990000 0.250000
vt 0.985388 0.203178
vt 0.971731 0.158156
vt 0.949553 0.116663
vt 0.919706 0.080294
vt 0.910000 0.072329
vt 0.910000 0.104732
vt 0.590000 0.104732
vt 0.875000 0.512657
vt 0.875000 0.750000
vt 0.625000 0.750000
vt 0.625000 0.512657
vt 0.645831 0.521205
vt 0.646342 0.521342
vt 0.678247 0.529868
vt 0.713420 0.535203
vt 0.750000 0.537005
vt 0.786579 0.535203
vt 0.821753 0.529868
vt 0.854169 0.521205
vt 0.643139 0.518139
vt 0.625000 0.503245
vt 0.631490 0.506490
vt 0.625000 0.500000
vt 0.875000 0.500000
vt 0.625000 1.000000
vt 0.375000 1.000000
vt 0.375000 0.000000
vt 0.625000 0.000000
vt 0.625000 0.237343
vt 0.375000 0.237343
vt 1.000000 0.500000
vt 1.000000 1.000000
vt 0.968750 1.000000
vt 0.968750 0.500000
vt 0.937500 1.000000
vt 0.937500 0.500000
vt 0.906250 1.000000
vt 0.906250 0.500000
vt 0.875000 1.000000
vt 0.875000 0.500000
vt 0.843750 1.000000
vt 0.843750 0.500000
vt 0.812500 1.000000
vt 0.812500 0.500000
vt 0.781250 1.000000
vt 0.781250 0.500000
vt 0.750000 1.000000
vt 0.750000 0.500000
vt 0.718750 1.000000
vt 0.718750 0.500000
vt 0.687500 1.000000
vt 0.687500 0.500000
vt 0.656250 1.000000
vt 0.656250 0.500000
vt 0.625000 1.000000
vt 0.625000 0.500000
vt 0.616660 1.000000
vt 0.616660 0.500000
vt 0.375000 1.000000
vt 0.375000 0.500000
vt 0.383340 0.500000
vt 0.383340 1.000000
vt 0.343750 1.000000
vt 0.343750 0.500000
vt 0.312500 1.000000
vt 0.312500 0.500000
vt 0.281250 1.000000
vt 0.281250 0.500000
vt 0.250000 1.000000
vt 0.250000 0.500000
vt 0.218750 1.000000
vt 0.218750 0.500000
vt 0.187500 1.000000
vt 0.187500 0.500000
vt 0.156250 1.000000
vt 0.156250 0.500000
vt 0.125000 1.000000
vt 0.125000 0.500000
vt 0.093750 1.000000
vt 0.093750 0.500000
vt 0.062500 1.000000
vt 0.062500 0.500000
vt 0.410000 0.072329
vt 0.419706 0.080294
vt 0.449553 0.116663
vt 0.471731 0.158156
vt 0.485388 0.203178
vt 0.490000 0.250000
vt 0.485388 0.296822
vt 0.471731 0.341844
vt 0.449553 0.383337
vt 0.419706 0.419706
vt 0.383337 0.449553
vt 0.341844 0.471731
vt 0.296822 0.485388
vt 0.250000 0.490000
vt 0.203178 0.485388
vt 0.158156 0.471731
vt 0.116663 0.449553
vt 0.080294 0.419706
vt 0.050447 0.383337
vt 0.028269 0.341844
vt 0.014612 0.296822
vt 0.010000 0.250000
vt 0.014612 0.203178
vt 0.028269 0.158156
vt 0.050447 0.116663
vt 0.080294 0.080294
vt 0.090000 0.072329
vt 0.090000 0.104732
vt 0.410000 0.104732
vt 0.410000 0.096425
vt 0.031250 1.000000
vt 0.031250 0.500000
vt 0.000000 1.000000
vt 0.000000 0.500000
vn -1.0000 0.0000 0.0000
vn 0.0000 0.0000 -1.0000
vn 1.0000 0.0000 0.0000
vn 0.0000 0.0000 1.0000
vn 0.0000 -1.0000 0.0000
vn 0.0000 1.0000 0.0000
vn 0.0000 -1.0000 0.0004
vn 0.0000 1.0000 -0.0002
vn 0.7071 0.0000 0.7071
vn -0.7071 0.0000 0.7071
vn 0.7071 0.0000 -0.7071
vn -0.6344 0.0000 -0.7730
vn -0.4714 0.0000 -0.8819
vn -0.2903 0.0000 -0.9569
vn -0.0980 0.0000 -0.9952
vn 0.0980 0.0000 -0.9952
vn 0.2903 0.0000 -0.9569
vn 0.4714 0.0000 -0.8819
vn 0.6344 0.0000 -0.7730
vn 0.7730 0.0000 -0.6344
vn 0.8819 0.0000 -0.4714
vn 0.9569 0.0000 -0.2903
vn 0.9952 0.0000 -0.0980
vn 0.9952 0.0000 0.0980
vn 0.0980 0.0000 0.9952
vn -0.0980 0.0000 0.9952
vn -0.2903 0.0000 0.9569
vn -0.4714 0.0000 0.8819
vn -0.6344 0.0000 0.7730
vn -0.7730 0.0000 0.6344
vn -0.8819 0.0000 0.4714
vn -0.9569 0.0000 0.2903
vn -0.9952 0.0000 0.0980
vn -0.9952 0.0000 -0.0980
vn -0.9569 0.0000 -0.2903
vn -0.8819 0.0000 -0.4714
vn -0.7730 0.0000 -0.6344
usemtl Red
s off
f 1/1/1 2/2/1 4/3/1 3/4/1
f 3/4/2 4/3/2 8/5/2 7/6/2
f 7/6/3 8/5/3 6/7/3 5/8/3
f 5/8/4 6/7/4 2/9/4 1/10/4
f 3/11/5 7/6/5 5/8/5 1/12/5
f 8/5/6 4/13/6 2/14/6 6/7/6
f 43/15/5 85/16/5 16/17/5 24/18/5 82/19/5 55/20/5 87/21/5 53/22/5 51/23/5 49/24/5 47/25/5 45/26/5
f 85/16/5 43/15/5 45/26/5 47/25/5 49/24/5 51/23/5 53/22/5 87/21/5 90/27/5 55/20/5 82/19/5 20/28/5 12/29/5
f 55/20/7 90/27/7 87/21/7
f 82/30/5 57/31/5 59/32/5 61/33/5 63/34/5 65/35/5 67/36/5 69/37/5 71/38/5 73/39/5 75/40/5 77/41/5 79/42/5 9/43/5 13/44/5 17/45/5 22/46/5 25/47/5 27/48/5 29/49/5 31/50/5 33/51/5 35/52/5 37/53/5 39/54/5 41/55/5 85/56/5 12/57/5 20/58/5
usemtl Blue
f 81/59/6 21/60/6 14/61/6 83/62/6 44/63/6 86/64/6 46/65/6 48/66/6 50/67/6 52/68/6 54/69/6 56/70/6
f 86/64/8 44/63/8 89/71/8
f 44/63/6 83/62/6 84/72/6 88/73/6 10/74/6 18/75/6 81/59/6 56/70/6 54/69/6 52/68/6 50/67/6 48/66/6 46/65/6 86/64/6 89/71/6
f 84/72/6 10/74/6 88/73/6
f 16/17/9 14/61/9 21/76/9 24/77/9
f 24/78/10 21/79/10 81/80/10 82/81/10
f 83/62/11 14/61/11 16/17/11 85/16/11
f 9/82/12 11/83/12 15/84/12 13/85/12
f 13/85/13 15/84/13 19/86/13 17/87/13
f 17/87/14 19/86/14 23/88/14 22/89/14
f 22/89/15 23/88/15 26/90/15 25/91/15
f 25/91/16 26/90/16 28/92/16 27/93/16
f 27/93/17 28/92/17 30/94/17 29/95/17
f 29/95/18 30/94/18 32/96/18 31/97/18
f 31/97/19 32/96/19 34/98/19 33/99/19
f 33/99/20 34/98/20 36/100/20 35/101/20
f 35/101/21 36/100/21 38/102/21 37/103/21
f 37/103/22 38/102/22 40/104/22 39/105/22
f 39/105/23 40/104/23 42/106/23 41/107/23
f 41/107/24 42/106/24 83/108/24 85/109/24
f 58/110/25 57/111/25 82/112/25 81/113/25
f 57/111/26 58/110/26 60/114/26 59/115/26
f 59/115/27 60/114/27 62/116/27 61/117/27
f 61/117/28 62/116/28 64/118/28 63/119/28
f 63/119/29 64/118/29 66/120/29 65/121/29
f 65/121/30 66/120/30 68/122/30 67/123/30
f 67/123/31 68/122/31 70/124/31 69/125/31
f 69/125/32 70/124/32 72/126/32 71/127/32
f 71/127/33 72/126/33 74/128/33 73/129/33
f 73/129/34 74/128/34 76/130/34 75/131/34
f 75/131/35 76/130/35 78/132/35 77/133/35
f 83/134/6 42/135/6 40/136/6 38/137/6 36/138/6 34/139/6 32/140/6 30/141/6 28/142/6 26/143/6 23/144/6 19/145/6 15/146/6 11/147/6 80/148/6 78/149/6 76/150/6 74/151/6 72/152/6 70/153/6 68/154/6 66/155/6 64/156/6 62/157/6 60/158/6 58/159/6 81/160/6 18/161/6 10/162/6 84/163/6
f 77/133/36 78/132/36 80/164/36 79/165/36
f 79/165/37 80/164/37 11/166/37 9/167/37
