ply
format ascii 1.0
comment VCGLIB generated
element vertex 90
property float x
property float y
property float z
property float nx
property float ny
property float nz
property uchar red
property uchar green
property uchar blue
property uchar alpha
element face 172
property list uchar int vertex_indices
end_header
40 -40 40 0.816496580927726 -0.408248290463863 0.408248290463863 204 204 204 225 
40 40 40 0.3333333333333333 0.6666666666666666 0.6666666666666666 204 204 204 129 
40 -40 -40 0.3333333333333333 -0.6666666666666666 -0.6666666666666666 204 204 204 129 
40 40 -40 0.816496580927726 0.408248290463863 -0.408248290463863 204 204 204 225 
-40 -40 40 -0.3333333333333333 -0.6666666666666666 0.6666666666666666 204 204 204 129 
-40 40 40 -0.816496580927726 0.408248290463863 0.408248290463863 204 204 204 225 
-40 -40 -40 -0.816496580927726 -0.408248290463863 -0.408248290463863 204 204 204 225 
-40 40 -40 -0.3333333333333333 0.6666666666666666 -0.6666666666666666 204 204 204 129 
17.392 40 -17.392 0.5710963813337642 -0.5496140512376609 -0.609732168996852 204 204 204 64 
-1.886 60 -9.428000000000001 0 1 0 204 204 204 64 
17.392 60 -17.392 0.6418208207258996 0.4761119949078748 -0.6011517299214704 204 204 204 64 
-1.886 40 -9.428000000000001 0 -1 0 204 204 204 64 
15.574 40 -18.885 0.4856151471071279 -0.3927795459040537 -0.7809623276570566 204 204 204 64 
-24.513 60 13.199 -0.5775509427742536 0.7964731809181874 -0.1790680892248395 204 204 204 159 
15.574 60 -18.885 0.5551037984838465 0.3041895886303549 -0.774163075248168 204 204 204 64 
-24.513 40 13.199 -0.7976866463892349 -0.5500259575144769 -0.2473205616857978 204 204 204 27 
13.499 40 -19.994 0.3438057137843529 -0.2170152645890457 -0.9136202745695711 204 204 204 64 
9.428000000000001 60 1.886 0 1 0 204 204 204 20 
13.499 60 -19.994 0.4088168538060581 0.1384955803129611 -0.9020464257885468 204 204 204 64 
9.428000000000001 40 1.886 0 -1 0 204 204 204 192 
-13.199 60 24.513 -0.02274951767715957 0.4824678224861477 0.875618215725856 204 204 204 225 
11.248 40 -20.677 0.1622116324634315 -0.07484255971669221 -0.9839136026850132 204 204 204 64 
11.248 60 -20.677 0.2270301349351837 0.03040344607715671 -0.9734130409532974 204 204 204 129 
-13.199 40 24.513 0.4698152900777618 -0.3607731518425112 0.805677557164632 204 204 204 225 
8.907 40 -20.907 -0.03273102799914027 -0.007662333654598738 -0.9994348245128769 204 204 204 225 
8.907 60 -20.907 0.03273102799914027 0.007662333654598738 -0.9994348245128769 204 204 204 225 
6.566 40 -20.677 -0.2270301349351838 -0.03040344607715672 -0.9734130409532974 204 204 204 129 
6.566 60 -20.677 -0.1622116324634315 0.07484255971669221 -0.9839136026850132 204 204 204 64 
4.315 40 -19.994 -0.4088168538060579 -0.138495580312961 -0.9020464257885469 204 204 204 64 
4.315 60 -19.994 -0.3438057137843529 0.2170152645890457 -0.9136202745695708 204 204 204 64 
2.24 40 -18.885 -0.5551037984838465 -0.3041895886303548 -0.7741630752481681 204 204 204 64 
2.24 60 -18.885 -0.4856151471071278 0.3927795459040536 -0.7809623276570568 204 204 204 64 
0.422 40 -17.392 -0.6419173850248712 -0.4761836277055896 -0.6009918664241437 204 204 204 64 
0.422 60 -17.392 -0.5711377774697936 0.5496538902189124 -0.6096574776988143 204 204 204 64 
-1.07 40 -15.574 -0.6721699732403499 -0.611216697908489 -0.4178536529359414 204 204 204 64 
-1.07 60 -15.574 -0.6101183946193858 0.6607236611730644 -0.4372639798944399 204 204 204 64 
-2.179 40 -13.499 -0.6694192412248575 -0.6988699371775013 -0.2519100839336358 204 204 204 64 
-2.179 60 -13.499 -0.6252049723618536 0.727208257540464 -0.283349418031829 204 204 204 64 
-2.862 40 -11.248 -0.6783169196791383 -0.726179345060088 -0.1120255117600769 204 204 204 55 
-2.862 60 -11.248 -0.6616515194530985 0.7337393758895944 -0.1544143616201371 204 204 204 55 
-3.093 40 -8.907 -0.9983780636309557 -0.04854148342116069 -0.02974838563311378 204 204 204 129 
-3.093 60 -8.907 -0.996635139161968 0.0327964229492656 -0.07511853319479682 204 204 204 64 
-2.862 40 -6.566 0 -1 0 204 204 204 130 
-2.862 60 -6.566 0 1 0 204 204 204 225 
-2.179 40 -4.315 0 -1 0 204 204 204 225 
-2.179 60 -4.315 0 1 0 204 204 204 225 
-1.07 40 -2.24 0 -1 0 204 204 204 225 
-1.07 60 -2.24 0 1 0 204 204 204 225 
0.422 40 -0.422 0 -1 0 204 204 204 225 
0.422 60 -0.422 0 1 0 204 204 204 225 
2.24 40 1.07 0 -1 0 204 204 204 225 
2.24 60 1.07 0 1 0 204 204 204 225 
4.315 40 2.179 0 -1 0 204 204 204 225 
4.315 60 2.179 0 1 0 204 204 204 129 
6.566 40 2.862 0 -1 0 204 204 204 129 
6.566 60 2.862 0 1 0 204 204 204 130 
8.907 40 3.093 0.07515868674109684 -0.002719964688652775 0.9971678763375033 204 204 204 225 
8.907 60 3.093 0.02978325361379251 0.004029326278740391 0.9995482591320521 204 204 204 225 
11.248 40 2.862 0.2272485678859787 -0.01376636819151381 0.9737394803029131 204 204 204 129 
11.248 60 2.862 0.1629294984259233 0.0137663046373955 0.9865416703815948 204 204 204 129 
13.499 40 2.179 0.411356346121228 -0.08341377921652499 0.9076497661227095 204 204 204 64 
13.499 60 2.179 0.3509716876695831 0.08341885146058672 0.932662945374888 204 204 204 64 
15.574 40 1.07 0.5801248865794048 -0.09077514438601288 0.8094535126447543 204 204 204 129 
15.574 60 1.07 0.5257716438361298 0.09076333531876454 0.8457695877126745 204 204 204 129 
17.392 40 -0.422 0.7233966529412909 -0.1320329520576635 0.6776906241673086 204 204 204 129 
17.392 60 -0.422 0.6774688554154945 0.132044718168504 0.7236021989641962 204 204 204 129 
18.885 40 -2.24 0.8349589824830608 -0.1824391602542297 0.5191911501331501 204 204 204 129 
18.885 60 -2.24 0.7990344144739412 0.1824463009022026 0.5729374763212726 204 204 204 129 
19.994 40 -4.315 0.9087963583253448 -0.2390224514417189 0.341990419166068 204 204 204 129 
19.994 60 -4.315 0.8844259764073931 0.2390086520372325 0.4008310822618106 204 204 204 129 
20.677 40 -6.566 0.9417241041195874 -0.2984145610042596 0.1552561158241294 204 204 204 129 
20.677 60 -6.566 0.9294912643720962 0.298412009071947 0.2167862133476349 204 204 204 129 
20.907 40 -8.907 0.3919924723127188 -0.919878849845765 -0.0128375720677667 204 204 204 64 
20.907 60 -8.907 0.3528379132402824 0.9356131051464922 0.01155527837751176 204 204 204 55 
20.677 40 -11.248 0.6680456641245215 -0.7276252820227065 -0.155808984355215 204 204 204 64 
20.677 60 -11.248 0.655736844878494 0.7472094911727937 -0.1081071994369132 204 204 204 64 
19.994 40 -13.499 0.6252049723618534 -0.7272082575404639 -0.2833494180318292 204 204 204 64 
19.994 60 -13.499 0.6694192412248575 0.6988699371775013 -0.2519100839336359 204 204 204 64 
18.885 40 -15.574 0.6100613867253381 -0.660661924853027 -0.4374367674033023 204 204 204 64 
18.885 60 -15.574 0.6721383372474175 0.6111879307098562 -0.4179466101751287 204 204 204 64 
8.282 60 3.031 0.6451287301242297 0.3927103402848654 0.6554292564431681 204 204 204 192 
8.282 40 3.031 0.5097891452387047 -0.6676395945281706 0.5425609635930796 204 204 204 192 
-3.031 60 -8.282 -0.7171014442878766 0.0543284809538547 -0.6948481379103554 204 204 204 192 
-2.179 60 -9.134 0 1 0 204 204 204 225 
-3.031 40 -8.282 -0.6948721126776752 -0.2526029116848244 -0.6733086335635486 204 204 204 127 
-2.852 60 -6.531000000000001 0 1 0 204 204 204 129 
6.531000000000001 40 2.852 0 -1 0 204 204 204 129 
-2.179 60 -8.547000000000001 0 1 0 204 204 204 225 
-2.707 60 -6.965 0 1 0 204 204 204 225 
6.544 40 2.847 0 -1 0 204 204 204 130 
3 1 0 3 
3 3 0 2 
3 3 2 7 
3 7 2 6 
3 7 6 5 
3 5 6 4 
3 5 4 1 
3 1 4 0 
3 6 2 4 
3 4 2 0 
3 3 7 1 
3 1 7 5 
3 23 15 81 
3 81 15 54 
3 54 15 86 
3 86 15 52 
3 52 15 50 
3 50 15 48 
3 48 15 46 
3 46 15 44 
3 44 15 42 
3 42 15 84 
3 42 84 44 
3 44 84 46 
3 46 84 48 
3 48 84 50 
3 50 84 52 
3 52 84 86 
3 86 84 89 
3 89 84 54 
3 54 84 81 
3 81 84 19 
3 19 84 11 
3 89 54 86 
3 58 56 81 
3 58 81 60 
3 60 81 19 
3 60 19 62 
3 62 19 64 
3 64 19 66 
3 66 19 68 
3 68 19 70 
3 70 19 72 
3 72 19 11 
3 26 24 21 
3 26 21 28 
3 28 21 16 
3 28 16 30 
3 30 16 12 
3 30 12 32 
3 32 12 8 
3 32 8 34 
3 34 8 78 
3 34 78 36 
3 36 78 76 
3 36 76 38 
3 38 76 74 
3 38 74 11 
3 11 74 72 
3 38 11 40 
3 40 11 84 
3 82 13 43 
3 43 13 85 
3 85 13 45 
3 45 13 47 
3 47 13 49 
3 49 13 51 
3 51 13 53 
3 53 13 55 
3 55 13 80 
3 80 13 20 
3 43 85 88 
3 83 82 87 
3 87 82 17 
3 17 82 88 
3 88 82 43 
3 51 53 17 
3 17 53 80 
3 80 53 55 
3 51 17 49 
3 49 17 47 
3 47 17 45 
3 45 17 85 
3 85 17 88 
3 87 17 9 
3 9 83 87 
3 13 15 20 
3 20 15 23 
3 20 23 80 
3 80 23 81 
3 13 82 15 
3 15 82 84 
3 10 8 14 
3 14 8 12 
3 14 12 18 
3 18 12 16 
3 18 16 22 
3 22 16 21 
3 22 21 25 
3 25 21 24 
3 25 24 27 
3 27 24 26 
3 27 26 29 
3 29 26 28 
3 29 28 31 
3 31 28 30 
3 31 30 33 
3 33 30 32 
3 33 32 35 
3 35 32 34 
3 35 34 37 
3 37 34 36 
3 37 36 39 
3 39 36 38 
3 39 38 41 
3 41 38 40 
3 41 40 82 
3 82 40 84 
3 56 57 81 
3 81 57 80 
3 57 56 59 
3 59 56 58 
3 59 58 61 
3 61 58 60 
3 61 60 63 
3 63 60 62 
3 63 62 65 
3 65 62 64 
3 65 64 67 
3 67 64 66 
3 67 66 69 
3 69 66 68 
3 69 68 71 
3 71 68 70 
3 71 70 73 
3 73 70 72 
3 73 72 75 
3 75 72 74 
3 75 74 77 
3 77 74 76 
3 73 75 39 
3 73 39 9 
3 9 39 41 
3 9 41 83 
3 83 41 82 
3 63 65 17 
3 63 17 61 
3 61 17 80 
3 61 80 59 
3 59 80 57 
3 9 17 73 
3 73 17 71 
3 71 17 69 
3 69 17 67 
3 67 17 65 
3 22 25 27 
3 22 27 18 
3 18 27 29 
3 18 29 14 
3 14 29 31 
3 14 31 10 
3 10 31 33 
3 10 33 79 
3 79 33 35 
3 79 35 77 
3 77 35 37 
3 77 37 75 
3 75 37 39 
3 77 76 79 
3 79 76 78 
3 79 78 10 
3 10 78 8 
