# Blender v3.4.1 OBJ File: 'Line_cube_bottle.blend'
# www.blender.org
mtllib Line_cube_bottle.mtl
o Bottle.001_Cube.003
v -0.040000 -0.040000 0.040000
v -0.040000 0.040000 0.040000
v 0.013200 0.015000 -0.030800
v -0.040000 -0.040000 -0.040000
v -0.040000 0.040000 -0.040000
v 0.013200 0.015000 0.030800
v 0.040000 -0.040000 0.040000
v 0.040000 0.040000 0.040000
v -0.013200 0.015000 -0.030800
v 0.040000 -0.040000 -0.040000
v 0.040000 0.040000 -0.040000
v -0.013200 0.015000 0.030800
v 0.013200 0.040000 -0.030800
v -0.013200 0.040000 -0.030800
v -0.013200 0.040000 0.030800
v 0.013200 0.040000 0.030800
vt 0.375000 0.000000
vt 0.625000 0.000000
vt 0.625000 0.250000
vt 0.375000 0.250000
vt 0.625000 0.500000
vt 0.375000 0.500000
vt 0.625000 0.750000
vt 0.375000 0.750000
vt 0.625000 1.000000
vt 0.375000 1.000000
vt 0.125000 0.500000
vt 0.125000 0.750000
vt 0.791250 0.721250
vt 0.875000 0.750000
vt 0.708750 0.721250
vt 0.875000 0.500000
vt 0.791250 0.528750
vt 0.708750 0.528750
vt 0.375000 0.750000
vt 0.375000 1.000000
vt 0.590517 1.000000
vt 0.590517 0.750000
vt 0.590517 0.000000
vt 0.375000 0.000000
vt 0.375000 0.250000
vt 0.590517 0.250000
vt 0.125000 0.500000
vt 0.125000 0.750000
vt 0.375000 0.500000
vt 0.590517 0.500000
vn -1.0000 0.0000 0.0000
vn 0.0000 0.0000 -1.0000
vn 1.0000 0.0000 0.0000
vn 0.0000 0.0000 1.0000
vn 0.0000 -1.0000 0.0000
vn 0.0000 1.0000 -0.0000
usemtl Red
s off
f 1/1/1 2/2/1 5/3/1 4/4/1
f 4/4/2 5/3/2 11/5/2 10/6/2
f 10/6/3 11/5/3 8/7/3 7/8/3
f 7/8/4 8/7/4 2/9/4 1/10/4
f 4/11/5 10/6/5 7/8/5 1/12/5
f 15/13/6 2/14/6 8/7/6 16/15/6
f 16/15/6 8/7/6 11/5/6 5/16/6 2/14/6 15/13/6 14/17/6 13/18/6
usemtl Blue
f 6/19/2 12/20/2 15/21/2 16/22/2
f 15/23/3 12/24/3 9/25/3 14/26/3
f 9/27/6 12/28/6 6/19/6 3/29/6
f 3/29/1 6/19/1 16/22/1 13/30/1
f 14/26/4 9/25/4 3/29/4 13/30/4
