ply
format ascii 1.0
comment VCGLIB generated
element vertex 16
property float x
property float y
property float z
property float nx
property float ny
property float nz
property uchar red
property uchar green
property uchar blue
property uchar alpha
element face 24
property list uchar int vertex_indices
end_header
40 -40 40 0.816496580927726 -0.408248290463863 0.408248290463863 204 204 204 225 
40 40 40 0.3333333333333333 0.6666666666666666 0.6666666666666666 204 204 204 129 
40 -40 -40 0.3333333333333333 -0.6666666666666666 -0.6666666666666666 204 204 204 129 
40 40 -40 0.816496580927726 0.408248290463863 -0.408248290463863 204 204 204 225 
-40 -40 40 -0.3333333333333333 -0.6666666666666666 0.6666666666666666 204 204 204 129 
-40 40 40 -0.816496580927726 0.408248290463863 0.408248290463863 204 204 204 225 
-40 -40 -40 -0.816496580927726 -0.408248290463863 -0.408248290463863 204 204 204 225 
-40 40 -40 -0.3333333333333333 0.6666666666666666 -0.6666666666666666 204 204 204 129 
11.314 60 -28.284 -0.03690712760147846 0.8766624250906302 -0.4796882908373138 204 204 204 129 
11.314 40 -28.284 -0.4685735313759665 -0.5060121694811993 -0.7241481409427121 204 204 204 225 
-28.284 60 11.314 -0.7241481409427121 0.5060121694811993 -0.4685735313759665 204 204 204 225 
-28.284 40 11.314 -0.4796882908373137 -0.8766624250906302 -0.03690712760147846 204 204 204 129 
28.284 60 -11.314 0.7241481409427121 0.5060121694811993 0.4685735313759665 204 204 204 225 
28.284 40 -11.314 0.4796882908373138 -0.8766624250906302 0.03690712760147846 204 204 204 129 
-11.314 60 28.284 0.03690712760147846 0.8766624250906302 0.4796882908373137 204 204 204 129 
-11.314 40 28.284 0.4685735313759665 -0.5060121694811993 0.7241481409427121 204 204 204 225 
3 1 0 3 
3 3 0 2 
3 3 2 7 
3 7 2 6 
3 7 6 5 
3 5 6 4 
3 5 4 1 
3 1 4 0 
3 6 2 4 
3 4 2 0 
3 3 7 1 
3 1 7 5 
3 9 13 11 
3 11 13 15 
3 12 8 14 
3 14 8 10 
3 10 11 14 
3 14 11 15 
3 14 15 12 
3 12 15 13 
3 8 9 10 
3 10 9 11 
3 12 13 8 
3 8 13 9 
