ply
format ascii 1.0
comment VCGLIB generated
element vertex 18
property float x
property float y
property float z
property float nx
property float ny
property float nz
property uchar red
property uchar green
property uchar blue
property uchar alpha
element face 32
property list uchar int vertex_indices
end_header
-40 -40 40 -0.816496580927726 -0.408248290463863 0.408248290463863 204 204 204 225 
0 15 -31.551 0.2049236317803875 0.491931473506727 0.846173581785343 204 204 204 225 
-40 40 40 -0.4384225797977738 0.1973023254229994 0.8768451595955477 204 204 204 64 
-40 -40 -40 -0.3333333333333333 -0.6666666666666666 -0.6666666666666666 204 204 204 129 
30.007 15 -9.75 -0.5091854360959472 0.8446056439862004 0.1654433371714791 204 204 204 55 
-40 40 -40 -0.880011262819981 0.1788161671591188 -0.4400056314099905 204 204 204 64 
40 -40 40 0.3333333333333333 -0.6666666666666666 0.6666666666666666 204 204 204 129 
18.545 15 25.525 -0.3315793434705108 0.4919311139728497 -0.8050210668604246 204 204 204 225 
40 40 40 0.8699710972952296 0.2322452633288092 0.4349855486476148 204 204 204 55 
40 -40 -40 0.816496580927726 -0.408248290463863 -0.408248290463863 204 204 204 225 
-18.545 15 25.525 0.2358258651073886 0.9159853922155143 -0.3245873112032298 204 204 204 225 
40 40 -40 0.4400056314099905 0.1788161671591188 -0.880011262819981 204 204 204 64 
-30.007 15 -9.75 0.5584040429105424 0.8284628644011959 0.04282764491922524 204 204 204 129 
-30.007 40 -9.75 0.5372582087625525 0.7758790525613894 0.3307042680608979 204 204 204 64 
0 40 -31.551 -0.1460317638902735 0.7842639961730573 0.6029964413176602 204 204 204 64 
-18.545 40 25.525 0.4429356909920555 0.657369384964008 -0.6096502811919569 204 204 204 55 
30.007 40 -9.75 -0.4433022863272055 0.8847239687225426 0.1440367387332333 204 204 204 129 
18.545 40 25.525 -0.6443595310256444 0.5332485025059354 -0.5481303032597168 204 204 204 129 
3 0 2 5 
3 0 5 3 
3 3 5 11 
3 3 11 9 
3 9 11 8 
3 9 8 6 
3 6 8 2 
3 6 2 0 
3 3 9 6 
3 3 6 0 
3 15 2 8 
3 15 8 17 
3 17 8 16 
3 16 8 11 
3 16 11 14 
3 14 11 5 
3 14 5 13 
3 13 5 2 
3 13 2 15 
3 14 1 4 
3 14 4 16 
3 4 7 17 
3 4 17 16 
3 7 10 15 
3 7 15 17 
3 15 10 12 
3 15 12 13 
3 13 12 1 
3 13 1 14 
3 4 1 12 
3 4 12 10 
3 4 10 7 
