ply
format ascii 1.0
comment VCGLIB generated
element vertex 18
property float x
property float y
property float z
property float nx
property float ny
property float nz
property uchar red
property uchar green
property uchar blue
property uchar alpha
element face 32
property list uchar int vertex_indices
end_header
-40 -40 40 -0.816496580927726 -0.408248290463863 0.408248290463863 204 204 204 225 
-22.31 15 -22.31 0.7432372211876775 0.4919396655091696 0.4534245235316959 204 204 204 225 
-40 40 40 -0.4347065875900434 0.2348423163084112 0.8694131751800868 204 204 204 55 
-40 -40 -40 -0.3333333333333333 -0.6666666666666666 -0.6666666666666666 204 204 204 129 
14.324 15 -28.112 -0.2430682430938971 0.8446026907193679 0.4770368162195137 204 204 204 55 
-40 40 -40 -0.8739384823210725 0.212813090287993 -0.4369692411605363 204 204 204 64 
40 -40 40 0.3333333333333333 -0.6666666666666666 0.6666666666666666 204 204 204 129 
31.162 15 4.936 -0.8037017785133936 0.4919257373195218 -0.3347723408184327 204 204 204 225 
40 40 40 0.8803926882161203 0.1764536572856782 0.4401963441080601 204 204 204 64 
40 -40 -40 0.816496580927726 -0.408248290463863 -0.408248290463863 204 204 204 225 
4.936 15 31.162 0.04504752431030989 0.8284566317031228 -0.5582385958894533 204 204 204 129 
40 40 -40 0.4394224998247241 0.1858476075685445 -0.8788449996494482 204 204 204 64 
-28.112 15 14.324 0.3574789601901464 0.9159860981203974 -0.1821490078796515 204 204 204 225 
-28.112 40 14.324 0.8140454332548127 0.4065487799607582 -0.4147868393637908 204 204 204 64 
14.324 40 -28.112 -0.2174086621685447 0.8778833251433321 0.4266782640929466 204 204 204 129 
-22.31 40 -22.31 0.3575442370680472 0.7271036682463509 0.5860736934568284 204 204 204 64 
4.936 40 31.162 -0.2395613364181295 0.7822031975497858 -0.5751247897947458 204 204 204 64 
31.162 40 4.936 -0.6210102212184778 0.7821988232828944 0.0501129324329809 204 204 204 64 
3 0 2 5 
3 0 5 3 
3 3 5 11 
3 3 11 9 
3 9 11 8 
3 9 8 6 
3 6 8 2 
3 6 2 0 
3 3 9 6 
3 3 6 0 
3 14 11 5 
3 14 5 15 
3 11 17 8 
3 8 17 16 
3 8 16 2 
3 2 16 13 
3 2 13 15 
3 2 15 5 
3 17 11 14 
3 15 1 4 
3 15 4 14 
3 4 7 17 
3 4 17 14 
3 7 10 16 
3 7 16 17 
3 10 12 13 
3 10 13 16 
3 13 12 1 
3 13 1 15 
3 4 1 12 
3 4 12 10 
3 4 10 7 
