ply
format ascii 1.0
comment VCGLIB generated
element vertex 25
property float x
property float y
property float z
property float nx
property float ny
property float nz
property uchar red
property uchar green
property uchar blue
property uchar alpha
element face 46
property list uchar int vertex_indices
end_header
-40 -40 40 -0.816496580927726 -0.408248290463863 0.408248290463863 204 204 204 225 
-40 40 40 -0.4447075921714094 0.1057155964157456 0.8894151843428189 204 204 204 55 
-3.818 15 14.001 0.05624367257984269 0.8605127388209078 0.5063146014304464 204 204 204 64 
-40 -40 -40 -0.3333333333333333 -0.6666666666666666 -0.6666666666666666 204 204 204 129 
-40 40 -40 -0.885654612869396 0.1397135762155941 -0.442827306434698 204 204 204 64 
-2.121 15 -35.21400000000001 0.5324641249681604 0.3534261529007409 0.7691371204588122 204 204 204 225 
40 -40 40 0.3333333333333333 -0.6666666666666666 0.6666666666666666 204 204 204 129 
40 40 40 0.885654612869396 0.1397135762155941 0.442827306434698 204 204 204 64 
-14.001 15 3.818 -0.4320392255898045 0.882643715691473 -0.1851544725414749 204 204 204 129 
40 -40 -40 0.816496580927726 -0.408248290463863 -0.408248290463863 204 204 204 225 
40 40 -40 0.4404526194058556 0.1732265865639638 -0.8809052388117112 204 204 204 55 
35.21400000000001 15 2.121 -0.774671437889504 0.518847316516842 -0.3614991361835881 204 204 204 64 
-39.457 15 2.121 0.5844123286535612 0.8114568565966536 0 204 204 204 129 
-2.121 15 39.457 0.2559071490852484 0.5874741139866575 -0.7677145930895491 204 204 204 55 
21.637 15 -11.455 0.4697579886310934 0.3478610709550303 0.8113692793243339 204 204 204 225 
11.455 15 -21.637 -0.7340556910276183 0.6412839845423957 -0.2234213365804494 204 204 204 64 
-39.457 40 2.121 0.805964795486273 0.5806579227211489 0.1151395901414034 204 204 204 55 
-20.789 40 20.789 0.4788033305457355 0.7358632626491299 -0.4788033305457355 204 204 204 225 
-14.001 40 3.818 -0.8105167108648044 0.4716009676604505 -0.3473545576361792 204 204 204 64 
11.455 40 -21.637 -0.8528473527565693 0.453068368682629 -0.2595774377625548 204 204 204 225 
-2.121 40 -35.21400000000001 0.07282963764940063 0.8842427562033744 0.4613139841601561 204 204 204 55 
-2.121 40 39.457 -0.3891460954985262 0.6541646916573668 -0.6485629287486867 204 204 204 64 
-3.818 40 14.001 0.5338217803911884 0.2717940248334226 0.800726117249107 204 204 204 225 
35.21400000000001 40 2.121 -0.4290936228971414 0.8807861700824349 -0.2002358244184139 204 204 204 129 
21.637 40 -11.455 -0.01375258151273343 0.9043369606947939 0.4265976183982262 204 204 204 240 
3 0 1 4 
3 0 4 3 
3 3 4 10 
3 3 10 9 
3 9 10 7 
3 9 7 6 
3 6 7 1 
3 6 1 0 
3 3 9 6 
3 3 6 0 
3 24 10 20 
3 24 20 19 
3 24 19 18 
3 24 18 22 
3 16 20 4 
3 16 4 1 
3 16 1 17 
3 4 20 10 
3 17 1 21 
3 21 1 7 
3 21 7 23 
3 23 7 10 
3 23 10 24 
3 11 13 21 
3 11 21 23 
3 13 12 16 
3 13 16 17 
3 13 17 21 
3 11 2 13 
3 13 2 8 
3 13 8 12 
3 12 8 15 
3 12 15 5 
3 2 11 14 
3 24 14 11 
3 24 11 23 
3 20 5 15 
3 20 15 19 
3 16 12 5 
3 16 5 20 
3 18 8 2 
3 18 2 22 
3 15 8 18 
3 15 18 19 
3 22 2 14 
3 22 14 24 
