ply
format ascii 1.0
comment VCGLIB generated
element vertex 24
property float x
property float y
property float z
property float nx
property float ny
property float nz
property uchar red
property uchar green
property uchar blue
property uchar alpha
element face 40
property list uchar int vertex_indices
end_header
40 -40 40 0.816496580927726 -0.408248290463863 0.408248290463863 204 204 204 225 
40 40 40 0.3333333333333333 0.6666666666666666 0.6666666666666666 204 204 204 129 
40 -40 -40 0.3333333333333333 -0.6666666666666666 -0.6666666666666666 204 204 204 129 
40 40 -40 0.816496580927726 0.408248290463863 -0.408248290463863 204 204 204 225 
-40 -40 40 -0.3333333333333333 -0.6666666666666666 0.6666666666666666 204 204 204 129 
-40 40 40 -0.816496580927726 0.408248290463863 0.408248290463863 204 204 204 225 
-40 -40 -40 -0.816496580927726 -0.408248290463863 -0.408248290463863 204 204 204 225 
-40 40 -40 -0.3333333333333333 0.6666666666666666 -0.6666666666666666 204 204 204 129 
2.121 60 -31.82 0.4481933609058336 0.3259902401453323 -0.8323779637700182 204 204 204 129 
3.818 40 17.395 0.1435436157132124 -0.8700209313765939 -0.4716553925850753 204 204 204 129 
3.818 60 17.395 0.2183194491722338 0.6616194303128751 -0.7173537115995143 204 204 204 55 
2.121 40 -31.82 0.390278370214618 -0.5677323705672779 -0.7248191147815299 204 204 204 130 
-31.82 60 2.121 -0.6589812080644409 0.7338990056788978 0.1647301334955306 204 204 204 129 
17.395 40 3.818 -0.6218200950964043 -0.7829029145896047 -0.02006976983926126 204 204 204 64 
17.395 60 3.818 -0.64681768435748 0.6643744394039566 0.3744776194502227 204 204 204 64 
-31.82 40 2.121 -0.6825474900584765 -0.5287923460491513 0.5044874414439952 204 204 204 129 
36.062 60 2.121 0.7293486887028883 0.6394880680733591 0.2431162295676294 204 204 204 64 
36.062 40 2.121 0.7293486887028883 -0.6394880680733591 -0.2431162295676294 204 204 204 64 
2.121 60 36.062 -0.2593517340746052 0.5721597507033789 0.7780552022238156 204 204 204 64 
2.121 40 36.062 0.2593517340746052 -0.5721597507033789 0.7780552022238155 204 204 204 64 
-21.637 60 -8.061 0.3274929934594349 0.5557574302591227 -0.7641217297962118 204 204 204 130 
-8.061 60 -21.637 -0.496071704991392 0.8418490382359226 0.2126101134193423 204 204 204 225 
-21.637 40 -8.061 0.373613355000408 -0.3170119700762932 -0.8717318806798834 204 204 204 129 
-8.061 40 -21.637 -0.7247774195924436 -0.6149848575112745 0.3106305153727758 204 204 204 64 
3 1 0 3 
3 3 0 2 
3 3 2 7 
3 7 2 6 
3 7 6 5 
3 5 6 4 
3 5 4 1 
3 1 4 0 
3 6 2 4 
3 4 2 0 
3 3 7 1 
3 1 7 5 
3 23 11 17 
3 23 17 13 
3 13 17 19 
3 13 19 9 
3 9 19 15 
3 9 15 22 
3 10 12 18 
3 10 18 14 
3 14 18 16 
3 14 16 21 
3 21 16 8 
3 12 10 20 
3 12 15 18 
3 18 15 19 
3 18 19 16 
3 16 19 17 
3 15 12 22 
3 22 12 20 
3 11 23 8 
3 8 23 21 
3 16 17 8 
3 8 17 11 
3 9 10 13 
3 13 10 14 
3 21 23 14 
3 14 23 13 
3 9 22 10 
3 10 22 20 
