ply
format ascii 1.0
comment VCGLIB generated
element vertex 24
property float x
property float y
property float z
property float nx
property float ny
property float nz
property uchar red
property uchar green
property uchar blue
property uchar alpha
element face 44
property list uchar int vertex_indices
end_header
-40 -40 40 -0.816496580927726 -0.408248290463863 0.408248290463863 204 204 204 225 
-40 40 40 -0.4397154706025714 0.1823500056588863 0.8794309412051428 204 204 204 64 
-12.6 15 7.2 -0.2675627639268081 0.6935226840982865 0.6689069098170203 204 204 204 225 
-40 -40 -40 -0.3333333333333333 -0.6666666666666666 -0.6666666666666666 204 204 204 129 
-40 40 -40 -0.8811290045533888 0.171798127662797 -0.4405645022766944 204 204 204 64 
23.4 15 -26.4 -0.292144550546064 0.5188487217698096 0.8033975140016759 204 204 204 64 
40 -40 40 0.3333333333333333 -0.6666666666666666 0.6666666666666666 204 204 204 129 
40 40 40 0.8716555114878346 0.2242115889424582 0.4358277557439173 204 204 204 240 
-12.6 15 -7.2 -0.2353456159250308 0.9263203442809209 -0.2941820199062884 204 204 204 55 
40 -40 -40 0.816496580927726 -0.408248290463863 -0.408248290463863 204 204 204 225 
40 40 -40 0.436860111567919 0.2139303966348099 -0.873720223135838 204 204 204 64 
23.4 15 26.4 -0.1673407715154007 0.3534237094405263 -0.9203742433347041 204 204 204 225 
-29.4 15 -26.4 0.7519859855181764 0.541429909573087 0.3759929927590882 204 204 204 129 
-29.4 15 26.4 0.3889779116366157 0.8351002146554832 -0.3889779116366157 204 204 204 64 
23.4 15 7.2 -0.3610837565700218 0.6412847516683586 0.6770320435687909 204 204 204 64 
23.4 15 -7.2 -0.2415705599934701 0.3478616063905969 -0.9058895999755128 204 204 204 225 
-29.4 40 26.4 0.6144845278219543 0.4947903900995446 -0.6144845278219543 204 204 204 55 
-12.6 40 7.2 -0.3274976465284939 0.4715966110010312 0.8187441163212349 204 204 204 64 
-12.6 40 -7.2 -0.1887343484376329 0.2717774617501914 -0.9436717421881645 204 204 204 225 
-29.4 40 -26.4 0.3489570808771562 0.6254156845878341 0.6979141617543124 204 204 204 64 
23.4 40 -26.4 -0.1745156995303603 0.8597806796862417 0.4799181737084908 204 204 204 129 
23.4 40 26.4 -0.3582993835524076 0.7930359689293287 -0.4926616523845604 204 204 204 64 
23.4 40 7.2 -0.323724816122375 0.7257910377463647 0.6069840302294531 204 204 204 129 
23.4 40 -7.2 -0.4643470769349161 0.7712804947888955 -0.4353253846264838 204 204 204 55 
3 0 1 4 
3 0 4 3 
3 3 4 10 
3 3 10 9 
3 9 10 7 
3 9 7 6 
3 6 7 1 
3 6 1 0 
3 3 9 6 
3 3 6 0 
3 4 1 16 
3 4 16 19 
3 16 1 21 
3 21 1 7 
3 21 7 22 
3 22 7 23 
3 22 23 17 
3 17 23 18 
3 4 19 10 
3 10 19 20 
3 10 20 7 
3 7 20 23 
3 11 13 16 
3 11 16 21 
3 16 13 12 
3 16 12 19 
3 8 15 5 
3 8 5 12 
3 8 12 13 
3 8 13 2 
3 14 2 13 
3 14 13 11 
3 14 11 21 
3 14 21 22 
3 5 15 23 
3 5 23 20 
3 19 12 5 
3 19 5 20 
3 8 2 17 
3 8 17 18 
3 15 8 18 
3 15 18 23 
3 17 2 14 
3 17 14 22 
